<?xml version="1.0" standalone="no"?>
<!DOCTYPE svg PUBLIC "-//W3C//DTD SVG 20010904//EN"
 "http://www.w3.org/TR/2001/REC-SVG-20010904/DTD/svg10.dtd">
<svg version="1.0" xmlns="http://www.w3.org/2000/svg"
 width="1000.000000pt" height="515.000000pt" viewBox="0 0 1000.000000 515.000000"
 preserveAspectRatio="xMidYMid meet">

<g transform="translate(0.000000,515.000000) scale(0.100000,-0.100000)"
fill="#000000" stroke="none">
<path d="M4741 4921 c-13 -8 -13 -12 -1 -26 7 -9 22 -14 32 -12 10 3 18 1 18
-4 0 -6 6 -7 16 -1 9 5 25 7 35 5 34 -9 20 8 -23 27 -49 22 -57 23 -77 11z"/>
<path d="M4866 4872 c-3 -5 1 -9 9 -9 8 0 12 4 9 9 -3 4 -7 8 -9 8 -2 0 -6 -4
-9 -8z"/>
<path d="M6235 3350 c-22 -11 -45 -20 -52 -20 -7 0 -13 -4 -13 -9 0 -5 -11
-12 -25 -15 -44 -11 -157 -135 -248 -273 -121 -183 -190 -232 -337 -241 -91
-5 -160 18 -253 84 -251 176 -288 194 -425 202 -225 13 -376 -74 -517 -298
-33 -52 -77 -119 -97 -149 -42 -60 -47 -97 -19 -132 13 -17 29 -23 56 -23 33
0 44 7 78 44 21 25 66 89 99 142 108 176 177 234 306 258 72 13 149 2 209 -29
21 -10 90 -56 153 -101 63 -45 135 -92 160 -105 149 -76 331 -74 479 5 95 51
154 116 264 292 85 134 133 183 222 223 76 35 90 47 100 85 4 18 0 34 -15 53
-26 33 -69 36 -125 7z"/>
<path d="M5335 3141 c35 -15 123 -23 140 -13 16 8 16 9 1 15 -10 4 -15 3 -12
-2 3 -4 -8 -8 -24 -9 -17 0 -30 3 -30 7 0 4 -21 8 -47 9 -34 1 -42 -1 -28 -7z"/>
<path d="M4270 3031 c-8 -6 -17 -8 -21 -5 -4 2 -10 0 -14 -6 -4 -6 -11 -8 -16
-5 -5 4 -9 2 -9 -4 0 -10 -38 -27 -52 -23 -5 1 -8 -2 -8 -7 0 -8 -70 -37 -77
-33 -2 1 -12 -6 -23 -15 -11 -10 -28 -25 -38 -33 -9 -8 -25 -14 -34 -12 -9 2
-20 -2 -24 -9 -5 -8 -3 -10 7 -4 8 5 5 -2 -6 -15 l-20 -23 55 5 c97 8 213 73
280 158 31 39 31 50 0 31z"/>
<path d="M4870 2590 c-155 -24 -320 -132 -320 -210 0 -75 77 -91 160 -34 76
52 131 74 203 81 89 8 157 -14 267 -88 50 -33 105 -65 122 -70 58 -16 108 14
108 66 0 34 -28 65 -115 127 -154 109 -286 149 -425 128z"/>
<path d="M2524 1531 c-34 -10 -82 -30 -108 -45 -52 -30 -58 -41 -289 -536 -58
-124 -160 -341 -226 -483 -67 -142 -121 -263 -121 -268 0 -6 54 -8 130 -7
l130 3 255 545 c283 606 290 617 367 607 74 -10 29 75 439 -842 l139 -310 130
-3 c107 -2 130 0 130 12 0 12 -76 181 -451 1011 -55 121 -110 230 -122 243
-73 79 -263 113 -403 73z"/>
<path d="M7275 1531 c-33 -9 -80 -28 -105 -41 -52 -29 -68 -58 -279 -510 -68
-146 -177 -379 -243 -518 -65 -140 -118 -258 -118 -263 0 -6 54 -8 130 -7
l131 3 123 265 c370 794 385 824 422 859 32 30 41 33 78 28 45 -6 74 -34 105
-102 25 -56 210 -468 352 -785 l118 -265 131 -3 c106 -2 130 0 130 11 0 8 -18
54 -41 103 -22 49 -46 103 -54 119 -417 926 -455 1008 -478 1033 -73 78 -263
113 -402 73z"/>
<path d="M160 855 l0 -665 115 0 115 0 0 273 c0 259 1 275 19 292 18 15 39 17
218 13 312 -7 310 -6 529 -360 l130 -213 132 -3 c77 -1 132 1 132 7 0 5 -37
69 -81 143 -241 394 -257 414 -359 463 -97 46 -105 51 -105 65 0 8 29 30 64
50 102 56 144 106 294 356 75 126 137 233 137 237 0 4 -57 6 -127 5 l-126 -3
-134 -220 c-210 -344 -215 -348 -496 -353 -168 -4 -190 -2 -208 14 -18 16 -19
33 -19 291 l0 273 -115 0 -115 0 0 -665z"/>
<path d="M3804 1507 c-3 -8 -4 -49 -2 -93 l3 -79 455 -5 c509 -6 495 -4 562
-78 89 -99 66 -230 -54 -309 l-41 -28 -391 -6 c-460 -7 -477 -10 -511 -92 -12
-30 -15 -91 -15 -332 l0 -296 118 3 117 3 5 245 c3 162 9 252 17 265 11 19 25
20 360 26 332 5 351 6 413 29 189 68 275 187 274 380 -2 201 -106 315 -329
361 -80 17 -140 19 -533 19 -361 0 -444 -2 -448 -13z"/>
<path d="M5324 1507 c-3 -8 -4 -49 -2 -93 l3 -79 219 -3 c187 -2 223 -5 238
-19 17 -15 18 -49 18 -570 l0 -554 118 3 117 3 3 554 c1 384 6 558 13 567 9
11 65 14 238 16 l226 3 0 90 0 90 -593 3 c-489 2 -593 0 -598 -11z"/>
<path d="M8554 1507 c-3 -8 -4 -49 -2 -93 l3 -79 480 -5 c467 -5 481 -6 520
-27 108 -58 148 -169 97 -270 -26 -50 -80 -96 -131 -112 -26 -7 -155 -11 -387
-11 -360 0 -466 -8 -515 -37 -54 -32 -59 -63 -59 -389 l0 -295 116 3 116 3 -1
232 c-1 145 2 240 8 252 28 51 28 51 265 51 l223 0 84 -118 c46 -65 131 -186
189 -270 l105 -151 127 -1 c70 0 129 3 131 8 2 4 -75 121 -171 261 -136 196
-173 257 -165 269 5 9 40 28 78 43 181 74 252 187 243 388 -3 86 -7 103 -37
159 -53 98 -137 153 -285 183 -81 17 -141 19 -559 19 -381 0 -469 -2 -473 -13z"/>
</g>
</svg>
