  0
SECTION
  2
HEADER
  9
$ACADVER
  1
AC1006
  9
$EXTMIN
 10
0.000000
 20
0.000000
 30
0.000000
  9
$EXTMAX
 10
1000.000000
 20
515.000000
 30
0.000000
  0
ENDSEC
  0
SECTION
  2
ENTITIES
  0
POLYLINE
  8
0
 66
1
 70
1
  0
VERTEX
  8
0
 10
474.064302
 20
492.060903
 42
0.049253
  0
VERTEX
  8
0
 10
473.356902
 20
491.508937
 42
0.198141
  0
VERTEX
  8
0
 10
473.138608
 20
491.018216
 42
0.154164
  0
VERTEX
  8
0
 10
473.305499
 20
490.434711
 42
0.027064
  0
VERTEX
  8
0
 10
473.994446
 20
489.506693
 42
0.072014
  0
VERTEX
  8
0
 10
474.652309
 20
488.912854
 42
0.059717
  0
VERTEX
  8
0
 10
475.493654
 20
488.484187
 42
0.061566
  0
VERTEX
  8
0
 10
476.382669
 20
488.277013
 42
0.090685
  0
VERTEX
  8
0
 10
477.180143
 20
488.336858
 42
-0.047943
  0
VERTEX
  8
0
 10
477.877116
 20
488.449309
 42
-0.080705
  0
VERTEX
  8
0
 10
478.465417
 20
488.392119
 42
-0.118838
  0
VERTEX
  8
0
 10
478.854692
 20
488.182210
 42
-0.213062
  0
VERTEX
  8
0
 10
479.000000
 20
487.856690
 42
0.193712
  0
VERTEX
  8
0
 10
479.128003
 20
487.538693
 42
0.198240
  0
VERTEX
  8
0
 10
479.439083
 20
487.401998
 42
0.099586
  0
VERTEX
  8
0
 10
479.953418
 20
487.493415
 42
0.033960
  0
VERTEX
  8
0
 10
480.642033
 20
487.819548
 42
-0.058901
  0
VERTEX
  8
0
 10
481.406495
 20
488.136056
 42
-0.037960
  0
VERTEX
  8
0
 10
482.347497
 20
488.325817
 42
-0.037865
  0
VERTEX
  8
0
 10
483.310504
 20
488.371509
 42
-0.056936
  0
VERTEX
  8
0
 10
484.142033
 20
488.252607
 42
0.076819
  0
VERTEX
  8
0
 10
485.633006
 20
488.099333
 42
0.623971
  0
VERTEX
  8
0
 10
485.835529
 20
488.572815
 42
0.090095
  0
VERTEX
  8
0
 10
484.492219
 20
489.658111
 42
0.018438
  0
VERTEX
  8
0
 10
481.750000
 20
491.026930
 42
0.010589
  0
VERTEX
  8
0
 10
478.588553
 20
492.381972
 42
0.062587
  0
VERTEX
  8
0
 10
476.850821
 20
492.841901
 42
0.109062
  0
VERTEX
  8
0
 10
475.513567
 20
492.729931
 42
0.065937
  0
SEQEND
  0
POLYLINE
  8
0
 66
1
 70
1
  0
VERTEX
  8
0
 10
486.603006
 20
487.166667
 42
0.156081
  0
VERTEX
  8
0
 10
486.524383
 20
486.850742
 42
0.191391
  0
VERTEX
  8
0
 10
486.654049
 20
486.578125
 42
0.128073
  0
VERTEX
  8
0
 10
486.996371
 20
486.393832
 42
0.059847
  0
VERTEX
  8
0
 10
487.500000
 20
486.333333
 42
0.059847
  0
VERTEX
  8
0
 10
488.003629
 20
486.393832
 42
0.128073
  0
VERTEX
  8
0
 10
488.345951
 20
486.578125
 42
0.191391
  0
VERTEX
  8
0
 10
488.475617
 20
486.850742
 42
0.156081
  0
VERTEX
  8
0
 10
488.396994
 20
487.166667
 42
0.030643
  0
VERTEX
  8
0
 10
488.171760
 20
487.485629
 42
0.036533
  0
VERTEX
  8
0
 10
487.921053
 20
487.755208
 42
0.039602
  0
VERTEX
  8
0
 10
487.681431
 20
487.944840
 42
0.148655
  0
VERTEX
  8
0
 10
487.500000
 20
488.000000
 42
0.148655
  0
VERTEX
  8
0
 10
487.318569
 20
487.944840
 42
0.039602
  0
VERTEX
  8
0
 10
487.078947
 20
487.755208
 42
0.036533
  0
VERTEX
  8
0
 10
486.828240
 20
487.485629
 42
0.030643
  0
SEQEND
  0
POLYLINE
  8
0
 66
1
 70
1
  0
VERTEX
  8
0
 10
623.500000
 20
335.000000
 42
-0.012124
  0
VERTEX
  8
0
 10
621.903615
 20
334.234299
 42
-0.014138
  0
VERTEX
  8
0
 10
620.350949
 20
333.587500
 42
-0.013166
  0
VERTEX
  8
0
 10
619.015760
 20
333.115034
 42
-0.078605
  0
VERTEX
  8
0
 10
618.288558
 20
333.000000
 42
0.067431
  0
VERTEX
  8
0
 10
617.796014
 20
332.933271
 42
0.084192
  0
VERTEX
  8
0
 10
617.378514
 20
332.738095
 42
0.099601
  0
VERTEX
  8
0
 10
617.099319
 20
332.448409
 42
0.143067
  0
VERTEX
  8
0
 10
617.000000
 20
332.108408
 42
-0.210026
  0
VERTEX
  8
0
 10
616.830269
 20
331.722161
 42
-0.050120
  0
VERTEX
  8
0
 10
616.255390
 20
331.291836
 42
-0.043062
  0
VERTEX
  8
0
 10
615.435772
 20
330.889482
 42
-0.031102
  0
VERTEX
  8
0
 10
614.465156
 20
330.580611
 42
0.127869
  0
VERTEX
  8
0
 10
610.378956
 20
328.346915
 42
0.019629
  0
VERTEX
  8
0
 10
603.831491
 20
321.687512
 42
0.021000
  0
VERTEX
  8
0
 10
596.635541
 20
313.068809
 42
0.017437
  0
VERTEX
  8
0
 10
589.705099
 20
303.336617
 42
-0.023867
  0
VERTEX
  8
0
 10
581.150941
 20
291.645319
 42
-0.067750
  0
VERTEX
  8
0
 10
573.818805
 20
284.730535
 42
-0.085375
  0
VERTEX
  8
0
 10
565.954280
 20
280.926853
 42
-0.055835
  0
VERTEX
  8
0
 10
556.000000
 20
279.232547
 42
-0.042482
  0
VERTEX
  8
0
 10
549.435948
 20
279.415559
 42
-0.051176
  0
VERTEX
  8
0
 10
543.409875
 20
280.731824
 42
-0.046652
  0
VERTEX
  8
0
 10
537.350746
 20
283.369280
 42
-0.027597
  0
VERTEX
  8
0
 10
530.659828
 20
287.554537
 42
0.006136
  0
VERTEX
  8
0
 10
514.247200
 20
298.828269
 42
0.036240
  0
VERTEX
  8
0
 10
505.187052
 20
303.981590
 42
0.060039
  0
VERTEX
  8
0
 10
497.601445
 20
306.535617
 42
0.036755
  0
VERTEX
  8
0
 10
488.231127
 20
307.773629
 42
0.062212
  0
VERTEX
  8
0
 10
472.547667
 20
306.731008
 42
0.083174
  0
VERTEX
  8
0
 10
459.204308
 20
301.760093
 42
0.076811
  0
VERTEX
  8
0
 10
447.457320
 20
292.340207
 42
0.045077
  0
VERTEX
  8
0
 10
436.508394
 20
277.981918
 42
-0.002382
  0
VERTEX
  8
0
 10
433.948880
 20
273.954729
 42
-0.001979
  0
VERTEX
  8
0
 10
431.188747
 20
269.694427
 42
-0.001997
  0
VERTEX
  8
0
 10
428.629316
 20
265.811920
 42
-0.005405
  0
VERTEX
  8
0
 10
426.772654
 20
263.084217
 42
0.033465
  0
VERTEX
  8
0
 10
424.269986
 20
258.923666
 42
0.083010
  0
VERTEX
  8
0
 10
423.192104
 20
255.547037
 42
0.111167
  0
VERTEX
  8
0
 10
423.420273
 20
252.630409
 42
0.095580
  0
VERTEX
  8
0
 10
424.871159
 20
249.910784
 42
0.055619
  0
VERTEX
  8
0
 10
425.958404
 20
248.837333
 42
0.070164
  0
VERTEX
  8
0
 10
427.178568
 20
248.126033
 42
0.062666
  0
VERTEX
  8
0
 10
428.656564
 20
247.728857
 42
0.034353
  0
VERTEX
  8
0
 10
430.529855
 20
247.600000
 42
0.045577
  0
VERTEX
  8
0
 10
432.696204
 20
247.797880
 42
0.085056
  0
VERTEX
  8
0
 10
434.345280
 20
248.403362
 42
0.063991
  0
VERTEX
  8
0
 10
435.987097
 20
249.649910
 42
0.016945
  0
VERTEX
  8
0
 10
438.259127
 20
252.041781
 42
0.021723
  0
VERTEX
  8
0
 10
440.177028
 20
254.401948
 42
0.007074
  0
VERTEX
  8
0
 10
442.804386
 20
258.045094
 42
0.007035
  0
VERTEX
  8
0
 10
445.612315
 20
262.179689
 42
0.007871
  0
VERTEX
  8
0
 10
448.197146
 20
266.241197
 42
-0.022698
  0
VERTEX
  8
0
 10
455.897512
 20
277.583783
 42
-0.057668
  0
VERTEX
  8
0
 10
462.722753
 20
284.807922
 42
-0.072712
  0
VERTEX
  8
0
 10
469.979471
 20
289.291133
 42
-0.057276
  0
VERTEX
  8
0
 10
478.831238
 20
291.969398
 42
-0.039809
  0
VERTEX
  8
0
 10
484.235460
 20
292.510593
 42
-0.038823
  0
VERTEX
  8
0
 10
489.703512
 20
292.196536
 42
-0.039561
  0
VERTEX
  8
0
 10
494.953436
 20
291.055256
 42
-0.045450
  0
VERTEX
  8
0
 10
499.708108
 20
289.134220
 42
-0.023581
  0
VERTEX
  8
0
 10
501.844507
 20
287.905414
 42
-0.004052
  0
VERTEX
  8
0
 10
505.764257
 20
285.352834
 42
-0.004406
  0
VERTEX
  8
0
 10
510.319123
 20
282.275692
 42
-0.003923
  0
VERTEX
  8
0
 10
515.000000
 20
278.998550
 42
0.004711
  0
VERTEX
  8
0
 10
519.732814
 20
275.696143
 42
0.004970
  0
VERTEX
  8
0
 10
524.443750
 20
272.542825
 42
0.004761
  0
VERTEX
  8
0
 10
528.556763
 20
269.904168
 42
0.022342
  0
VERTEX
  8
0
 10
531.000000
 20
268.517549
 42
0.061534
  0
VERTEX
  8
0
 10
542.578925
 20
264.309068
 42
0.059247
  0
VERTEX
  8
0
 10
554.985581
 20
262.972088
 42
0.059149
  0
VERTEX
  8
0
 10
567.378946
 20
264.581842
 42
0.060935
  0
VERTEX
  8
0
 10
578.918545
 20
269.044952
 42
0.043504
  0
VERTEX
  8
0
 10
585.623833
 20
273.416202
 42
0.042306
  0
VERTEX
  8
0
 10
591.539810
 20
278.919019
 42
0.031811
  0
VERTEX
  8
0
 10
597.697518
 20
286.637310
 42
0.011971
  0
VERTEX
  8
0
 10
605.343902
 20
298.160302
 42
-0.015614
  0
VERTEX
  8
0
 10
611.271669
 20
306.953666
 42
-0.039210
  0
VERTEX
  8
0
 10
616.265542
 20
312.849639
 42
-0.049146
  0
VERTEX
  8
0
 10
621.373588
 20
317.078012
 42
-0.041008
  0
VERTEX
  8
0
 10
627.519379
 20
320.525994
 42
0.012068
  0
VERTEX
  8
0
 10
632.415816
 20
322.912037
 42
0.057661
  0
VERTEX
  8
0
 10
634.990608
 20
324.646340
 42
0.092346
  0
VERTEX
  8
0
 10
636.488259
 20
326.503420
 42
0.062227
  0
VERTEX
  8
0
 10
637.476131
 20
329.048876
 42
0.062051
  0
VERTEX
  8
0
 10
637.637086
 20
330.362049
 42
0.068914
  0
VERTEX
  8
0
 10
637.459420
 20
331.626506
 42
0.061169
  0
VERTEX
  8
0
 10
636.916749
 20
332.912232
 42
0.036251
  0
VERTEX
  8
0
 10
635.983945
 20
334.293281
 42
0.105767
  0
VERTEX
  8
0
 10
633.708125
 20
336.185139
 42
0.106962
  0
VERTEX
  8
0
 10
630.866685
 20
336.970503
 42
0.086101
  0
VERTEX
  8
0
 10
627.452959
 20
336.575395
 42
0.046151
  0
SEQEND
  0
POLYLINE
  8
0
 66
1
 70
1
  0
VERTEX
  8
0
 10
533.500000
 20
314.094442
 42
0.053929
  0
VERTEX
  8
0
 10
536.692967
 20
313.140101
 42
0.022098
  0
VERTEX
  8
0
 10
541.179369
 20
312.514757
 42
0.018346
  0
VERTEX
  8
0
 10
545.534018
 20
312.263578
 42
0.133569
  0
VERTEX
  8
0
 10
547.546134
 20
312.765880
 42
0.012436
  0
VERTEX
  8
0
 10
548.549697
 20
313.360748
 42
0.256305
  0
VERTEX
  8
0
 10
548.714972
 20
313.656884
 42
0.295571
  0
VERTEX
  8
0
 10
548.543676
 20
313.925583
 42
0.015519
  0
VERTEX
  8
0
 10
547.557521
 20
314.339554
 42
0.031277
  0
VERTEX
  8
0
 10
546.951357
 20
314.529638
 42
0.103939
  0
VERTEX
  8
0
 10
546.536177
 20
314.543845
 42
0.295358
  0
VERTEX
  8
0
 10
546.374603
 20
314.394131
 42
0.203405
  0
VERTEX
  8
0
 10
546.413632
 20
314.139747
 42
-0.354644
  0
VERTEX
  8
0
 10
546.371795
 20
313.814783
 42
-0.100605
  0
VERTEX
  8
0
 10
545.907985
 20
313.523604
 42
-0.055626
  0
VERTEX
  8
0
 10
545.067113
 20
313.309847
 42
-0.027350
  0
VERTEX
  8
0
 10
543.965570
 20
313.218084
 42
-0.023748
  0
VERTEX
  8
0
 10
542.828998
 20
313.239754
 42
-0.038283
  0
VERTEX
  8
0
 10
541.871136
 20
313.377747
 42
-0.045221
  0
VERTEX
  8
0
 10
541.187786
 20
313.596633
 42
-0.301254
  0
VERTEX
  8
0
 10
541.000000
 20
313.880022
 42
0.337093
  0
VERTEX
  8
0
 10
540.771241
 20
314.180776
 42
0.020707
  0
VERTEX
  8
0
 10
539.604687
 20
314.452521
 42
0.023983
  0
VERTEX
  8
0
 10
538.070894
 20
314.667883
 42
0.014745
  0
VERTEX
  8
0
 10
536.250000
 20
314.781021
 42
0.007164
  0
VERTEX
  8
0
 10
534.045091
 20
314.821238
 42
0.062223
  0
VERTEX
  8
0
 10
533.072972
 20
314.703649
 42
0.569387
  0
VERTEX
  8
0
 10
532.996466
 20
314.448134
 42
0.107490
  0
SEQEND
  0
POLYLINE
  8
0
 66
1
 70
1
  0
VERTEX
  8
0
 10
427.047746
 20
303.050670
 42
-0.041469
  0
VERTEX
  8
0
 10
426.438226
 20
302.732449
 42
-0.046714
  0
VERTEX
  8
0
 10
425.808051
 20
302.534119
 42
-0.052397
  0
VERTEX
  8
0
 10
425.249054
 20
302.474162
 42
-0.139833
  0
VERTEX
  8
0
 10
424.866844
 20
302.582295
 42
0.140411
  0
VERTEX
  8
0
 10
424.539788
 20
302.674424
 42
0.099908
  0
VERTEX
  8
0
 10
424.164767
 20
302.597006
 42
0.085105
  0
VERTEX
  8
0
 10
423.798518
 20
302.360943
 42
0.068831
  0
VERTEX
  8
0
 10
423.500000
 20
302.000000
 42
-0.088941
  0
VERTEX
  8
0
 10
423.185645
 20
301.649431
 42
-0.094986
  0
VERTEX
  8
0
 10
422.775821
 20
301.439712
 42
-0.099917
  0
VERTEX
  8
0
 10
422.334982
 20
301.402413
 42
-0.110145
  0
VERTEX
  8
0
 10
421.930902
 20
301.542705
 42
0.083218
  0
VERTEX
  8
0
 10
421.575233
 20
301.687875
 42
0.161891
  0
VERTEX
  8
0
 10
421.273452
 20
301.657740
 42
0.181844
  0
VERTEX
  8
0
 10
421.072789
 20
301.459120
 42
0.108108
  0
VERTEX
  8
0
 10
421.000000
 20
301.126405
 42
-0.256832
  0
VERTEX
  8
0
 10
420.569172
 20
300.342995
 42
-0.037112
  0
VERTEX
  8
0
 10
418.902527
 20
299.451858
 42
-0.039949
  0
VERTEX
  8
0
 10
417.045033
 20
298.801126
 42
-0.129562
  0
VERTEX
  8
0
 10
415.750000
 20
298.801875
 42
0.124400
  0
VERTEX
  8
0
 10
415.464413
 20
298.804942
 42
0.133585
  0
VERTEX
  8
0
 10
415.220312
 20
298.670832
 42
0.117792
  0
VERTEX
  8
0
 10
415.056817
 20
298.414803
 42
0.083645
  0
VERTEX
  8
0
 10
415.000000
 20
298.077552
 42
-0.291937
  0
VERTEX
  8
0
 10
414.553686
 20
297.378299
 42
-0.009726
  0
VERTEX
  8
0
 10
411.401662
 20
295.988911
 42
-0.010601
  0
VERTEX
  8
0
 10
408.212806
 20
294.735470
 42
-0.234881
  0
VERTEX
  8
0
 10
407.250000
 20
294.839940
 42
0.294331
  0
VERTEX
  8
0
 10
407.077241
 20
294.839420
 42
0.009915
  0
VERTEX
  8
0
 10
406.485938
 20
294.438920
 42
0.015871
  0
VERTEX
  8
0
 10
405.784663
 20
293.909222
 42
0.010046
  0
VERTEX
  8
0
 10
405.000000
 20
293.250000
 42
-0.000684
  0
VERTEX
  8
0
 10
404.106102
 20
292.469995
 42
-0.000443
  0
VERTEX
  8
0
 10
403.070064
 20
291.570064
 42
-0.000445
  0
VERTEX
  8
0
 10
402.056553
 20
290.692855
 42
-0.000845
  0
VERTEX
  8
0
 10
401.238516
 20
289.988516
 42
-0.050118
  0
VERTEX
  8
0
 10
400.442915
 20
289.433626
 42
-0.042924
  0
VERTEX
  8
0
 10
399.511168
 20
289.014107
 42
-0.045014
  0
VERTEX
  8
0
 10
398.589489
 20
288.781412
 42
-0.087116
  0
VERTEX
  8
0
 10
397.831753
 20
288.793885
 42
0.072848
  0
VERTEX
  8
0
 10
397.146900
 20
288.824597
 42
0.064225
  0
VERTEX
  8
0
 10
396.450124
 20
288.662260
 42
0.067103
  0
VERTEX
  8
0
 10
395.847334
 20
288.339826
 42
0.098324
  0
VERTEX
  8
0
 10
395.438728
 20
287.900860
 42
0.027570
  0
VERTEX
  8
0
 10
395.150012
 20
287.370416
 42
0.389485
  0
VERTEX
  8
0
 10
395.208592
 20
287.180701
 42
0.252544
  0
VERTEX
  8
0
 10
395.458354
 20
287.172270
 42
0.017712
  0
VERTEX
  8
0
 10
396.095492
 20
287.517386
 42
-0.164274
  0
VERTEX
  8
0
 10
396.406346
 20
287.582409
 42
-0.493717
  0
VERTEX
  8
0
 10
396.499926
 20
287.424200
 42
-0.068533
  0
VERTEX
  8
0
 10
396.190080
 20
286.882953
 42
-0.014521
  0
VERTEX
  8
0
 10
395.500000
 20
286.039677
 42
0.000000
  0
VERTEX
  8
0
 10
393.500000
 20
283.735565
 42
0.000000
  0
VERTEX
  8
0
 10
399.000000
 20
284.179640
 42
0.063200
  0
VERTEX
  8
0
 10
406.410174
 20
285.734281
 42
0.045523
  0
VERTEX
  8
0
 10
414.120334
 20
289.214614
 42
0.044492
  0
VERTEX
  8
0
 10
421.274932
 20
294.150640
 42
0.052071
  0
VERTEX
  8
0
 10
427.037138
 20
300.046891
 42
0.012038
  0
VERTEX
  8
0
 10
428.949243
 20
302.584305
 42
0.155785
  0
VERTEX
  8
0
 10
429.309009
 20
303.697386
 42
0.545768
  0
VERTEX
  8
0
 10
428.827759
 20
304.009361
 42
0.035020
  0
SEQEND
  0
POLYLINE
  8
0
 66
1
 70
1
  0
VERTEX
  8
0
 10
486.950604
 20
258.958487
 42
0.055584
  0
VERTEX
  8
0
 10
475.715397
 20
255.961800
 42
0.052450
  0
VERTEX
  8
0
 10
465.178957
 20
250.523023
 42
0.057757
  0
VERTEX
  8
0
 10
457.417525
 20
244.029275
 42
0.191985
  0
VERTEX
  8
0
 10
455.000000
 20
237.965204
 42
0.154408
  0
VERTEX
  8
0
 10
456.370657
 20
233.632603
 42
0.190498
  0
VERTEX
  8
0
 10
459.884255
 20
231.322972
 42
0.134268
  0
VERTEX
  8
0
 10
465.119251
 20
231.647462
 42
0.068532
  0
VERTEX
  8
0
 10
471.049265
 20
234.627659
 42
-0.021120
  0
VERTEX
  8
0
 10
476.445518
 20
238.013171
 42
-0.035034
  0
VERTEX
  8
0
 10
481.286105
 20
240.339725
 42
-0.038357
  0
VERTEX
  8
0
 10
486.072004
 20
241.827093
 42
-0.032894
  0
VERTEX
  8
0
 10
491.281983
 20
242.661871
 42
-0.048361
  0
VERTEX
  8
0
 10
497.752226
 20
242.638996
 42
-0.054218
  0
VERTEX
  8
0
 10
503.843526
 20
241.350152
 42
-0.045741
  0
VERTEX
  8
0
 10
510.303927
 20
238.555608
 42
-0.022469
  0
VERTEX
  8
0
 10
517.973582
 20
233.910001
 42
0.008493
  0
VERTEX
  8
0
 10
521.676840
 20
231.522964
 42
0.009587
  0
VERTEX
  8
0
 10
525.313921
 20
229.360580
 42
0.008925
  0
VERTEX
  8
0
 10
528.467976
 20
227.640087
 42
0.050599
  0
VERTEX
  8
0
 10
530.242696
 20
226.930396
 42
0.088158
  0
VERTEX
  8
0
 10
534.295898
 20
226.509636
 42
0.118815
  0
VERTEX
  8
0
 10
537.796497
 20
227.626898
 42
0.132732
  0
VERTEX
  8
0
 10
540.144351
 20
230.090186
 42
0.125017
  0
VERTEX
  8
0
 10
541.000000
 20
233.458821
 42
0.116983
  0
VERTEX
  8
0
 10
540.372728
 20
236.103174
 42
0.067171
  0
VERTEX
  8
0
 10
538.513178
 20
238.821541
 42
0.042131
  0
VERTEX
  8
0
 10
535.122607
 20
241.995990
 42
0.012909
  0
VERTEX
  8
0
 10
529.500000
 20
246.203799
 42
0.032305
  0
VERTEX
  8
0
 10
518.280824
 20
253.114082
 42
0.049096
  0
VERTEX
  8
0
 10
507.695446
 20
257.457241
 42
0.054628
  0
VERTEX
  8
0
 10
497.371925
 20
259.358118
 42
0.055694
  0
SEQEND
  0
POLYLINE
  8
0
 66
1
 70
1
  0
VERTEX
  8
0
 10
252.398284
 20
153.110679
 42
0.017415
  0
VERTEX
  8
0
 10
249.719892
 20
152.241910
 42
0.011567
  0
VERTEX
  8
0
 10
246.710137
 20
151.068940
 42
0.011650
  0
VERTEX
  8
0
 10
243.837606
 20
149.792868
 42
0.022190
  0
VERTEX
  8
0
 10
241.602747
 20
148.613082
 42
0.096943
  0
VERTEX
  8
0
 10
237.708251
 20
145.174032
 42
0.039946
  0
VERTEX
  8
0
 10
233.868046
 20
139.238980
 42
0.013455
  0
VERTEX
  8
0
 10
228.065561
 20
127.745808
 42
0.000939
  0
VERTEX
  8
0
 10
212.699668
 20
95.000000
 42
-0.000087
  0
VERTEX
  8
0
 10
207.808686
 20
84.530628
 42
-0.000046
  0
VERTEX
  8
0
 10
201.726039
 20
71.519434
 42
-0.000045
  0
VERTEX
  8
0
 10
195.492500
 20
58.191803
 42
-0.000070
  0
VERTEX
  8
0
 10
190.096547
 20
46.661904
 42
0.001308
  0
VERTEX
  8
0
 10
185.459398
 20
36.689143
 42
0.002086
  0
VERTEX
  8
0
 10
181.553361
 20
28.137351
 42
0.000412
  0
VERTEX
  8
0
 10
178.151789
 20
20.590459
 42
0.106053
  0
VERTEX
  8
0
 10
178.000000
 20
19.882879
 42
0.392093
  0
VERTEX
  8
0
 10
178.363649
 20
19.490443
 42
0.006331
  0
VERTEX
  8
0
 10
181.635523
 20
19.282562
 42
0.012033
  0
VERTEX
  8
0
 10
185.779308
 20
19.171793
 42
0.006022
  0
VERTEX
  8
0
 10
191.021178
 20
19.220975
 42
0.000000
  0
VERTEX
  8
0
 10
204.042355
 20
19.500000
 42
0.000000
  0
VERTEX
  8
0
 10
229.504457
 20
74.000000
 42
-0.001595
  0
VERTEX
  8
0
 10
248.408266
 20
114.128089
 42
-0.025051
  0
VERTEX
  8
0
 10
255.580240
 20
127.460563
 42
-0.090920
  0
VERTEX
  8
0
 10
260.662859
 20
133.197877
 42
-0.202144
  0
VERTEX
  8
0
 10
266.190138
 20
134.701323
 42
-0.157246
  0
VERTEX
  8
0
 10
271.284487
 20
132.270124
 42
-0.083365
  0
VERTEX
  8
0
 10
275.546043
 20
126.632126
 42
-0.014800
  0
VERTEX
  8
0
 10
281.923332
 20
113.473828
 42
-0.000344
  0
VERTEX
  8
0
 10
310.122355
 20
50.500000
 42
0.000000
  0
VERTEX
  8
0
 10
323.978245
 20
19.500000
 42
0.000000
  0
VERTEX
  8
0
 10
336.989122
 20
19.220975
 42
0.003733
  0
VERTEX
  8
0
 10
343.955860
 20
19.123594
 42
0.023484
  0
VERTEX
  8
0
 10
347.507195
 20
19.267317
 42
0.048681
  0
VERTEX
  8
0
 10
349.450951
 20
19.630455
 42
0.333838
  0
VERTEX
  8
0
 10
350.000000
 20
20.361138
 42
0.104895
  0
VERTEX
  8
0
 10
349.634403
 20
22.084648
 42
0.000417
  0
VERTEX
  8
0
 10
341.527413
 20
40.292984
 42
0.001223
  0
VERTEX
  8
0
 10
329.328904
 20
67.450838
 42
0.000187
  0
VERTEX
  8
0
 10
304.878906
 20
121.476373
 42
0.003984
  0
VERTEX
  8
0
 10
300.904174
 20
130.067567
 42
0.005536
  0
VERTEX
  8
0
 10
297.198084
 20
137.693652
 42
0.003511
  0
VERTEX
  8
0
 10
293.974737
 20
144.032044
 42
0.068399
  0
VERTEX
  8
0
 10
292.711648
 20
145.823691
 42
0.106358
  0
VERTEX
  8
0
 10
285.569021
 20
150.796964
 42
0.054423
  0
VERTEX
  8
0
 10
275.047839
 20
153.908755
 42
0.051741
  0
VERTEX
  8
0
 10
263.302332
 20
154.796495
 42
0.062801
  0
SEQEND
  0
POLYLINE
  8
0
 66
1
 70
1
  0
VERTEX
  8
0
 10
727.488963
 20
153.135502
 42
0.014811
  0
VERTEX
  8
0
 10
724.859914
 20
152.297338
 42
0.010130
  0
VERTEX
  8
0
 10
721.925035
 20
151.197661
 42
0.010219
  0
VERTEX
  8
0
 10
719.137351
 20
150.021683
 42
0.020283
  0
VERTEX
  8
0
 10
716.988963
 20
148.956744
 42
0.104628
  0
VERTEX
  8
0
 10
713.047146
 20
145.573743
 42
0.037988
  0
VERTEX
  8
0
 10
709.006112
 20
139.366656
 42
0.014662
  0
VERTEX
  8
0
 10
703.025604
 20
127.646672
 42
0.001337
  0
VERTEX
  8
0
 10
689.074204
 20
98.000000
 42
-0.000010
  0
VERTEX
  8
0
 10
683.473825
 20
86.016728
 42
-0.000006
  0
VERTEX
  8
0
 10
676.848419
 20
71.841309
 42
-0.000006
  0
VERTEX
  8
0
 10
670.274193
 20
57.776239
 42
-0.000010
  0
VERTEX
  8
0
 10
664.845025
 20
46.161904
 42
0.001333
  0
VERTEX
  8
0
 10
660.304320
 20
36.380862
 42
0.002123
  0
VERTEX
  8
0
 10
656.479476
 20
27.990476
 42
0.000427
  0
VERTEX
  8
0
 10
653.151348
 20
20.589905
 42
0.105832
  0
VERTEX
  8
0
 10
653.000000
 20
19.882879
 42
0.392101
  0
VERTEX
  8
0
 10
653.363670
 20
19.490431
 42
0.006327
  0
VERTEX
  8
0
 10
656.636581
 20
19.282557
 42
0.012029
  0
VERTEX
  8
0
 10
660.781615
 20
19.171790
 42
0.006020
  0
VERTEX
  8
0
 10
666.025160
 20
19.220975
 42
0.000000
  0
VERTEX
  8
0
 10
679.050319
 20
19.500000
 42
0.000000
  0
VERTEX
  8
0
 10
691.395763
 20
46.000000
 42
-0.000354
  0
VERTEX
  8
0
 10
715.873737
 20
98.446043
 42
-0.004836
  0
VERTEX
  8
0
 10
724.973145
 20
117.425755
 42
-0.011019
  0
VERTEX
  8
0
 10
730.239359
 20
127.571829
 42
-0.080951
  0
VERTEX
  8
0
 10
733.588725
 20
131.866577
 42
-0.020179
  0
VERTEX
  8
0
 10
735.770381
 20
133.728709
 42
-0.079878
  0
VERTEX
  8
0
 10
737.307353
 20
134.581934
 42
-0.090361
  0
VERTEX
  8
0
 10
738.935346
 20
134.856576
 42
-0.030066
  0
VERTEX
  8
0
 10
741.356919
 20
134.678953
 42
-0.076755
  0
VERTEX
  8
0
 10
744.519634
 20
133.747059
 42
-0.082285
  0
VERTEX
  8
0
 10
747.169971
 20
131.918455
 42
-0.064755
  0
VERTEX
  8
0
 10
749.541660
 20
128.945170
 42
-0.028707
  0
VERTEX
  8
0
 10
751.893214
 20
124.500000
 42
-0.001807
  0
VERTEX
  8
0
 10
755.029467
 20
117.580919
 42
-0.000092
  0
VERTEX
  8
0
 10
765.128817
 20
95.073104
 42
-0.000159
  0
VERTEX
  8
0
 10
776.286269
 20
70.173647
 42
-0.000174
  0
VERTEX
  8
0
 10
787.099124
 20
46.000000
 42
0.000000
  0
VERTEX
  8
0
 10
798.941473
 20
19.500000
 42
0.000000
  0
VERTEX
  8
0
 10
811.970737
 20
19.220975
 42
0.003819
  0
VERTEX
  8
0
 10
818.863463
 20
19.126031
 42
0.022788
  0
VERTEX
  8
0
 10
822.455434
 20
19.267743
 42
0.044604
  0
VERTEX
  8
0
 10
824.454787
 20
19.619489
 42
0.339037
  0
VERTEX
  8
0
 10
825.000000
 20
20.331127
 42
0.089182
  0
VERTEX
  8
0
 10
824.836682
 20
21.239495
 42
0.005015
  0
VERTEX
  8
0
 10
823.808505
 20
23.923627
 42
0.007579
  0
VERTEX
  8
0
 10
822.497629
 20
27.103597
 42
0.005473
  0
VERTEX
  8
0
 10
820.943847
 20
30.610153
 42
-0.000150
  0
VERTEX
  8
0
 10
819.291882
 20
34.233630
 42
-0.000161
  0
VERTEX
  8
0
 10
817.682352
 20
37.769857
 42
-0.000152
  0
VERTEX
  8
0
 10
816.302660
 20
40.806164
 42
-0.000772
  0
VERTEX
  8
0
 10
815.536758
 20
42.500000
 42
0.000224
  0
VERTEX
  8
0
 10
788.155611
 20
103.232183
 42
0.002367
  0
VERTEX
  8
0
 10
776.854458
 20
127.955712
 42
0.002929
  0
VERTEX
  8
0
 10
770.112632
 20
142.300923
 42
0.076515
  0
VERTEX
  8
0
 10
767.717581
 20
145.817375
 42
0.106283
  0
VERTEX
  8
0
 10
760.585288
 20
150.784933
 42
0.054215
  0
VERTEX
  8
0
 10
750.069023
 20
153.903317
 42
0.051620
  0
VERTEX
  8
0
 10
738.342783
 20
154.805632
 42
0.063247
  0
SEQEND
  0
POLYLINE
  8
0
 66
1
 70
1
  0
VERTEX
  8
0
 10
16.000000
 20
85.500000
 42
0.000000
  0
VERTEX
  8
0
 10
16.000000
 20
19.000000
 42
0.000000
  0
VERTEX
  8
0
 10
27.500000
 20
19.000000
 42
0.000000
  0
VERTEX
  8
0
 10
39.000000
 20
19.000000
 42
0.000000
  0
VERTEX
  8
0
 10
39.000000
 20
46.345012
 42
-0.001321
  0
VERTEX
  8
0
 10
39.044845
 20
63.320422
 42
-0.015363
  0
VERTEX
  8
0
 10
39.283876
 20
69.956053
 42
-0.040360
  0
VERTEX
  8
0
 10
39.814173
 20
73.527461
 42
-0.152964
  0
VERTEX
  8
0
 10
40.945085
 20
75.450303
 42
-0.126445
  0
VERTEX
  8
0
 10
42.776306
 20
76.413005
 42
-0.042844
  0
VERTEX
  8
0
 10
45.777505
 20
76.856826
 42
-0.018510
  0
VERTEX
  8
0
 10
51.026725
 20
76.983704
 42
-0.002188
  0
VERTEX
  8
0
 10
62.695085
 20
76.782681
 42
-0.021590
  0
VERTEX
  8
0
 10
82.733161
 20
75.482879
 42
-0.123186
  0
VERTEX
  8
0
 10
92.665172
 20
71.822626
 42
-0.095354
  0
VERTEX
  8
0
 10
100.895446
 20
63.543498
 42
-0.010308
  0
VERTEX
  8
0
 10
115.555668
 20
40.756405
 42
0.000000
  0
VERTEX
  8
0
 10
128.619539
 20
19.500000
 42
0.000000
  0
VERTEX
  8
0
 10
141.809769
 20
19.220975
 42
0.006001
  0
VERTEX
  8
0
 10
147.079889
 20
19.172754
 42
0.011657
  0
VERTEX
  8
0
 10
151.287364
 20
19.282866
 42
0.005850
  0
VERTEX
  8
0
 10
154.641319
 20
19.488309
 42
0.393026
  0
VERTEX
  8
0
 10
155.000000
 20
19.874130
 42
0.128804
  0
VERTEX
  8
0
 10
154.827221
 20
20.533711
 42
0.001527
  0
VERTEX
  8
0
 10
152.606745
 20
24.453118
 42
0.004486
  0
VERTEX
  8
0
 10
149.975391
 20
28.970246
 42
0.002901
  0
VERTEX
  8
0
 10
146.852748
 20
34.153155
 42
0.002505
  0
VERTEX
  8
0
 10
130.937518
 20
59.934204
 42
0.025173
  0
VERTEX
  8
0
 10
123.711480
 20
70.308295
 42
0.059814
  0
VERTEX
  8
0
 10
117.991272
 20
76.111157
 42
0.057894
  0
VERTEX
  8
0
 10
111.000000
 20
80.469307
 42
-0.002543
  0
VERTEX
  8
0
 10
104.642860
 20
83.515525
 42
-0.026388
  0
VERTEX
  8
0
 10
102.104340
 20
84.917869
 42
-0.074245
  0
VERTEX
  8
0
 10
100.901949
 20
85.942374
 42
-0.181167
  0
VERTEX
  8
0
 10
100.500000
 20
87.015299
 42
-0.211322
  0
VERTEX
  8
0
 10
100.829153
 20
87.759317
 42
-0.020129
  0
VERTEX
  8
0
 10
102.388606
 20
89.066211
 42
-0.022947
  0
VERTEX
  8
0
 10
104.466355
 20
90.522650
 42
-0.016054
  0
VERTEX
  8
0
 10
106.929296
 20
91.976954
 42
0.045479
  0
VERTEX
  8
0
 10
113.963717
 20
96.709094
 42
0.049718
  0
VERTEX
  8
0
 10
119.798975
 20
102.509766
 42
0.030553
  0
VERTEX
  8
0
 10
126.271020
 20
111.425077
 42
0.006670
  0
VERTEX
  8
0
 10
136.250000
 20
127.574044
 42
0.001400
  0
VERTEX
  8
0
 10
141.521217
 20
136.420628
 42
0.002249
  0
VERTEX
  8
0
 10
145.960937
 20
143.996920
 42
0.000396
  0
VERTEX
  8
0
 10
149.846076
 20
150.707950
 42
0.131750
  0
VERTEX
  8
0
 10
150.000000
 20
151.281960
 42
0.398514
  0
VERTEX
  8
0
 10
149.708942
 20
151.589144
 42
0.003652
  0
VERTEX
  8
0
 10
146.279176
 20
151.749063
 42
0.009592
  0
VERTEX
  8
0
 10
142.190288
 20
151.831286
 42
0.005754
  0
VERTEX
  8
0
 10
137.333364
 20
151.779877
 42
0.000000
  0
VERTEX
  8
0
 10
124.666727
 20
151.500000
 42
0.000000
  0
VERTEX
  8
0
 10
111.274942
 20
129.500000
 42
-0.010337
  0
VERTEX
  8
0
 10
97.195723
 20
107.412084
 42
-0.091175
  0
VERTEX
  8
0
 10
89.171694
 20
99.137071
 42
-0.124783
  0
VERTEX
  8
0
 10
79.693089
 20
95.453422
 42
-0.025760
  0
VERTEX
  8
0
 10
61.683432
 20
94.174899
 42
-0.002386
  0
VERTEX
  8
0
 10
50.701341
 20
94.014654
 42
-0.019123
  0
VERTEX
  8
0
 10
45.645120
 20
94.158406
 42
-0.043257
  0
VERTEX
  8
0
 10
42.728030
 20
94.608610
 42
-0.124634
  0
VERTEX
  8
0
 10
40.933432
 20
95.560243
 42
-0.153752
  0
VERTEX
  8
0
 10
39.810170
 20
97.476828
 42
-0.039683
  0
VERTEX
  8
0
 10
39.283673
 20
101.065313
 42
-0.015261
  0
VERTEX
  8
0
 10
39.045010
 20
107.722369
 42
-0.001329
  0
VERTEX
  8
0
 10
39.000000
 20
124.654988
 42
0.000000
  0
VERTEX
  8
0
 10
39.000000
 20
152.000000
 42
0.000000
  0
VERTEX
  8
0
 10
27.500000
 20
152.000000
 42
0.000000
  0
VERTEX
  8
0
 10
16.000000
 20
152.000000
 42
0.000000
  0
SEQEND
  0
POLYLINE
  8
0
 66
1
 70
1
  0
VERTEX
  8
0
 10
380.423642
 20
150.661609
 42
0.079281
  0
VERTEX
  8
0
 10
380.235027
 20
149.768700
 42
0.006579
  0
VERTEX
  8
0
 10
380.147568
 20
147.392336
 42
0.008656
  0
VERTEX
  8
0
 10
380.129541
 20
144.539392
 42
0.006569
  0
VERTEX
  8
0
 10
380.205027
 20
141.411609
 42
0.000000
  0
VERTEX
  8
0
 10
380.500000
 20
133.500000
 42
0.000000
  0
VERTEX
  8
0
 10
426.000000
 20
133.000000
 42
-0.001643
  0
VERTEX
  8
0
 10
459.913396
 20
132.515861
 42
-0.030057
  0
VERTEX
  8
0
 10
470.668288
 20
131.678993
 42
-0.096629
  0
VERTEX
  8
0
 10
476.791959
 20
129.578662
 42
-0.078564
  0
VERTEX
  8
0
 10
482.196195
 20
125.209546
 42
-0.103651
  0
VERTEX
  8
0
 10
486.721360
 20
117.442689
 42
-0.123777
  0
VERTEX
  8
0
 10
487.351798
 20
109.016442
 42
-0.117366
  0
VERTEX
  8
0
 10
483.894860
 20
100.959020
 42
-0.086955
  0
VERTEX
  8
0
 10
476.833396
 20
94.269280
 42
0.000000
  0
VERTEX
  8
0
 10
472.651405
 20
91.500000
 42
0.000000
  0
VERTEX
  8
0
 10
433.575702
 20
90.892041
 42
0.002911
  0
VERTEX
  8
0
 10
403.302569
 20
90.244707
 42
0.037839
  0
VERTEX
  8
0
 10
392.101882
 20
89.088706
 42
0.118136
  0
VERTEX
  8
0
 10
386.262455
 20
86.525203
 42
0.132306
  0
VERTEX
  8
0
 10
382.510609
 20
81.679634
 42
0.072398
  0
VERTEX
  8
0
 10
381.717598
 20
78.589870
 42
0.015299
  0
VERTEX
  8
0
 10
381.293347
 20
73.025277
 42
0.009480
  0
VERTEX
  8
0
 10
381.059573
 20
64.218567
 42
0.001895
  0
VERTEX
  8
0
 10
381.000000
 20
48.500383
 42
0.000000
  0
VERTEX
  8
0
 10
381.000000
 20
18.936529
 42
0.000000
  0
VERTEX
  8
0
 10
392.750000
 20
19.218265
 42
0.000000
  0
VERTEX
  8
0
 10
404.500000
 20
19.500000
 42
0.000000
  0
VERTEX
  8
0
 10
405.000000
 20
44.000000
 42
-0.003099
  0
VERTEX
  8
0
 10
405.288622
 20
54.846421
 42
-0.007611
  0
VERTEX
  8
0
 10
405.671453
 20
62.812068
 42
-0.005852
  0
VERTEX
  8
0
 10
406.116942
 20
68.744856
 42
-0.111894
  0
VERTEX
  8
0
 10
406.678223
 20
70.500000
 42
-0.211521
  0
VERTEX
  8
0
 10
408.381461
 20
71.719880
 42
-0.033369
  0
VERTEX
  8
0
 10
412.559420
 20
72.299756
 42
-0.012791
  0
VERTEX
  8
0
 10
420.584977
 20
72.666120
 42
-0.000935
  0
VERTEX
  8
0
 10
442.678223
 20
73.067521
 42
0.001203
  0
VERTEX
  8
0
 10
464.449957
 20
73.474772
 42
0.012272
  0
VERTEX
  8
0
 10
473.470938
 20
73.886902
 42
0.029856
  0
VERTEX
  8
0
 10
479.042771
 20
74.614734
 42
0.038942
  0
VERTEX
  8
0
 10
484.000000
 20
75.972984
 42
0.059108
  0
VERTEX
  8
0
 10
496.306275
 20
82.121615
 42
0.091631
  0
VERTEX
  8
0
 10
504.855309
 20
90.315438
 42
0.093835
  0
VERTEX
  8
0
 10
509.782297
 20
100.870224
 42
0.064730
  0
VERTEX
  8
0
 10
511.369970
 20
114.000000
 42
0.074449
  0
VERTEX
  8
0
 10
509.228784
 20
127.476447
 42
0.108322
  0
VERTEX
  8
0
 10
503.249332
 20
137.871672
 42
0.100548
  0
VERTEX
  8
0
 10
493.083274
 20
145.324114
 42
0.057218
  0
VERTEX
  8
0
 10
478.547258
 20
150.106446
 42
0.026804
  0
VERTEX
  8
0
 10
471.819170
 20
151.122878
 42
0.015276
  0
VERTEX
  8
0
 10
463.610099
 20
151.663778
 42
0.007590
  0
VERTEX
  8
0
 10
450.818620
 20
151.920501
 42
0.001148
  0
VERTEX
  8
0
 10
425.218615
 20
151.986863
 42
0.001076
  0
VERTEX
  8
0
 10
401.727169
 20
151.943258
 42
0.006392
  0
VERTEX
  8
0
 10
389.451210
 20
151.737093
 42
0.004514
  0
VERTEX
  8
0
 10
381.485597
 20
151.429427
 42
0.297530
  0
SEQEND
  0
POLYLINE
  8
0
 66
1
 70
1
  0
VERTEX
  8
0
 10
532.426689
 20
150.669551
 42
0.079153
  0
VERTEX
  8
0
 10
532.236948
 20
149.772439
 42
0.006629
  0
VERTEX
  8
0
 10
532.148463
 20
147.394669
 42
0.008695
  0
VERTEX
  8
0
 10
532.129766
 20
144.539963
 42
0.006607
  0
VERTEX
  8
0
 10
532.205027
 20
141.411609
 42
0.000000
  0
VERTEX
  8
0
 10
532.500000
 20
133.500000
 42
0.000000
  0
VERTEX
  8
0
 10
554.443405
 20
133.229959
 42
-0.002290
  0
VERTEX
  8
0
 10
566.589065
 20
133.024848
 42
-0.014644
  0
VERTEX
  8
0
 10
572.737244
 20
132.712544
 42
-0.026708
  0
VERTEX
  8
0
 10
576.387171
 20
132.222579
 42
-0.138047
  0
VERTEX
  8
0
 10
578.193405
 20
131.324971
 42
-0.190071
  0
VERTEX
  8
0
 10
579.313830
 20
129.061093
 42
-0.013059
  0
VERTEX
  8
0
 10
579.734463
 20
121.790950
 42
-0.007318
  0
VERTEX
  8
0
 10
579.958705
 20
108.634052
 42
-0.000602
  0
VERTEX
  8
0
 10
580.000000
 20
74.313277
 42
0.000000
  0
VERTEX
  8
0
 10
580.000000
 20
18.936529
 42
0.000000
  0
VERTEX
  8
0
 10
591.750000
 20
19.218265
 42
0.000000
  0
VERTEX
  8
0
 10
603.500000
 20
19.500000
 42
0.000000
  0
VERTEX
  8
0
 10
603.758540
 20
74.907827
 42
-0.001157
  0
VERTEX
  8
0
 10
603.935902
 20
100.315175
 42
-0.003655
  0
VERTEX
  8
0
 10
604.218626
 20
117.339130
 42
-0.001314
  0
VERTEX
  8
0
 10
604.559177
 20
130.165225
 42
-0.167426
  0
VERTEX
  8
0
 10
605.115631
 20
131.639327
 42
-0.193183
  0
VERTEX
  8
0
 10
606.401901
 20
132.336032
 42
-0.011946
  0
VERTEX
  8
0
 10
610.812018
 20
132.737812
 42
-0.011173
  0
VERTEX
  8
0
 10
617.545400
 20
133.038442
 42
-0.002604
  0
VERTEX
  8
0
 10
628.857091
 20
133.231500
 42
0.000000
  0
VERTEX
  8
0
 10
651.500000
 20
133.500000
 42
0.000000
  0
VERTEX
  8
0
 10
651.500000
 20
142.500000
 42
0.000000
  0
VERTEX
  8
0
 10
651.500000
 20
151.500000
 42
0.000000
  0
VERTEX
  8
0
 10
592.221663
 20
151.757942
 42
0.000769
  0
VERTEX
  8
0
 10
560.347654
 20
151.847645
 42
0.004869
  0
VERTEX
  8
0
 10
544.131525
 20
151.710430
 42
0.002797
  0
VERTEX
  8
0
 10
533.538890
 20
151.458347
 42
0.302502
  0
SEQEND
  0
POLYLINE
  8
0
 66
1
 70
1
  0
VERTEX
  8
0
 10
855.423642
 20
150.661609
 42
0.079281
  0
VERTEX
  8
0
 10
855.235027
 20
149.768700
 42
0.006579
  0
VERTEX
  8
0
 10
855.147568
 20
147.392336
 42
0.008656
  0
VERTEX
  8
0
 10
855.129541
 20
144.539392
 42
0.006569
  0
VERTEX
  8
0
 10
855.205027
 20
141.411609
 42
0.000000
  0
VERTEX
  8
0
 10
855.500000
 20
133.500000
 42
0.000000
  0
VERTEX
  8
0
 10
903.500000
 20
133.000000
 42
-0.000686
  0
VERTEX
  8
0
 10
934.380938
 20
132.635952
 42
-0.009452
  0
VERTEX
  8
0
 10
945.567038
 20
132.277152
 42
-0.026350
  0
VERTEX
  8
0
 10
951.651539
 20
131.644180
 42
-0.084543
  0
VERTEX
  8
0
 10
955.500000
 20
130.347318
 42
-0.082041
  0
VERTEX
  8
0
 10
962.217456
 20
125.161473
 42
-0.101799
  0
VERTEX
  8
0
 10
966.314437
 20
118.430180
 42
-0.106643
  0
VERTEX
  8
0
 10
967.311975
 20
110.880704
 42
-0.097970
  0
VERTEX
  8
0
 10
965.171879
 20
103.336912
 42
-0.053663
  0
VERTEX
  8
0
 10
962.805942
 20
99.717578
 42
-0.044333
  0
VERTEX
  8
0
 10
959.580194
 20
96.422718
 42
-0.044865
  0
VERTEX
  8
0
 10
955.873690
 20
93.789354
 42
-0.059308
  0
VERTEX
  8
0
 10
952.077716
 20
92.141430
 42
-0.060816
  0
VERTEX
  8
0
 10
948.999874
 20
91.614320
 42
-0.004533
  0
VERTEX
  8
0
 10
940.477355
 20
91.281201
 42
-0.005212
  0
VERTEX
  8
0
 10
928.974248
 20
91.055969
 42
-0.002146
  0
VERTEX
  8
0
 10
913.383980
 20
90.980191
 42
0.003307
  0
VERTEX
  8
0
 10
889.895912
 20
90.811510
 42
0.014449
  0
VERTEX
  8
0
 10
876.015391
 20
90.218575
 42
0.023008
  0
VERTEX
  8
0
 10
867.062607
 20
89.160889
 42
0.092755
  0
VERTEX
  8
0
 10
861.912385
 20
87.289173
 42
0.133242
  0
VERTEX
  8
0
 10
858.652867
 20
83.943188
 42
0.089318
  0
VERTEX
  8
0
 10
856.916203
 20
78.860116
 42
0.034106
  0
VERTEX
  8
0
 10
856.156141
 20
69.709792
 42
0.003672
  0
VERTEX
  8
0
 10
856.000000
 20
48.448028
 42
0.000000
  0
VERTEX
  8
0
 10
856.000000
 20
18.936529
 42
0.000000
  0
VERTEX
  8
0
 10
867.606890
 20
19.218265
 42
0.000000
  0
VERTEX
  8
0
 10
879.213780
 20
19.500000
 42
0.000000
  0
VERTEX
  8
0
 10
879.058671
 20
42.725642
 42
-0.003397
  0
VERTEX
  8
0
 10
879.059815
 20
52.598432
 42
-0.007074
  0
VERTEX
  8
0
 10
879.221849
 20
60.291981
 42
-0.004737
  0
VERTEX
  8
0
 10
879.488977
 20
66.266716
 42
-0.109748
  0
VERTEX
  8
0
 10
879.945232
 20
67.897666
 42
-0.089552
  0
VERTEX
  8
0
 10
882.321352
 20
70.896699
 42
-0.133765
  0
VERTEX
  8
0
 10
885.306974
 20
72.361789
 42
-0.044679
  0
VERTEX
  8
0
 10
890.703503
 20
72.908383
 42
-0.002911
  0
VERTEX
  8
0
 10
906.441213
 20
73.000000
 42
0.000000
  0
VERTEX
  8
0
 10
928.739568
 20
73.000000
 42
0.000000
  0
VERTEX
  8
0
 10
937.119784
 20
61.191188
 42
-0.001068
  0
VERTEX
  8
0
 10
941.076442
 20
55.590444
 42
-0.000515
  0
VERTEX
  8
0
 10
946.122687
 20
48.399179
 42
-0.000510
  0
VERTEX
  8
0
 10
951.368321
 20
40.891077
 42
-0.000732
  0
VERTEX
  8
0
 10
956.000000
 20
34.226511
 42
0.000000
  0
VERTEX
  8
0
 10
966.500000
 20
19.070644
 42
0.000000
  0
VERTEX
  8
0
 10
979.190983
 20
19.035322
 42
0.005538
  0
VERTEX
  8
0
 10
984.085840
 20
19.075910
 42
0.008776
  0
VERTEX
  8
0
 10
988.276456
 20
19.230688
 42
0.003462
  0
VERTEX
  8
0
 10
991.824666
 20
19.448795
 42
0.254048
  0
VERTEX
  8
0
 10
992.298872
 20
19.750000
 42
0.277878
  0
VERTEX
  8
0
 10
992.278649
 20
20.331922
 42
0.000655
  0
VERTEX
  8
0
 10
987.447347
 20
27.736271
 42
0.003822
  0
VERTEX
  8
0
 10
981.884128
 20
36.097771
 42
0.002335
  0
VERTEX
  8
0
 10
975.197601
 20
45.884116
 42
-0.002335
  0
VERTEX
  8
0
 10
966.414014
 20
58.739662
 42
-0.010952
  0
VERTEX
  8
0
 10
961.560947
 20
66.264236
 42
-0.010576
  0
VERTEX
  8
0
 10
958.612522
 20
71.299027
 42
-0.274436
  0
VERTEX
  8
0
 10
958.653490
 20
72.812444
 42
-0.111736
  0
VERTEX
  8
0
 10
959.407956
 20
73.567062
 42
-0.014789
  0
VERTEX
  8
0
 10
961.365716
 20
74.723033
 42
-0.016542
  0
VERTEX
  8
0
 10
963.808741
 20
75.966206
 42
-0.013191
  0
VERTEX
  8
0
 10
966.518764
 20
77.148108
 42
0.059987
  0
VERTEX
  8
0
 10
978.082049
 20
83.535956
 42
0.096797
  0
VERTEX
  8
0
 10
985.750989
 20
91.714204
 42
0.094939
  0
VERTEX
  8
0
 10
989.868263
 20
102.299084
 42
0.055882
  0
VERTEX
  8
0
 10
990.821122
 20
115.887058
 42
0.009796
  0
VERTEX
  8
0
 10
990.476643
 20
121.506241
 42
0.037974
  0
VERTEX
  8
0
 10
989.932337
 20
124.950629
 42
0.045806
  0
VERTEX
  8
0
 10
988.926555
 20
127.943623
 42
0.019062
  0
VERTEX
  8
0
 10
987.056018
 20
131.778100
 42
0.061136
  0
VERTEX
  8
0
 10
982.395470
 20
138.388496
 42
0.065802
  0
VERTEX
  8
0
 10
976.377323
 20
143.490169
 42
0.057978
  0
VERTEX
  8
0
 10
968.585016
 20
147.311389
 42
0.034156
  0
VERTEX
  8
0
 10
958.582292
 20
150.099268
 42
0.027364
  0
VERTEX
  8
0
 10
951.735353
 20
151.125778
 42
0.015082
  0
VERTEX
  8
0
 10
943.284514
 20
151.666848
 42
0.007321
  0
VERTEX
  8
0
 10
929.958679
 20
151.921858
 42
0.001053
  0
VERTEX
  8
0
 10
902.718615
 20
151.986863
 42
0.001013
  0
VERTEX
  8
0
 10
877.867437
 20
151.943471
 42
0.006060
  0
VERTEX
  8
0
 10
864.918403
 20
151.737651
 42
0.004093
  0
VERTEX
  8
0
 10
856.493556
 20
151.432540
 42
0.298414
  0
SEQEND
  0
ENDSEC
  0
EOF
