<?xml version="1.0" standalone="no"?>
<!DOCTYPE svg PUBLIC "-//W3C//DTD SVG 20010904//EN"
 "http://www.w3.org/TR/2001/REC-SVG-20010904/DTD/svg10.dtd">
<svg version="1.0" xmlns="http://www.w3.org/2000/svg"
 width="1571.000000pt" height="1600.000000pt" viewBox="0 0 1571.000000 1600.000000"
 preserveAspectRatio="xMidYMid meet">

<g transform="translate(0.000000,1600.000000) scale(0.100000,-0.100000)"
fill="#000000" stroke="none">
<path d="M6298 14575 c-116 -32 -203 -99 -249 -192 -19 -40 -24 -64 -24 -138
0 -123 27 -179 144 -296 128 -127 523 -417 801 -587 210 -128 510 -259 717
-311 275 -70 571 -92 838 -61 316 36 611 113 844 222 57 26 105 48 107 48 13
0 226 135 304 193 125 93 290 255 340 333 82 131 101 266 52 376 -31 70 -104
143 -181 181 -61 29 -73 32 -166 31 -80 0 -112 -5 -158 -23 -64 -25 -182 -102
-320 -210 -264 -205 -556 -316 -926 -351 -444 -43 -822 91 -1364 483 -283 206
-402 274 -521 302 -74 18 -175 18 -238 0z"/>
<path d="M11265 13551 c-121 -42 -209 -108 -320 -242 -132 -157 -219 -285
-377 -554 -414 -701 -655 -982 -997 -1158 -268 -138 -572 -204 -895 -194 -184
5 -248 16 -404 66 -170 55 -449 202 -635 335 -32 22 -105 76 -163 119 -58 42
-110 77 -115 77 -5 0 -9 3 -9 8 0 4 -21 22 -47 39 -27 18 -91 64 -143 103
-104 77 -378 262 -450 304 -365 211 -656 316 -1004 362 -145 19 -451 18 -592
-1 -351 -49 -674 -147 -924 -283 -311 -168 -638 -469 -871 -802 -89 -126 -199
-290 -199 -296 0 -4 -15 -27 -34 -53 -28 -39 -169 -268 -226 -366 -164 -288
-370 -541 -585 -720 -90 -75 -206 -148 -310 -195 -38 -17 -79 -35 -90 -40 -11
-5 -56 -23 -99 -40 -218 -85 -323 -166 -388 -298 -30 -61 -33 -74 -33 -162 0
-82 4 -103 26 -150 72 -153 245 -225 464 -194 85 12 263 62 316 88 18 9 36 16
40 16 13 0 170 76 251 121 231 130 467 325 647 534 47 55 88 102 92 105 9 9
152 208 189 265 46 71 276 436 377 600 179 290 285 430 442 585 141 140 153
151 262 222 167 110 374 193 579 232 248 48 461 53 647 17 309 -59 565 -181
921 -439 131 -95 340 -251 387 -289 6 -5 53 -37 105 -73 52 -35 122 -83 155
-106 130 -92 354 -221 485 -278 47 -21 103 -46 126 -56 114 -51 334 -111 559
-152 106 -19 523 -16 650 5 203 33 226 38 337 68 62 17 124 33 138 35 14 3 34
9 45 14 70 28 129 50 136 50 17 0 225 104 320 161 273 160 551 421 754 705 11
15 34 47 52 71 53 70 195 291 375 583 103 167 165 262 314 475 72 105 143 217
157 250 72 171 50 322 -64 436 -95 96 -250 133 -374 90z"/>
<path d="M12827 11840 c-81 -10 -271 -65 -367 -107 -19 -8 -44 -19 -55 -23
-33 -13 -247 -119 -280 -138 -106 -61 -263 -176 -359 -262 -49 -44 -240 -236
-261 -262 -63 -78 -111 -137 -128 -157 -11 -14 -47 -63 -80 -110 -32 -48 -67
-95 -76 -106 -9 -11 -21 -29 -27 -40 -26 -48 -39 -70 -44 -75 -13 -13 -69
-103 -159 -257 -19 -32 -38 -60 -41 -63 -4 -3 -17 -23 -29 -45 -58 -106 -186
-298 -306 -459 -106 -144 -281 -323 -385 -396 -19 -13 -44 -32 -54 -42 -11
-10 -24 -18 -29 -18 -4 0 -27 -13 -50 -28 -40 -27 -74 -44 -184 -93 -95 -42
-258 -95 -318 -103 -22 -3 -62 -11 -90 -17 -27 -7 -142 -14 -255 -16 -161 -3
-223 -1 -290 12 -47 9 -98 19 -115 21 -16 3 -39 9 -50 14 -11 4 -40 14 -65 21
-25 7 -49 16 -55 21 -5 4 -15 8 -22 8 -12 0 -77 27 -183 78 -30 15 -89 47
-130 72 -41 26 -86 53 -99 61 -14 8 -34 22 -44 31 -11 9 -34 24 -52 32 -18 9
-38 22 -45 31 -7 8 -19 15 -26 15 -8 0 -14 4 -14 8 0 4 -12 15 -27 24 -16 9
-39 26 -53 37 -55 43 -120 91 -126 91 -2 0 -15 9 -27 21 -12 12 -49 39 -82 62
-33 22 -62 43 -65 47 -3 3 -68 48 -145 100 -77 52 -146 100 -154 107 -7 8 -30
22 -50 33 -21 10 -43 26 -50 34 -8 9 -18 16 -23 16 -5 0 -28 13 -51 28 -23 16
-49 32 -57 35 -8 4 -37 20 -65 36 -58 35 -206 108 -285 141 -30 12 -64 26 -75
31 -38 16 -180 62 -215 69 -19 5 -60 15 -90 23 -30 8 -85 20 -122 26 -38 6
-98 16 -134 22 -37 7 -166 12 -288 12 -294 0 -481 -27 -771 -114 -272 -81
-486 -189 -756 -381 -97 -69 -286 -249 -399 -378 -131 -152 -381 -516 -531
-775 -28 -49 -62 -107 -75 -127 -13 -21 -35 -55 -48 -75 -54 -87 -139 -215
-150 -226 -6 -7 -23 -30 -38 -52 -15 -22 -38 -52 -50 -67 -13 -15 -34 -42 -48
-60 -43 -56 -232 -241 -295 -288 -33 -25 -62 -48 -63 -52 -2 -5 -8 -8 -12 -8
-5 0 -30 -14 -55 -31 -56 -38 -233 -129 -250 -129 -7 0 -26 -7 -41 -15 -16 -8
-46 -18 -66 -21 -21 -4 -38 -10 -38 -15 0 -5 -13 -9 -29 -9 -17 0 -32 -4 -35
-9 -3 -4 -25 -11 -48 -15 -24 -3 -68 -11 -98 -16 -58 -11 -126 -22 -250 -39
-107 -15 -168 -29 -203 -46 -17 -8 -36 -15 -44 -15 -7 0 -13 -4 -13 -10 0 -5
-7 -10 -15 -10 -25 0 -121 -102 -151 -160 -25 -50 -28 -65 -28 -157 0 -67 4
-107 12 -115 7 -7 12 -18 12 -25 0 -28 104 -162 127 -163 6 0 13 -3 15 -7 3
-7 76 -45 123 -64 40 -16 113 -23 230 -22 140 0 285 12 285 23 0 5 21 11 48
14 104 12 138 18 157 26 11 4 31 11 45 15 14 3 59 15 100 27 41 11 87 22 103
25 15 3 27 9 27 14 0 5 11 9 24 9 14 0 28 5 31 10 3 6 13 10 21 10 22 0 181
72 226 102 14 10 33 18 42 18 9 0 16 5 16 10 0 6 7 10 15 10 8 0 15 4 15 8 0
5 16 14 35 22 19 8 35 17 35 22 0 4 7 8 15 8 8 0 15 5 15 10 0 6 7 10 15 10 8
0 15 5 15 10 0 6 6 10 14 10 8 0 16 4 18 8 2 5 23 22 48 39 25 18 59 43 75 58
17 14 48 40 69 58 54 45 214 205 256 257 19 24 52 62 72 84 21 23 38 44 38 48
0 4 6 13 13 20 7 7 28 33 47 58 19 25 39 50 43 55 5 6 31 46 60 90 28 44 56
85 62 92 27 32 33 41 45 64 7 13 30 49 50 80 20 31 48 76 61 100 13 24 28 48
32 54 20 25 77 120 77 128 0 5 9 21 21 35 11 15 49 74 85 132 70 116 74 121
124 190 19 26 42 58 50 70 8 12 21 28 27 36 7 7 13 16 13 21 0 5 8 16 18 25 9
8 28 30 42 49 34 45 195 207 249 249 24 19 48 40 55 45 17 17 97 70 141 95
156 90 222 117 405 172 184 55 543 85 682 57 132 -26 156 -31 198 -41 25 -6
49 -15 54 -19 6 -5 20 -9 33 -9 13 0 32 -4 43 -10 11 -5 29 -14 40 -20 11 -5
25 -10 32 -10 16 0 322 -154 338 -170 3 -3 17 -11 32 -19 15 -8 37 -22 47 -33
11 -10 23 -18 26 -18 9 0 117 -75 142 -99 12 -12 25 -21 28 -21 4 0 30 -19 59
-42 29 -24 66 -53 82 -65 16 -12 86 -63 155 -115 69 -51 133 -97 141 -103 8
-5 76 -52 151 -102 75 -51 140 -93 145 -93 5 0 17 -9 27 -20 10 -11 24 -20 32
-20 7 0 13 -4 13 -10 0 -5 7 -10 15 -10 8 0 15 -3 15 -7 0 -5 10 -13 23 -19
83 -42 152 -80 155 -86 2 -5 8 -8 13 -8 9 0 87 -33 121 -51 10 -5 25 -9 33 -9
8 0 15 -4 15 -10 0 -5 9 -10 20 -10 11 0 20 -4 20 -10 0 -5 11 -10 24 -10 14
0 27 -4 30 -8 3 -4 28 -14 56 -22 28 -8 53 -18 56 -22 3 -4 16 -8 30 -8 13 0
32 -4 42 -9 32 -16 88 -31 118 -31 17 0 34 -4 40 -9 10 -10 55 -17 172 -27 40
-4 75 -11 78 -15 7 -12 461 -12 468 0 3 4 38 11 78 15 73 6 166 19 203 29 11
3 47 11 80 17 33 7 69 16 80 20 21 9 60 18 113 27 18 3 35 9 38 14 3 5 16 9
29 9 13 0 27 5 30 10 3 6 17 10 30 10 13 0 27 5 30 10 3 6 17 10 31 10 13 0
24 5 24 10 0 6 9 10 19 10 11 0 23 5 26 10 3 6 15 10 26 10 10 0 19 5 19 10 0
6 9 10 20 10 11 0 20 5 20 10 0 6 6 10 14 10 14 0 96 39 106 51 3 3 20 12 38
20 17 8 32 17 32 21 0 5 5 8 11 8 12 0 103 60 107 72 2 4 8 8 13 8 8 0 80 51
99 70 3 3 25 21 50 40 25 19 47 38 48 42 2 4 7 8 12 8 15 0 242 236 300 311
30 39 62 79 70 89 8 10 22 28 30 40 8 12 37 52 63 88 74 103 75 104 108 157
63 99 74 115 82 115 4 0 7 5 7 10 0 6 23 47 50 91 28 44 50 82 50 84 0 2 14
24 30 48 17 25 30 48 30 51 0 4 9 19 19 34 10 15 49 74 86 132 37 58 85 131
106 163 83 122 124 182 129 187 3 3 23 28 45 55 75 96 320 330 359 344 6 2 13
7 16 11 31 40 284 164 425 208 39 12 114 36 168 52 184 57 290 132 347 246 21
41 25 63 25 139 -1 79 -4 98 -30 150 -59 124 -192 218 -333 236 -77 10 -121 9
-215 -1z"/>
<path d="M13765 9534 c-5 -2 -66 -8 -135 -14 -171 -13 -222 -20 -245 -30 -11
-5 -36 -11 -55 -14 -68 -10 -105 -17 -125 -25 -45 -18 -93 -31 -113 -31 -12 0
-22 -4 -22 -10 0 -5 -11 -10 -24 -10 -14 0 -27 -4 -30 -8 -3 -4 -28 -14 -56
-22 -28 -8 -53 -18 -56 -22 -3 -4 -14 -8 -25 -8 -10 0 -19 -4 -19 -10 0 -5 -5
-10 -12 -10 -12 0 -219 -99 -228 -109 -8 -10 -64 -42 -82 -48 -10 -3 -18 -9
-18 -14 0 -5 -6 -9 -13 -9 -7 0 -23 -9 -35 -20 -12 -11 -26 -20 -32 -20 -5 0
-10 -3 -10 -8 0 -4 -18 -18 -40 -32 -22 -14 -40 -28 -40 -32 0 -5 -7 -8 -15
-8 -8 0 -15 -4 -15 -10 0 -5 -4 -10 -9 -10 -17 0 -361 -332 -361 -349 0 -3
-18 -26 -40 -51 -47 -53 -45 -50 -93 -115 -20 -27 -40 -54 -45 -60 -4 -5 -31
-46 -60 -90 -28 -44 -55 -84 -60 -90 -4 -5 -22 -32 -39 -60 -18 -27 -37 -55
-43 -62 -5 -7 -10 -15 -10 -18 0 -4 -15 -30 -34 -58 -18 -29 -51 -81 -72 -117
-21 -36 -45 -71 -51 -78 -7 -7 -13 -17 -13 -22 0 -5 -6 -15 -14 -22 -8 -8 -26
-39 -41 -69 -15 -30 -30 -56 -34 -59 -3 -3 -20 -25 -36 -50 -16 -25 -33 -47
-36 -50 -3 -3 -14 -21 -24 -40 -10 -19 -39 -63 -64 -96 -25 -34 -53 -72 -61
-84 -8 -12 -22 -30 -30 -40 -8 -10 -26 -33 -40 -51 -38 -49 -242 -252 -286
-285 -21 -16 -46 -36 -54 -44 -8 -8 -27 -21 -42 -29 -16 -8 -28 -18 -28 -23 0
-4 -9 -8 -20 -8 -11 0 -20 -4 -20 -10 0 -5 -9 -10 -20 -10 -11 0 -20 -4 -20
-10 0 -5 -7 -10 -15 -10 -8 0 -15 -4 -15 -10 0 -5 -9 -10 -19 -10 -11 0 -23
-4 -26 -10 -3 -5 -15 -10 -26 -10 -10 0 -19 -4 -19 -10 0 -5 -9 -10 -20 -10
-11 0 -20 -4 -20 -10 0 -5 -11 -10 -25 -10 -14 0 -25 -4 -25 -10 0 -5 -9 -10
-20 -10 -11 0 -28 -4 -38 -9 -29 -14 -87 -31 -110 -31 -11 0 -23 -4 -26 -9 -3
-5 -23 -11 -43 -14 -21 -3 -60 -11 -88 -18 -66 -16 -534 -24 -548 -10 -6 6
-28 11 -48 11 -21 0 -41 5 -44 10 -3 6 -24 10 -45 10 -21 0 -42 5 -45 10 -3 6
-17 10 -30 10 -13 0 -27 5 -30 10 -3 6 -17 10 -31 10 -13 0 -32 4 -42 9 -74
37 -106 51 -118 51 -8 0 -14 5 -14 10 0 6 -9 10 -20 10 -11 0 -20 5 -20 10 0
6 -6 10 -13 10 -18 0 -67 24 -67 33 0 4 -7 7 -15 7 -8 0 -15 5 -15 10 0 6 -9
10 -20 10 -11 0 -20 4 -20 8 0 5 -16 14 -35 22 -19 8 -35 16 -35 19 0 4 -13
12 -28 19 -16 6 -38 21 -50 32 -12 11 -26 20 -32 20 -5 0 -10 5 -10 10 0 6 -6
10 -13 10 -7 0 -23 9 -35 20 -12 11 -26 20 -32 20 -5 0 -10 5 -10 10 0 6 -6
10 -12 10 -7 0 -25 10 -40 23 -61 52 -69 57 -76 57 -4 0 -14 9 -22 20 -8 11
-22 20 -32 20 -10 0 -18 4 -18 10 0 5 -21 24 -47 41 -27 18 -49 36 -51 41 -2
4 -8 8 -14 8 -5 0 -15 6 -23 13 -30 28 -56 47 -65 47 -6 0 -10 3 -10 8 0 4
-18 18 -40 32 -22 14 -40 28 -40 32 0 5 -7 8 -15 8 -8 0 -15 5 -15 10 0 6 -7
10 -15 10 -8 0 -15 5 -15 10 0 6 -5 10 -11 10 -6 0 -16 6 -24 13 -25 24 -50
42 -78 56 -15 8 -27 18 -27 23 0 4 -7 8 -15 8 -8 0 -15 5 -15 10 0 6 -7 10
-15 10 -8 0 -15 5 -15 10 0 6 -7 10 -15 10 -13 0 -31 12 -69 45 -6 6 -33 21
-61 35 -27 14 -52 27 -55 30 -5 5 -37 24 -70 40 -11 6 -30 15 -42 22 -13 6
-39 19 -58 28 -19 10 -55 27 -78 39 -24 11 -50 21 -58 21 -8 0 -14 5 -14 10 0
6 -11 10 -25 10 -14 0 -25 5 -25 10 0 6 -11 10 -24 10 -14 0 -28 5 -31 10 -3
6 -17 10 -30 10 -13 0 -27 5 -30 10 -3 6 -16 10 -27 10 -23 0 -81 17 -110 31
-10 5 -30 9 -46 9 -15 0 -32 4 -38 9 -5 5 -27 11 -49 15 -22 3 -67 10 -100 16
-162 29 -591 35 -700 10 -22 -5 -65 -12 -95 -15 -122 -13 -145 -17 -154 -26
-6 -5 -22 -9 -37 -9 -15 0 -31 -4 -34 -10 -3 -5 -24 -10 -46 -10 -21 0 -39 -4
-39 -10 0 -5 -13 -10 -29 -10 -17 0 -33 -4 -36 -10 -3 -5 -17 -10 -30 -10 -13
0 -27 -4 -30 -10 -3 -5 -15 -10 -26 -10 -10 0 -19 -4 -19 -10 0 -5 -11 -10
-25 -10 -24 0 -33 -3 -82 -28 -13 -7 -30 -12 -38 -12 -8 0 -15 -4 -15 -10 0
-5 -9 -10 -19 -10 -11 0 -21 -3 -23 -8 -1 -4 -43 -27 -93 -52 -49 -25 -91 -48
-93 -52 -2 -5 -10 -8 -18 -8 -13 0 -36 -16 -69 -47 -8 -7 -18 -13 -24 -13 -6
0 -11 -4 -11 -10 0 -5 -6 -10 -13 -10 -7 0 -23 -9 -35 -20 -12 -11 -26 -20
-32 -20 -5 0 -10 -4 -10 -8 0 -13 -56 -42 -66 -34 -5 4 -6 3 -2 -2 7 -8 -14
-36 -26 -36 -12 0 -316 -297 -316 -309 0 -3 -17 -25 -37 -47 -55 -61 -75 -85
-105 -129 -15 -22 -39 -53 -53 -70 -13 -16 -29 -35 -34 -41 -5 -6 -17 -26 -26
-44 -10 -19 -24 -40 -31 -48 -8 -7 -14 -17 -14 -22 0 -5 -6 -15 -13 -22 -7 -7
-27 -35 -44 -63 -18 -27 -36 -55 -41 -61 -5 -5 -15 -21 -22 -35 -7 -13 -16
-26 -19 -29 -9 -7 -87 -139 -102 -172 -7 -16 -15 -28 -19 -28 -4 0 -15 -18
-25 -40 -10 -22 -21 -40 -25 -40 -3 0 -14 -17 -24 -37 -10 -21 -28 -54 -40
-73 -13 -19 -46 -71 -74 -115 -62 -97 -68 -105 -112 -164 -37 -50 -40 -54 -70
-90 -11 -13 -20 -28 -20 -33 0 -4 -7 -8 -17 -8 -9 0 -14 -3 -10 -6 3 -3 -9
-22 -26 -42 -58 -64 -146 -152 -152 -152 -4 0 -24 -18 -45 -40 -21 -22 -43
-40 -49 -40 -6 0 -11 -4 -11 -10 0 -5 -6 -10 -13 -10 -7 0 -19 -9 -27 -20 -8
-11 -20 -20 -27 -20 -7 0 -13 -4 -13 -10 0 -5 -7 -10 -15 -10 -8 0 -15 -4 -15
-8 0 -4 -22 -19 -50 -33 -27 -13 -50 -27 -50 -31 0 -5 -9 -8 -19 -8 -11 0 -23
-4 -26 -10 -3 -5 -15 -10 -26 -10 -10 0 -19 -4 -19 -10 0 -5 -9 -10 -20 -10
-11 0 -20 -4 -20 -10 0 -5 -9 -10 -19 -10 -11 0 -23 -4 -26 -10 -3 -5 -16 -10
-29 -10 -12 0 -26 -4 -32 -8 -5 -5 -29 -14 -54 -21 -25 -7 -54 -17 -65 -21
-11 -4 -40 -14 -65 -21 -25 -7 -49 -16 -54 -21 -6 -4 -20 -8 -33 -8 -13 0 -23
-4 -23 -8 0 -4 -20 -14 -45 -21 -25 -7 -45 -17 -45 -22 0 -5 -7 -9 -15 -9 -8
0 -15 -4 -15 -10 0 -5 -5 -10 -12 -10 -10 0 -52 -41 -96 -95 -79 -95 -78 -316
2 -412 33 -40 88 -93 96 -93 6 0 10 -4 10 -10 0 -5 9 -10 20 -10 11 0 20 -4
20 -9 0 -5 8 -11 17 -14 10 -4 36 -14 58 -22 30 -13 75 -17 181 -17 131 0 185
7 236 33 10 5 34 9 53 9 19 0 35 5 35 10 0 6 13 10 29 10 17 0 33 4 36 10 3 6
17 10 31 10 13 0 24 4 24 8 0 5 22 15 50 22 27 7 50 17 50 22 0 4 9 8 19 8 11
0 23 5 26 10 3 6 15 10 26 10 10 0 19 5 19 10 0 6 9 10 20 10 11 0 20 5 20 10
0 6 7 10 15 10 14 0 53 18 65 30 3 3 19 12 35 20 17 8 32 17 35 20 3 3 19 12
35 20 17 8 39 23 49 33 11 9 24 17 28 17 10 0 91 61 96 73 2 4 9 7 16 7 6 0
18 9 26 20 8 11 18 20 22 20 8 0 45 32 104 87 18 18 35 33 38 33 12 0 201 207
266 291 14 18 30 37 35 43 6 6 21 28 35 48 14 21 28 38 31 38 4 0 12 14 19 30
7 17 16 30 20 30 4 0 13 14 20 30 7 17 16 30 21 30 4 0 10 9 14 19 3 11 19 34
35 53 16 18 37 50 46 71 9 20 20 37 24 37 4 0 13 14 20 30 7 17 16 30 21 30 4
0 11 9 14 20 3 11 12 26 18 32 7 7 23 33 36 58 14 25 27 47 31 50 4 3 17 25
31 50 13 25 30 49 36 53 7 4 13 14 13 22 0 7 6 20 14 27 7 8 21 30 31 48 21
40 56 92 68 101 5 3 7 8 6 10 -3 4 27 54 46 76 5 7 15 19 21 26 7 8 20 29 29
47 10 19 24 40 31 48 8 7 14 17 14 22 0 5 6 15 13 22 7 7 28 33 47 58 19 25
37 47 40 50 3 3 21 25 41 50 53 66 220 230 234 230 3 0 19 14 37 30 17 17 37
30 44 30 7 0 14 4 16 8 4 10 82 62 123 82 17 8 32 17 35 20 6 6 92 48 130 62
14 6 33 14 42 19 10 5 27 9 37 9 11 0 23 5 26 10 3 6 17 10 30 10 13 0 27 5
30 10 3 6 19 10 35 10 16 0 32 5 35 10 3 6 23 10 44 10 20 0 41 4 47 9 20 18
197 34 366 34 163 -1 266 -11 342 -34 16 -5 40 -9 52 -9 13 0 24 -4 24 -10 0
-5 13 -10 29 -10 17 0 33 -4 36 -10 3 -5 17 -10 31 -10 13 0 24 -4 24 -10 0
-5 9 -10 20 -10 11 0 28 -4 38 -9 9 -5 49 -24 87 -42 39 -18 72 -37 73 -41 2
-4 11 -8 20 -8 10 0 28 -9 42 -20 14 -11 33 -20 43 -20 9 0 17 -4 17 -10 0 -5
7 -10 15 -10 8 0 15 -4 15 -10 0 -5 5 -10 11 -10 12 0 103 -60 107 -72 2 -4
12 -8 23 -8 10 0 19 -3 19 -8 0 -4 18 -18 40 -32 22 -14 40 -28 40 -32 0 -5 7
-8 15 -8 8 0 15 -4 15 -10 0 -5 7 -10 15 -10 8 0 15 -4 15 -10 0 -5 4 -10 10
-10 5 0 29 -18 52 -40 24 -22 49 -40 55 -40 7 0 13 -4 13 -8 0 -4 12 -15 28
-24 15 -9 37 -25 49 -35 55 -46 64 -53 73 -53 6 0 10 -4 10 -8 0 -5 12 -15 27
-23 28 -14 53 -32 78 -56 8 -7 17 -13 22 -13 5 0 15 -9 23 -20 8 -11 20 -20
27 -20 7 0 13 -3 13 -8 0 -4 15 -14 33 -21 17 -8 39 -22 47 -30 8 -9 27 -22
43 -30 15 -8 27 -18 27 -23 0 -4 7 -8 15 -8 8 0 15 -4 15 -9 0 -5 8 -11 18
-15 24 -8 80 -41 101 -60 10 -9 23 -16 29 -16 7 0 12 -4 12 -10 0 -5 6 -10 14
-10 8 0 16 -3 18 -8 2 -4 35 -23 73 -42 39 -19 72 -37 75 -40 3 -3 23 -14 45
-24 22 -10 53 -24 69 -32 16 -8 35 -14 43 -14 7 0 13 -4 13 -10 0 -5 9 -10 19
-10 11 0 23 -4 26 -10 3 -5 17 -10 31 -10 13 0 24 -4 24 -10 0 -5 11 -10 25
-10 14 0 25 -4 25 -10 0 -5 11 -10 24 -10 14 0 28 -4 31 -10 3 -5 19 -10 36
-10 16 0 29 -4 29 -10 0 -5 13 -10 29 -10 17 0 32 -4 35 -9 3 -5 23 -11 43
-14 72 -11 108 -18 128 -27 11 -5 45 -11 75 -14 30 -3 102 -10 160 -15 58 -6
130 -11 160 -12 79 -2 332 11 350 18 8 4 44 10 80 14 127 16 155 21 165 30 5
5 26 9 46 9 21 0 40 4 43 9 3 5 23 12 43 15 91 16 103 19 109 27 3 5 16 9 29
9 13 0 27 5 30 10 3 6 15 10 26 10 10 0 28 5 39 10 11 6 29 15 40 20 11 6 29
10 40 10 11 0 20 5 20 10 0 6 11 10 25 10 14 0 25 5 25 10 0 6 9 10 20 10 11
0 20 5 20 10 0 6 9 10 20 10 11 0 20 5 20 10 0 6 7 10 16 10 9 0 28 8 42 18
15 11 42 25 60 33 17 8 32 16 32 20 0 3 16 11 35 19 19 8 35 17 35 22 0 4 8 8
18 8 10 0 24 9 32 20 8 11 18 20 22 20 7 0 36 21 63 48 8 6 18 12 24 12 6 0
11 5 11 10 0 6 5 10 11 10 6 0 17 6 24 13 8 6 41 37 75 67 124 110 252 243
320 330 19 25 39 50 45 56 5 6 21 25 35 43 14 18 30 38 35 44 6 7 24 32 40 57
17 25 36 51 43 58 6 7 12 17 12 22 0 5 6 15 13 22 18 18 105 153 119 183 6 14
14 25 18 25 4 0 15 18 25 40 10 22 21 40 25 40 4 0 15 18 25 40 10 22 21 40
24 40 3 0 15 18 25 40 11 22 23 40 28 40 4 0 8 7 8 16 0 8 11 30 25 48 14 18
25 38 25 44 0 7 3 12 8 12 4 0 23 27 42 60 19 33 39 60 43 60 5 0 5 5 2 10 -3
6 -2 10 4 10 5 0 13 9 16 20 3 11 12 26 18 32 7 7 35 47 62 88 27 41 56 81 62
88 7 7 13 17 13 21 0 5 14 24 30 42 17 19 40 47 53 63 41 55 278 286 292 286
3 0 15 9 27 20 12 11 34 26 50 32 15 7 28 16 28 20 0 4 17 16 38 26 20 11 63
33 96 51 32 17 64 31 72 31 8 0 14 5 14 10 0 6 9 10 20 10 11 0 29 5 40 10 11
6 29 15 40 20 11 6 29 10 39 10 11 0 23 5 26 10 3 6 19 10 35 10 16 0 31 4 34
9 3 5 20 11 38 14 18 4 58 11 88 17 30 6 89 15 130 20 199 23 253 32 340 55
42 12 80 29 80 37 0 5 9 8 20 8 11 0 20 5 20 10 0 6 6 10 13 10 6 0 23 14 37
31 14 17 35 41 48 54 12 13 22 31 22 40 0 8 5 15 10 15 6 0 10 9 10 20 0 11 4
20 8 20 9 0 16 53 16 120 0 69 -7 120 -17 120 -4 0 -6 4 -2 9 3 5 -2 16 -10
24 -8 9 -15 21 -15 27 0 24 -106 133 -147 151 -18 7 -33 17 -33 21 0 5 -9 8
-19 8 -11 0 -23 5 -26 10 -3 6 -17 10 -30 10 -13 0 -26 4 -29 9 -3 4 -38 11
-78 13 -40 3 -80 8 -88 11 -8 3 -19 4 -25 1z"/>
<path d="M13755 7071 c-11 -5 -35 -10 -54 -10 -35 -1 -47 -4 -162 -40 -37 -12
-74 -21 -83 -21 -9 0 -16 -4 -16 -10 0 -5 -9 -10 -20 -10 -11 0 -28 -4 -38 -9
-41 -22 -113 -51 -126 -51 -8 0 -16 -3 -18 -7 -1 -5 -39 -26 -83 -49 -128 -66
-165 -87 -165 -96 0 -4 -9 -8 -20 -8 -11 0 -20 -4 -20 -10 0 -5 -6 -10 -13
-10 -7 0 -19 -9 -27 -20 -8 -11 -20 -20 -27 -20 -7 0 -13 -4 -13 -10 0 -5 -4
-10 -10 -10 -5 0 -19 -8 -31 -17 -11 -10 -29 -25 -39 -33 -9 -8 -33 -26 -51
-40 -39 -28 -301 -291 -339 -339 -14 -17 -37 -45 -52 -62 -15 -16 -30 -38 -33
-49 -3 -10 -12 -21 -20 -24 -8 -3 -15 -12 -15 -21 0 -8 -4 -15 -9 -15 -5 0
-12 -8 -15 -17 -4 -10 -20 -34 -36 -53 -16 -19 -34 -40 -40 -47 -5 -7 -17 -28
-27 -47 -9 -20 -20 -36 -24 -36 -3 0 -12 -13 -19 -30 -7 -16 -16 -30 -21 -30
-4 0 -11 -9 -14 -20 -3 -11 -12 -26 -18 -32 -7 -7 -23 -33 -36 -58 -14 -25
-27 -47 -31 -50 -3 -3 -26 -39 -50 -80 -24 -41 -47 -77 -51 -80 -3 -3 -16 -25
-29 -49 -12 -24 -26 -49 -31 -55 -5 -6 -32 -47 -61 -91 -29 -44 -57 -83 -62
-87 -6 -4 -7 -8 -3 -8 5 0 -4 -17 -20 -37 -16 -21 -42 -58 -58 -83 -17 -25
-36 -51 -42 -58 -7 -7 -13 -17 -13 -22 0 -5 -11 -20 -24 -33 -12 -13 -25 -28
-27 -34 -4 -12 -60 -78 -121 -144 -21 -22 -38 -45 -38 -50 0 -5 -4 -9 -9 -9
-5 0 -34 -24 -64 -52 -70 -68 -104 -97 -147 -128 -19 -13 -37 -27 -40 -30 -3
-4 -25 -17 -50 -31 -25 -13 -47 -26 -50 -29 -11 -11 -134 -70 -146 -70 -8 0
-14 -4 -14 -10 0 -5 -7 -10 -15 -10 -8 0 -25 -5 -38 -12 -48 -25 -58 -28 -81
-28 -14 0 -28 -4 -31 -10 -3 -5 -17 -10 -30 -10 -13 0 -27 -4 -30 -10 -3 -5
-19 -10 -34 -10 -15 0 -31 -4 -36 -9 -11 -10 -49 -16 -200 -32 -164 -18 -456
-11 -480 12 -5 5 -28 9 -51 9 -24 0 -46 4 -49 10 -3 6 -19 10 -36 10 -16 0
-29 5 -29 10 0 6 -13 10 -29 10 -16 0 -34 7 -41 15 -7 8 -17 12 -22 9 -5 -4
-20 -2 -31 4 -12 5 -44 20 -72 32 -27 12 -58 26 -67 31 -10 5 -27 14 -38 19
-11 6 -30 15 -42 22 -13 6 -41 21 -63 32 -22 12 -42 24 -45 27 -3 3 -20 12
-37 20 -18 8 -33 17 -33 21 0 5 -7 8 -15 8 -8 0 -15 5 -15 10 0 6 -6 10 -13
10 -7 0 -23 9 -35 20 -12 11 -26 20 -32 20 -5 0 -10 5 -10 10 0 6 -7 10 -15
10 -8 0 -15 3 -15 8 0 4 -18 18 -40 32 -22 14 -40 28 -40 32 0 5 -6 8 -14 8
-7 0 -27 13 -44 30 -18 16 -36 30 -42 30 -5 0 -10 5 -10 10 0 6 -5 10 -11 10
-6 0 -34 19 -63 42 -29 24 -68 54 -86 68 -18 14 -39 31 -46 38 -7 6 -17 12
-23 12 -6 0 -11 5 -11 10 0 6 -5 10 -11 10 -11 0 -92 60 -97 73 -2 4 -10 7
-18 7 -8 0 -14 5 -14 10 0 6 -6 10 -13 10 -7 0 -23 9 -35 20 -12 11 -25 20
-29 20 -5 0 -14 9 -21 20 -7 11 -21 20 -32 20 -11 0 -20 5 -20 10 0 6 -7 10
-15 10 -8 0 -15 5 -15 10 0 6 -7 10 -15 10 -8 0 -15 5 -15 10 0 6 -7 10 -15
10 -8 0 -15 5 -15 10 0 6 -7 10 -15 10 -8 0 -15 5 -15 10 0 6 -7 10 -15 10 -8
0 -15 5 -15 10 0 6 -5 10 -11 10 -6 0 -31 14 -56 31 -25 18 -78 48 -117 69
-39 20 -81 42 -93 48 -52 27 -63 32 -78 32 -8 0 -15 5 -15 10 0 6 -7 10 -15
10 -14 0 -85 28 -127 51 -10 5 -27 9 -37 9 -11 0 -23 5 -26 10 -3 6 -17 10
-30 10 -13 0 -27 5 -30 10 -3 6 -15 10 -26 10 -10 0 -27 4 -37 9 -18 10 -127
37 -202 51 -25 5 -56 11 -70 14 -100 21 -621 34 -680 17 -19 -6 -60 -13 -90
-16 -85 -8 -171 -22 -215 -35 -22 -7 -56 -14 -75 -17 -19 -3 -39 -9 -45 -12
-5 -4 -30 -13 -55 -21 -25 -7 -49 -17 -54 -22 -6 -4 -18 -8 -28 -8 -18 0 -28
-4 -75 -28 -13 -7 -32 -12 -43 -12 -11 0 -20 -4 -20 -10 0 -5 -11 -10 -25 -10
-14 0 -25 -4 -25 -10 0 -5 -6 -10 -14 -10 -16 0 -140 -62 -144 -72 -2 -5 -12
-8 -23 -8 -10 0 -19 -4 -19 -8 0 -5 -16 -14 -35 -22 -19 -8 -35 -17 -35 -22 0
-4 -7 -8 -15 -8 -8 0 -15 -4 -15 -8 0 -5 -20 -19 -45 -32 -25 -13 -45 -27 -45
-32 0 -4 -7 -8 -15 -8 -8 0 -15 -4 -15 -10 0 -5 -7 -10 -15 -10 -8 0 -15 -4
-15 -10 0 -5 -4 -10 -10 -10 -10 0 -30 -14 -90 -67 -21 -18 -40 -33 -44 -33
-16 0 -336 -335 -359 -376 -4 -8 -18 -25 -30 -38 -12 -13 -44 -55 -72 -94 -27
-39 -53 -72 -57 -72 -5 0 -8 -9 -8 -19 0 -11 -4 -21 -8 -23 -9 -4 -72 -93 -72
-103 0 -4 -6 -13 -12 -20 -29 -32 -37 -44 -57 -83 -20 -40 -62 -106 -80 -128
-5 -6 -19 -31 -31 -55 -13 -24 -40 -71 -62 -103 -21 -32 -46 -73 -55 -90 -9
-17 -19 -33 -23 -36 -4 -3 -14 -19 -23 -36 -35 -68 -197 -304 -209 -304 -4 0
-8 -6 -8 -12 0 -7 -11 -26 -25 -42 -14 -16 -25 -32 -25 -36 0 -6 -10 -20 -49
-66 -5 -7 -29 -49 -52 -95 -40 -79 -43 -90 -47 -184 -3 -81 0 -111 17 -157 11
-32 26 -65 33 -73 43 -51 88 -95 97 -95 6 0 11 -4 11 -10 0 -5 9 -10 20 -10
11 0 20 -4 20 -9 0 -18 97 -36 185 -34 67 1 102 6 138 22 62 27 132 75 180
123 21 21 43 38 48 38 5 0 9 4 9 8 0 8 16 31 58 80 12 15 35 45 50 67 15 22
29 42 32 45 3 3 23 31 44 63 22 31 43 57 48 57 4 0 8 9 8 20 0 11 3 20 8 20 4
0 21 23 37 51 17 28 36 57 43 64 6 8 12 16 12 20 0 6 62 100 80 122 6 7 15 24
22 38 6 14 15 25 20 25 4 0 8 6 8 13 0 11 16 38 125 207 23 36 50 81 60 100
10 18 23 40 29 47 27 30 36 43 36 48 0 10 62 99 82 116 10 9 18 21 18 26 0 5
8 18 18 29 9 10 33 39 52 64 60 77 223 250 236 250 4 0 51 40 80 68 7 6 15 12
18 12 5 0 22 12 60 45 11 10 25 18 91 55 59 33 72 39 207 99 56 24 110 41 131
41 10 0 25 4 35 9 31 16 88 31 115 31 15 0 27 4 27 9 0 15 113 23 345 24 145
1 239 -3 275 -12 30 -7 72 -15 93 -18 20 -3 40 -9 43 -14 3 -5 18 -9 35 -9 16
0 29 -4 29 -8 0 -4 21 -13 48 -20 26 -8 55 -18 64 -23 10 -5 25 -9 33 -9 8 0
15 -4 15 -10 0 -5 9 -10 19 -10 11 0 23 -4 26 -10 3 -5 15 -10 26 -10 10 0 19
-3 19 -8 0 -4 15 -13 33 -21 17 -8 44 -22 59 -33 14 -10 32 -18 40 -18 8 0 24
-9 36 -20 12 -11 26 -20 32 -20 5 0 10 -4 10 -9 0 -5 8 -11 18 -14 18 -6 73
-38 82 -48 11 -12 99 -69 107 -69 5 0 15 -9 23 -20 8 -11 20 -20 26 -20 6 0
25 -13 42 -30 18 -16 36 -30 42 -30 5 0 10 -4 10 -10 0 -5 7 -10 15 -10 8 0
15 -4 15 -10 0 -5 7 -10 16 -10 8 0 12 -4 9 -10 -3 -6 0 -10 8 -10 7 0 23 -9
35 -20 12 -11 26 -20 32 -20 5 0 10 -3 10 -8 0 -4 18 -18 39 -32 22 -13 37
-29 34 -34 -4 -6 -3 -8 2 -4 7 7 76 -38 83 -54 2 -5 10 -8 18 -8 8 0 14 -4 14
-10 0 -5 4 -10 10 -10 5 0 19 -8 31 -18 11 -9 33 -27 47 -39 15 -13 33 -23 40
-23 6 0 12 -4 12 -10 0 -5 7 -10 15 -10 8 0 15 -4 15 -8 0 -5 12 -15 28 -23
15 -8 36 -22 46 -31 11 -10 26 -18 33 -18 7 0 13 -4 13 -10 0 -5 6 -10 13 -10
7 0 22 -8 33 -17 19 -17 28 -23 98 -63 17 -9 54 -30 81 -47 52 -30 171 -89
240 -118 22 -9 57 -25 78 -36 22 -10 45 -19 53 -19 8 0 23 -4 34 -10 11 -5 29
-14 40 -20 11 -5 29 -10 39 -10 11 0 22 -4 25 -9 3 -5 20 -11 38 -14 18 -3 53
-11 78 -17 25 -6 60 -14 78 -17 18 -3 35 -9 38 -14 3 -5 26 -9 52 -9 26 0 63
-4 82 -9 97 -25 560 -29 655 -5 11 3 49 9 85 14 36 6 88 15 115 21 28 5 68 13
90 16 22 3 45 9 50 13 6 4 35 13 65 21 30 7 59 16 64 21 6 4 20 8 32 8 13 0
26 5 29 10 3 6 15 10 26 10 10 0 27 4 37 9 9 5 28 13 42 18 14 6 37 15 53 22
15 6 37 15 50 20 12 5 37 15 55 23 17 7 32 16 32 20 0 5 9 8 20 8 11 0 20 5
20 10 0 6 9 10 20 10 11 0 20 4 20 8 0 5 16 14 35 22 19 8 35 16 35 19 0 4 15
13 33 21 17 7 41 22 51 32 11 10 26 18 33 18 7 0 13 5 13 10 0 6 4 10 10 10 9
0 35 19 65 48 8 6 17 12 22 12 5 0 15 9 23 20 8 11 20 20 27 20 7 0 13 5 13
10 0 6 4 10 9 10 21 0 310 287 352 350 10 14 37 46 60 72 24 26 45 52 47 58 1
7 8 18 15 25 7 7 19 23 27 35 21 31 88 123 99 136 5 6 17 26 26 44 9 18 21 38
26 44 6 6 25 36 44 66 19 30 39 60 44 67 6 6 21 32 33 57 12 25 25 46 28 46 4
0 17 23 30 50 13 28 26 50 30 50 4 0 17 23 30 50 13 28 27 50 30 50 4 0 13 14
20 30 7 17 16 30 21 30 4 0 11 9 14 20 3 11 12 26 19 33 8 7 24 33 37 56 39
71 45 80 73 111 14 16 26 33 26 37 0 5 11 21 25 37 14 16 25 32 25 35 0 3 10
17 23 31 13 14 27 32 33 41 28 50 264 299 282 299 4 0 14 9 22 20 8 11 18 20
23 20 5 0 14 6 22 13 30 28 56 47 65 47 6 0 10 5 10 10 0 6 5 10 10 10 6 0 20
9 32 20 12 11 30 20 40 20 10 0 18 5 18 10 0 6 9 10 19 10 11 0 21 3 23 8 3 7
51 31 146 73 26 12 55 25 64 30 10 5 27 9 38 9 11 0 20 5 20 10 0 6 9 10 20
10 11 0 20 5 20 10 0 6 11 10 25 10 14 0 25 5 25 10 0 6 9 10 20 10 11 0 20 3
20 8 0 4 15 14 33 21 17 8 37 20 43 25 27 25 55 46 62 47 12 1 70 85 101 146
29 59 46 134 42 188 -1 17 -11 60 -22 97 -17 56 -31 78 -79 128 -32 33 -65 60
-74 60 -9 0 -16 5 -16 10 0 6 -9 10 -20 10 -11 0 -20 4 -20 9 0 17 -194 36
-225 22z"/>
<path d="M7035 3290 c-11 -5 -44 -9 -72 -9 -29 -1 -72 -5 -95 -11 -24 -5 -70
-14 -103 -20 -89 -17 -292 -70 -360 -96 -33 -12 -82 -30 -110 -41 -27 -10 -51
-21 -53 -25 -2 -5 -11 -8 -19 -8 -15 0 -195 -92 -265 -137 -21 -12 -40 -23
-43 -23 -8 0 -181 -124 -240 -173 -47 -39 -198 -188 -220 -218 -90 -123 -128
-251 -104 -352 27 -117 99 -205 206 -254 75 -35 198 -43 284 -19 92 26 241
115 334 199 17 16 153 109 210 144 11 7 65 35 120 61 335 164 734 213 1089
136 160 -35 441 -150 548 -225 14 -11 29 -19 33 -19 11 0 240 -156 361 -246
235 -175 343 -232 492 -263 156 -32 323 16 416 120 60 66 81 121 81 214 0 69
-4 89 -32 147 -35 74 -146 195 -248 269 -33 24 -62 46 -65 49 -3 3 -20 16 -38
29 -18 12 -29 27 -26 33 4 6 2 8 -4 4 -5 -3 -30 9 -54 27 -23 18 -65 48 -93
67 -27 18 -52 37 -55 40 -3 4 -61 44 -130 89 -69 44 -130 86 -137 91 -7 6 -15
10 -18 10 -4 0 -25 13 -48 29 -23 15 -71 43 -107 62 -36 19 -67 37 -70 40 -3
3 -22 12 -42 20 -21 7 -38 17 -38 21 0 4 -5 8 -11 8 -5 0 -38 13 -72 29 -34
16 -78 34 -97 41 -19 7 -51 19 -70 28 -48 21 -306 93 -355 98 -22 3 -49 7 -60
10 -88 24 -579 43 -620 24z"/>
</g>
</svg>
