  0
SECTION
  2
HEADER
  9
$ACADVER
  1
AC1006
  9
$EXTMIN
 10
0.000000
 20
0.000000
 30
0.000000
  9
$EXTMAX
 10
300.000000
 20
306.000000
 30
0.000000
  0
ENDSEC
  0
SECTION
  2
ENTITIES
  0
POLYLINE
  8
0
 66
1
 70
1
  0
VERTEX
  8
0
 10
117.000000
 20
277.000000
 42
0.158711
  0
VERTEX
  8
0
 10
115.149167
 20
273.361807
 42
0.178326
  0
VERTEX
  8
0
 10
115.915128
 20
269.526828
 42
0.087165
  0
VERTEX
  8
0
 10
119.884275
 20
265.037410
 42
0.020853
  0
VERTEX
  8
0
 10
127.952154
 20
259.139674
 42
0.031334
  0
VERTEX
  8
0
 10
138.723271
 20
252.873581
 42
0.056180
  0
VERTEX
  8
0
 10
148.317191
 20
249.349738
 42
0.062457
  0
VERTEX
  8
0
 10
157.725067
 20
248.262959
 42
0.049916
  0
VERTEX
  8
0
 10
167.878481
 20
249.379155
 42
0.035446
  0
VERTEX
  8
0
 10
175.972423
 20
251.707529
 42
0.041776
  0
VERTEX
  8
0
 10
183.202596
 20
255.062660
 42
0.045969
  0
VERTEX
  8
0
 10
189.106522
 20
259.187713
 42
0.071632
  0
VERTEX
  8
0
 10
193.219715
 20
263.820569
 42
0.049979
  0
VERTEX
  8
0
 10
194.546975
 20
266.350478
 42
0.115613
  0
VERTEX
  8
0
 10
194.872127
 20
268.457977
 42
0.120628
  0
VERTEX
  8
0
 10
194.223688
 20
270.433056
 42
0.057082
  0
VERTEX
  8
0
 10
192.545455
 20
272.545455
 42
0.091157
  0
VERTEX
  8
0
 10
189.898002
 20
274.370649
 42
0.142549
  0
VERTEX
  8
0
 10
187.175980
 20
274.750317
 42
0.088438
  0
VERTEX
  8
0
 10
183.753969
 20
273.612424
 42
0.020929
  0
VERTEX
  8
0
 10
178.570769
 20
270.510464
 42
-0.020464
  0
VERTEX
  8
0
 10
173.050118
 20
267.199571
 42
-0.046956
  0
VERTEX
  8
0
 10
168.599484
 20
265.289196
 42
-0.050496
  0
VERTEX
  8
0
 10
164.074210
 20
264.321337
 42
-0.027229
  0
VERTEX
  8
0
 10
158.375727
 20
264.005577
 42
-0.039050
  0
VERTEX
  8
0
 10
152.653841
 20
264.447893
 42
-0.052153
  0
VERTEX
  8
0
 10
147.621760
 20
265.783410
 42
-0.041013
  0
VERTEX
  8
0
 10
142.137414
 20
268.403025
 42
-0.014707
  0
VERTEX
  8
0
 10
134.780258
 20
272.984922
 42
0.019520
  0
VERTEX
  8
0
 10
128.098238
 20
277.057636
 42
0.071685
  0
VERTEX
  8
0
 10
123.483943
 20
278.822008
 42
0.123733
  0
VERTEX
  8
0
 10
119.979926
 20
278.737464
 42
0.129482
  0
SEQEND
  0
POLYLINE
  8
0
 66
1
 70
1
  0
VERTEX
  8
0
 10
215.000000
 20
259.286290
 42
0.100630
  0
VERTEX
  8
0
 10
212.390316
 20
257.708940
 42
0.032781
  0
VERTEX
  8
0
 10
209.269938
 20
254.432525
 42
0.024530
  0
VERTEX
  8
0
 10
205.556170
 20
249.510857
 42
0.010069
  0
VERTEX
  8
0
 10
200.990533
 20
242.500000
 42
-0.026088
  0
VERTEX
  8
0
 10
193.096339
 20
231.187349
 42
-0.065221
  0
VERTEX
  8
0
 10
185.942223
 20
224.122600
 42
-0.081943
  0
VERTEX
  8
0
 10
178.285225
 20
220.084211
 42
-0.063343
  0
VERTEX
  8
0
 10
169.016111
 20
218.250592
 42
-0.054946
  0
VERTEX
  8
0
 10
162.492169
 20
218.518224
 42
-0.059030
  0
VERTEX
  8
0
 10
156.347324
 20
220.210293
 42
-0.043052
  0
VERTEX
  8
0
 10
149.345950
 20
223.790379
 42
-0.014681
  0
VERTEX
  8
0
 10
139.840610
 20
230.128465
 42
0.002945
  0
VERTEX
  8
0
 10
135.284995
 20
233.323060
 42
0.003573
  0
VERTEX
  8
0
 10
130.975660
 20
236.261907
 42
0.003025
  0
VERTEX
  8
0
 10
127.318514
 20
238.685901
 42
0.024628
  0
VERTEX
  8
0
 10
125.587169
 20
239.700401
 42
0.068752
  0
VERTEX
  8
0
 10
113.538743
 20
244.009852
 42
0.065378
  0
VERTEX
  8
0
 10
100.560233
 20
244.993407
 42
0.065311
  0
VERTEX
  8
0
 10
87.755497
 20
242.592258
 42
0.068348
  0
VERTEX
  8
0
 10
76.216368
 20
236.985649
 42
0.032652
  0
VERTEX
  8
0
 10
71.243630
 20
233.173483
 42
0.036456
  0
VERTEX
  8
0
 10
67.002710
 20
228.874400
 42
0.027716
  0
VERTEX
  8
0
 10
62.605362
 20
223.093449
 42
0.009922
  0
VERTEX
  8
0
 10
56.971141
 20
214.399815
 42
-0.016386
  0
VERTEX
  8
0
 10
51.369746
 20
205.996858
 42
-0.038015
  0
VERTEX
  8
0
 10
46.511472
 20
200.190352
 42
-0.046431
  0
VERTEX
  8
0
 10
41.493724
 20
195.918406
 42
-0.039427
  0
VERTEX
  8
0
 10
35.500000
 20
192.376907
 42
0.015595
  0
VERTEX
  8
0
 10
30.527222
 20
189.749651
 42
0.065503
  0
VERTEX
  8
0
 10
27.839133
 20
187.714377
 42
0.108284
  0
VERTEX
  8
0
 10
26.477019
 20
185.617975
 42
0.090361
  0
VERTEX
  8
0
 10
26.000000
 20
183.000000
 42
0.077545
  0
VERTEX
  8
0
 10
26.460771
 20
180.046879
 42
0.140800
  0
VERTEX
  8
0
 10
27.808337
 20
178.031292
 42
0.123860
  0
VERTEX
  8
0
 10
30.163062
 20
176.878541
 42
0.053160
  0
VERTEX
  8
0
 10
33.669389
 20
176.517640
 42
0.103893
  0
VERTEX
  8
0
 10
42.424491
 20
178.390081
 42
0.064278
  0
VERTEX
  8
0
 10
51.449151
 20
183.875030
 42
0.052935
  0
VERTEX
  8
0
 10
60.382808
 20
192.717460
 42
0.033769
  0
VERTEX
  8
0
 10
68.851283
 20
204.648931
 42
-0.023209
  0
VERTEX
  8
0
 10
76.902635
 20
216.515496
 42
-0.065372
  0
VERTEX
  8
0
 10
83.891005
 20
223.677741
 42
-0.084835
  0
VERTEX
  8
0
 10
91.347704
 20
227.730681
 42
-0.061784
  0
VERTEX
  8
0
 10
100.604056
 20
229.657060
 42
-0.049214
  0
VERTEX
  8
0
 10
107.202767
 20
229.547680
 42
-0.056190
  0
VERTEX
  8
0
 10
113.352164
 20
228.126098
 42
-0.047668
  0
VERTEX
  8
0
 10
119.795059
 20
225.134463
 42
-0.023592
  0
VERTEX
  8
0
 10
127.359097
 20
220.209541
 42
0.010574
  0
VERTEX
  8
0
 10
140.832884
 20
210.928699
 42
0.042135
  0
VERTEX
  8
0
 10
149.640978
 20
206.141876
 42
0.060862
  0
VERTEX
  8
0
 10
157.386361
 20
203.813579
 42
0.041977
  0
VERTEX
  8
0
 10
166.521642
 20
203.021092
 42
0.059122
  0
VERTEX
  8
0
 10
180.559246
 20
204.649359
 42
0.083126
  0
VERTEX
  8
0
 10
192.152658
 20
209.543517
 42
0.074001
  0
VERTEX
  8
0
 10
202.448526
 20
218.447987
 42
0.037469
  0
VERTEX
  8
0
 10
212.641589
 20
232.279223
 42
-0.002349
  0
VERTEX
  8
0
 10
215.060293
 20
236.095460
 42
-0.002262
  0
VERTEX
  8
0
 10
217.545012
 20
239.937033
 42
-0.002237
  0
VERTEX
  8
0
 10
219.764864
 20
243.302307
 42
-0.008237
  0
VERTEX
  8
0
 10
221.212554
 20
245.400038
 42
0.073939
  0
VERTEX
  8
0
 10
223.533211
 20
249.935604
 42
0.130266
  0
VERTEX
  8
0
 10
223.810042
 20
254.108151
 42
0.157541
  0
VERTEX
  8
0
 10
222.020500
 20
257.342733
 42
0.124186
  0
VERTEX
  8
0
 10
218.500000
 20
259.292769
 42
0.037136
  0
VERTEX
  8
0
 10
217.624336
 20
259.456183
 42
0.028034
  0
VERTEX
  8
0
 10
216.646875
 20
259.509215
 42
0.028654
  0
VERTEX
  8
0
 10
215.717956
 20
259.454212
 42
0.056722
  0
SEQEND
  0
POLYLINE
  8
0
 66
1
 70
1
  0
VERTEX
  8
0
 10
242.745923
 20
225.914329
 42
0.042274
  0
VERTEX
  8
0
 10
238.059815
 20
224.382405
 42
0.028490
  0
VERTEX
  8
0
 10
233.008111
 20
221.895771
 42
0.027645
  0
VERTEX
  8
0
 10
228.072484
 20
218.734577
 42
0.031285
  0
VERTEX
  8
0
 10
223.726299
 20
215.165866
 42
0.034115
  0
VERTEX
  8
0
 10
221.200755
 20
212.468748
 42
0.008416
  0
VERTEX
  8
0
 10
217.443830
 20
207.702471
 42
0.008573
  0
VERTEX
  8
0
 10
213.317554
 20
202.085127
 42
0.008486
  0
VERTEX
  8
0
 10
209.371858
 20
196.310632
 42
-0.007430
  0
VERTEX
  8
0
 10
205.550222
 20
190.692253
 42
-0.009016
  0
VERTEX
  8
0
 10
201.796411
 20
185.546019
 42
-0.007825
  0
VERTEX
  8
0
 10
198.503229
 20
181.336680
 42
-0.059986
  0
VERTEX
  8
0
 10
196.707716
 20
179.590635
 42
-0.063708
  0
VERTEX
  8
0
 10
188.928125
 20
175.091204
 42
-0.067647
  0
VERTEX
  8
0
 10
180.422187
 20
172.809990
 42
-0.068956
  0
VERTEX
  8
0
 10
171.760486
 20
172.903178
 42
-0.070542
  0
VERTEX
  8
0
 10
163.521959
 20
175.355399
 42
-0.020800
  0
VERTEX
  8
0
 10
160.669145
 20
176.810803
 42
-0.008680
  0
VERTEX
  8
0
 10
156.943517
 20
178.997217
 42
-0.008571
  0
VERTEX
  8
0
 10
153.030926
 20
181.478653
 42
-0.010986
  0
VERTEX
  8
0
 10
149.521959
 20
183.901548
 42
0.005378
  0
VERTEX
  8
0
 10
142.048017
 20
189.186964
 42
0.017139
  0
VERTEX
  8
0
 10
136.903044
 20
192.488346
 42
0.023613
  0
VERTEX
  8
0
 10
132.527820
 20
194.816454
 42
0.021292
  0
VERTEX
  8
0
 10
127.800845
 20
196.810587
 42
0.070846
  0
VERTEX
  8
0
 10
115.348753
 20
199.532125
 42
0.068023
  0
VERTEX
  8
0
 10
102.450830
 20
198.729940
 42
0.067892
  0
VERTEX
  8
0
 10
90.219217
 20
194.492037
 42
0.070095
  0
VERTEX
  8
0
 10
79.716180
 20
187.165866
 42
0.034056
  0
VERTEX
  8
0
 10
77.189819
 20
184.473949
 42
0.008487
  0
VERTEX
  8
0
 10
73.445834
 20
179.734817
 42
0.008635
  0
VERTEX
  8
0
 10
69.338547
 20
174.153087
 42
0.008578
  0
VERTEX
  8
0
 10
65.417217
 20
168.420745
 42
-0.016025
  0
VERTEX
  8
0
 10
57.279906
 20
156.897394
 42
-0.063362
  0
VERTEX
  8
0
 10
51.229902
 20
150.701055
 42
-0.082117
  0
VERTEX
  8
0
 10
44.654753
 20
147.049688
 42
-0.038974
  0
VERTEX
  8
0
 10
35.277162
 20
144.503274
 42
0.043877
  0
VERTEX
  8
0
 10
28.240734
 20
142.518427
 42
0.156755
  0
VERTEX
  8
0
 10
24.631350
 20
139.637573
 42
0.242822
  0
VERTEX
  8
0
 10
24.236903
 20
136.058848
 42
0.105072
  0
VERTEX
  8
0
 10
26.923077
 20
131.923077
 42
0.096450
  0
VERTEX
  8
0
 10
29.956666
 20
129.878306
 42
0.085846
  0
VERTEX
  8
0
 10
33.664282
 20
129.012096
 42
0.060064
  0
VERTEX
  8
0
 10
38.528997
 20
129.312845
 42
0.022196
  0
VERTEX
  8
0
 10
45.234471
 20
130.855410
 42
0.051941
  0
VERTEX
  8
0
 10
54.830928
 20
134.624893
 42
0.060484
  0
VERTEX
  8
0
 10
62.920601
 20
140.146196
 42
0.051453
  0
VERTEX
  8
0
 10
70.399004
 20
148.201640
 42
0.025513
  0
VERTEX
  8
0
 10
78.216848
 20
159.766480
 42
-0.015994
  0
VERTEX
  8
0
 10
80.673935
 20
163.554635
 42
-0.010776
  0
VERTEX
  8
0
 10
83.706478
 20
167.723095
 42
-0.010861
  0
VERTEX
  8
0
 10
86.817920
 20
171.632601
 42
-0.021110
  0
VERTEX
  8
0
 10
89.496339
 20
174.588737
 42
-0.038214
  0
VERTEX
  8
0
 10
95.083674
 20
179.450231
 42
-0.069823
  0
VERTEX
  8
0
 10
100.375527
 20
182.342792
 42
-0.068919
  0
VERTEX
  8
0
 10
106.306749
 20
183.689035
 42
-0.036328
  0
VERTEX
  8
0
 10
113.873370
 20
183.787013
 42
-0.036235
  0
VERTEX
  8
0
 10
120.175596
 20
182.949513
 42
-0.056765
  0
VERTEX
  8
0
 10
125.364053
 20
181.241832
 42
-0.040397
  0
VERTEX
  8
0
 10
131.155940
 20
177.985935
 42
-0.010205
  0
VERTEX
  8
0
 10
140.000000
 20
171.761355
 42
0.028674
  0
VERTEX
  8
0
 10
153.400457
 20
163.051375
 42
0.062533
  0
VERTEX
  8
0
 10
164.697624
 20
158.353096
 42
0.072748
  0
VERTEX
  8
0
 10
175.670068
 20
156.985743
 42
0.052605
  0
VERTEX
  8
0
 10
187.913368
 20
158.541285
 42
0.052913
  0
VERTEX
  8
0
 10
197.624762
 20
161.946165
 42
0.065046
  0
VERTEX
  8
0
 10
205.690393
 20
167.148487
 42
0.051926
  0
VERTEX
  8
0
 10
213.414246
 20
175.205707
 42
0.020934
  0
VERTEX
  8
0
 10
222.263532
 20
187.636537
 42
-0.015218
  0
VERTEX
  8
0
 10
229.051472
 20
197.406176
 42
-0.040524
  0
VERTEX
  8
0
 10
234.637527
 20
203.792383
 42
-0.054574
  0
VERTEX
  8
0
 10
240.070162
 20
208.026890
 42
-0.056903
  0
VERTEX
  8
0
 10
246.216831
 20
210.915848
 42
0.013823
  0
VERTEX
  8
0
 10
248.686649
 20
211.826720
 42
0.014460
  0
VERTEX
  8
0
 10
251.065031
 20
212.860123
 42
0.014254
  0
VERTEX
  8
0
 10
253.062971
 20
213.868263
 42
0.060008
  0
VERTEX
  8
0
 10
254.157620
 20
214.642644
 42
0.103737
  0
VERTEX
  8
0
 10
255.345750
 20
216.277349
 42
0.079749
  0
VERTEX
  8
0
 10
255.919978
 20
218.413545
 42
0.074937
  0
VERTEX
  8
0
 10
255.812080
 20
220.749668
 42
0.074047
  0
VERTEX
  8
0
 10
255.021109
 20
222.960558
 42
0.125448
  0
VERTEX
  8
0
 10
253.875321
 20
224.212915
 42
0.029686
  0
VERTEX
  8
0
 10
251.398946
 20
225.633623
 42
0.029583
  0
VERTEX
  8
0
 10
248.774314
 20
226.750599
 42
0.127910
  0
VERTEX
  8
0
 10
247.100777
 20
226.899549
 42
0.013315
  0
VERTEX
  8
0
 10
246.703862
 20
226.822268
 42
0.000890
  0
VERTEX
  8
0
 10
245.573718
 20
226.568704
 42
0.001283
  0
VERTEX
  8
0
 10
244.227620
 20
226.260538
 42
0.000960
  0
SEQEND
  0
POLYLINE
  8
0
 66
1
 70
1
  0
VERTEX
  8
0
 10
252.627561
 20
180.889737
 42
0.049444
  0
VERTEX
  8
0
 10
246.992155
 20
178.962891
 42
0.028192
  0
VERTEX
  8
0
 10
240.617518
 20
175.606569
 42
0.028053
  0
VERTEX
  8
0
 10
234.582531
 20
171.503526
 42
0.044316
  0
VERTEX
  8
0
 10
229.971049
 20
167.277945
 42
0.020584
  0
VERTEX
  8
0
 10
227.641124
 20
164.507850
 42
0.008298
  0
VERTEX
  8
0
 10
224.682781
 20
160.547292
 42
0.008194
  0
VERTEX
  8
0
 10
221.634433
 20
156.172397
 42
0.010287
  0
VERTEX
  8
0
 10
218.960840
 20
152.015890
 42
-0.007785
  0
VERTEX
  8
0
 10
216.358504
 20
147.925337
 42
-0.006909
  0
VERTEX
  8
0
 10
213.526435
 20
143.749858
 42
-0.006951
  0
VERTEX
  8
0
 10
210.873092
 20
140.062201
 42
-0.021048
  0
VERTEX
  8
0
 10
208.929475
 20
137.657219
 42
-0.075917
  0
VERTEX
  8
0
 10
202.206560
 20
132.023650
 42
-0.067906
  0
VERTEX
  8
0
 10
193.853231
 20
128.389876
 42
-0.067337
  0
VERTEX
  8
0
 10
184.762952
 20
127.106620
 42
-0.072296
  0
VERTEX
  8
0
 10
175.886838
 20
128.344520
 42
-0.044280
  0
VERTEX
  8
0
 10
172.693504
 20
129.588291
 42
-0.016182
  0
VERTEX
  8
0
 10
168.415976
 20
131.882398
 42
-0.013462
  0
VERTEX
  8
0
 10
163.194903
 20
135.094672
 42
-0.007350
  0
VERTEX
  8
0
 10
156.959060
 20
139.298695
 42
0.010240
  0
VERTEX
  8
0
 10
145.837245
 20
146.703582
 42
0.037780
  0
VERTEX
  8
0
 10
138.399852
 20
150.683975
 42
0.052874
  0
VERTEX
  8
0
 10
131.827450
 20
152.790933
 42
0.037273
  0
VERTEX
  8
0
 10
124.127919
 20
153.798052
 42
0.026883
  0
VERTEX
  8
0
 10
116.787914
 20
153.811260
 42
0.038735
  0
VERTEX
  8
0
 10
110.350206
 20
152.973647
 42
0.039374
  0
VERTEX
  8
0
 10
104.198130
 20
151.167760
 42
0.029101
  0
VERTEX
  8
0
 10
97.725245
 20
148.258401
 42
0.044692
  0
VERTEX
  8
0
 10
91.676881
 20
144.382265
 42
0.040181
  0
VERTEX
  8
0
 10
86.176920
 20
139.364702
 42
0.033295
  0
VERTEX
  8
0
 10
80.722501
 20
132.679355
 42
0.017170
  0
VERTEX
  8
0
 10
74.771988
 20
123.664822
 42
-0.019326
  0
VERTEX
  8
0
 10
68.849519
 20
114.776326
 42
-0.039494
  0
VERTEX
  8
0
 10
63.420071
 20
108.399782
 42
-0.049432
  0
VERTEX
  8
0
 10
57.992823
 20
103.941259
 42
-0.059896
  0
VERTEX
  8
0
 10
52.121047
 20
100.963864
 42
0.020920
  0
VERTEX
  8
0
 10
46.981472
 20
98.842371
 42
0.056327
  0
VERTEX
  8
0
 10
43.608212
 20
96.793466
 42
0.086564
  0
VERTEX
  8
0
 10
41.673579
 20
94.673511
 42
0.142714
  0
VERTEX
  8
0
 10
41.000000
 20
92.361678
 42
0.174456
  0
VERTEX
  8
0
 10
42.784564
 20
87.402693
 42
0.179995
  0
VERTEX
  8
0
 10
47.295702
 20
84.797282
 42
0.110764
  0
VERTEX
  8
0
 10
54.397820
 20
85.174447
 42
0.048873
  0
VERTEX
  8
0
 10
63.207377
 20
88.605086
 42
0.049050
  0
VERTEX
  8
0
 10
69.087721
 20
92.349734
 42
0.038333
  0
VERTEX
  8
0
 10
74.672112
 20
97.466171
 42
0.029551
  0
VERTEX
  8
0
 10
80.601457
 20
104.600950
 42
0.012963
  0
VERTEX
  8
0
 10
87.628142
 20
114.689368
 42
-0.007430
  0
VERTEX
  8
0
 10
91.449778
 20
120.307747
 42
-0.009016
  0
VERTEX
  8
0
 10
95.203589
 20
125.453981
 42
-0.007825
  0
VERTEX
  8
0
 10
98.496771
 20
129.663320
 42
-0.059986
  0
VERTEX
  8
0
 10
100.292284
 20
131.409365
 42
-0.037060
  0
VERTEX
  8
0
 10
105.001708
 20
134.478141
 42
-0.043565
  0
VERTEX
  8
0
 10
109.871098
 20
136.631424
 42
-0.043930
  0
VERTEX
  8
0
 10
115.004376
 20
137.895661
 42
-0.038799
  0
VERTEX
  8
0
 10
120.500000
 20
138.314770
 42
-0.046220
  0
VERTEX
  8
0
 10
126.978492
 20
137.705185
 42
-0.055453
  0
VERTEX
  8
0
 10
132.830713
 20
135.914201
 42
-0.041287
  0
VERTEX
  8
0
 10
139.367655
 20
132.424921
 42
-0.013827
  0
VERTEX
  8
0
 10
148.308783
 20
126.301621
 42
0.014272
  0
VERTEX
  8
0
 10
157.041366
 20
120.332547
 42
0.028802
  0
VERTEX
  8
0
 10
164.300102
 20
116.239237
 42
0.034815
  0
VERTEX
  8
0
 10
170.974376
 20
113.524768
 42
0.036727
  0
VERTEX
  8
0
 10
177.843351
 20
111.820130
 42
0.061519
  0
VERTEX
  8
0
 10
188.159681
 20
111.335456
 42
0.054422
  0
VERTEX
  8
0
 10
198.740292
 20
113.311917
 42
0.054226
  0
VERTEX
  8
0
 10
208.682415
 20
117.535952
 42
0.060071
  0
VERTEX
  8
0
 10
217.114243
 20
123.684980
 42
0.033548
  0
VERTEX
  8
0
 10
219.705147
 20
126.445963
 42
0.008585
  0
VERTEX
  8
0
 10
223.509329
 20
131.253715
 42
0.008706
  0
VERTEX
  8
0
 10
227.670730
 20
136.903918
 42
0.008735
  0
VERTEX
  8
0
 10
231.628142
 20
142.689368
 42
-0.018910
  0
VERTEX
  8
0
 10
239.864901
 20
154.220298
 42
-0.063488
  0
VERTEX
  8
0
 10
246.410828
 20
160.772837
 42
-0.083701
  0
VERTEX
  8
0
 10
253.345866
 20
164.490484
 42
-0.050988
  0
VERTEX
  8
0
 10
262.433620
 20
166.553069
 42
0.073605
  0
VERTEX
  8
0
 10
268.502801
 20
168.221267
 42
0.150490
  0
VERTEX
  8
0
 10
272.198383
 20
171.423026
 42
0.201847
  0
VERTEX
  8
0
 10
272.847286
 20
175.449329
 42
0.137570
  0
VERTEX
  8
0
 10
270.545455
 20
179.545455
 42
0.047489
  0
VERTEX
  8
0
 10
269.001119
 20
180.821326
 42
0.079574
  0
VERTEX
  8
0
 10
267.478902
 20
181.531961
 42
0.058281
  0
VERTEX
  8
0
 10
265.495696
 20
181.855118
 42
0.015608
  0
VERTEX
  8
0
 10
262.295455
 20
181.899549
 42
0.012281
  0
VERTEX
  8
0
 10
259.793111
 20
181.794661
 42
0.009405
  0
VERTEX
  8
0
 10
257.064886
 20
181.561481
 42
0.009527
  0
VERTEX
  8
0
 10
254.518223
 20
181.246325
 42
0.022121
  0
SEQEND
  0
POLYLINE
  8
0
 66
1
 70
1
  0
VERTEX
  8
0
 10
252.341703
 20
131.534558
 42
0.043939
  0
VERTEX
  8
0
 10
245.860452
 20
127.545762
 42
0.038245
  0
VERTEX
  8
0
 10
239.845150
 20
122.312709
 42
0.034064
  0
VERTEX
  8
0
 10
234.100161
 20
115.632534
 42
0.022718
  0
VERTEX
  8
0
 10
228.426466
 20
107.281104
 42
-0.026520
  0
VERTEX
  8
0
 10
219.929869
 20
94.976729
 42
-0.066387
  0
VERTEX
  8
0
 10
212.192516
 20
87.309522
 42
-0.086084
  0
VERTEX
  8
0
 10
204.052452
 20
83.107652
 42
-0.073370
  0
VERTEX
  8
0
 10
194.500000
 20
81.582756
 42
-0.042480
  0
VERTEX
  8
0
 10
187.931633
 20
82.063677
 42
-0.059783
  0
VERTEX
  8
0
 10
182.287674
 20
83.670863
 42
-0.043345
  0
VERTEX
  8
0
 10
175.977597
 20
86.983904
 42
-0.012373
  0
VERTEX
  8
0
 10
166.809532
 20
93.187162
 42
0.012441
  0
VERTEX
  8
0
 10
157.422678
 20
99.536596
 42
0.028551
  0
VERTEX
  8
0
 10
149.988580
 20
103.721853
 42
0.035981
  0
VERTEX
  8
0
 10
143.316796
 20
106.415604
 42
0.037493
  0
VERTEX
  8
0
 10
136.418353
 20
108.080805
 42
0.041620
  0
VERTEX
  8
0
 10
129.335834
 20
108.639459
 42
0.039983
  0
VERTEX
  8
0
 10
122.160725
 20
108.032441
 42
0.039043
  0
VERTEX
  8
0
 10
115.013602
 20
106.265461
 42
0.035879
  0
VERTEX
  8
0
 10
108.014763
 20
103.370997
 42
0.038311
  0
VERTEX
  8
0
 10
101.934351
 20
99.722446
 42
0.039327
  0
VERTEX
  8
0
 10
96.538521
 20
95.217534
 42
0.035158
  0
VERTEX
  8
0
 10
91.435546
 20
89.472050
 42
0.021544
  0
VERTEX
  8
0
 10
86.221850
 20
82.057852
 42
-0.001707
  0
VERTEX
  8
0
 10
83.839502
 20
78.367155
 42
-0.001311
  0
VERTEX
  8
0
 10
81.212954
 20
74.351553
 42
-0.001325
  0
VERTEX
  8
0
 10
78.736231
 20
70.608243
 42
-0.003150
  0
VERTEX
  8
0
 10
76.869528
 20
67.841052
 42
0.058270
  0
VERTEX
  8
0
 10
73.348368
 20
61.132572
 42
0.163970
  0
VERTEX
  8
0
 10
73.129300
 20
55.907065
 42
0.231817
  0
VERTEX
  8
0
 10
76.002682
 20
52.752182
 42
0.114230
  0
VERTEX
  8
0
 10
81.500000
 20
51.926959
 42
0.166640
  0
VERTEX
  8
0
 10
84.015264
 20
53.016340
 42
0.028392
  0
VERTEX
  8
0
 10
87.721258
 20
56.799743
 42
0.026558
  0
VERTEX
  8
0
 10
91.936374
 20
62.173053
 42
0.016144
  0
VERTEX
  8
0
 10
96.360827
 20
68.929153
 42
-0.029058
  0
VERTEX
  8
0
 10
103.888355
 20
79.800652
 42
-0.065562
  0
VERTEX
  8
0
 10
111.024140
 20
86.805622
 42
-0.079927
  0
VERTEX
  8
0
 10
118.759352
 20
90.888835
 42
-0.064157
  0
VERTEX
  8
0
 10
128.000000
 20
92.743189
 42
-0.054551
  0
VERTEX
  8
0
 10
134.475190
 20
92.489949
 42
-0.058565
  0
VERTEX
  8
0
 10
140.581114
 20
90.832383
 42
-0.044561
  0
VERTEX
  8
0
 10
147.376221
 20
87.370942
 42
-0.016967
  0
VERTEX
  8
0
 10
156.193300
 20
81.414470
 42
0.009076
  0
VERTEX
  8
0
 10
160.680348
 20
78.278973
 42
0.007171
  0
VERTEX
  8
0
 10
165.642579
 20
75.046155
 42
0.007258
  0
VERTEX
  8
0
 10
170.337067
 20
72.177233
 42
0.017834
  0
VERTEX
  8
0
 10
173.887821
 20
70.244915
 42
0.014856
  0
VERTEX
  8
0
 10
178.382044
 20
68.167405
 42
0.042394
  0
VERTEX
  8
0
 10
181.651350
 20
67.089223
 42
0.038161
  0
VERTEX
  8
0
 10
185.240639
 20
66.519059
 42
0.010277
  0
VERTEX
  8
0
 10
191.000762
 20
66.169008
 42
0.059164
  0
VERTEX
  8
0
 10
205.815250
 20
67.327565
 42
0.085639
  0
VERTEX
  8
0
 10
218.042360
 20
72.029198
 42
0.078530
  0
VERTEX
  8
0
 10
228.715187
 20
80.922430
 42
0.042231
  0
VERTEX
  8
0
 10
238.901867
 20
94.749416
 42
-0.014942
  0
VERTEX
  8
0
 10
245.020611
 20
104.080073
 42
-0.036556
  0
VERTEX
  8
0
 10
250.202865
 20
110.444397
 42
-0.046611
  0
VERTEX
  8
0
 10
255.398434
 20
115.012156
 42
-0.044318
  0
VERTEX
  8
0
 10
261.435327
 20
118.626345
 42
0.015821
  0
VERTEX
  8
0
 10
266.575727
 20
121.318925
 42
0.072368
  0
VERTEX
  8
0
 10
269.234543
 20
123.376636
 42
0.116436
  0
VERTEX
  8
0
 10
270.548614
 20
125.589614
 42
0.076152
  0
VERTEX
  8
0
 10
271.000000
 20
128.536142
 42
0.172059
  0
VERTEX
  8
0
 10
269.526733
 20
132.690678
 42
0.184526
  0
VERTEX
  8
0
 10
265.808829
 20
134.840620
 42
0.110578
  0
VERTEX
  8
0
 10
259.875924
 20
134.478729
 42
0.045704
  0
SEQEND
  0
POLYLINE
  8
0
 66
1
 70
1
  0
VERTEX
  8
0
 10
126.250674
 20
61.511649
 42
0.045176
  0
VERTEX
  8
0
 10
117.099405
 20
58.031638
 42
0.052824
  0
VERTEX
  8
0
 10
109.225473
 20
53.103531
 42
0.061165
  0
VERTEX
  8
0
 10
103.756012
 20
47.617004
 42
0.166941
  0
VERTEX
  8
0
 10
102.000000
 20
42.504205
 42
0.158256
  0
VERTEX
  8
0
 10
102.631591
 20
40.558707
 42
0.054563
  0
VERTEX
  8
0
 10
104.643250
 20
38.341522
 42
0.054364
  0
VERTEX
  8
0
 10
107.143375
 20
36.570512
 42
0.127611
  0
VERTEX
  8
0
 10
109.342333
 20
36.000000
 42
0.089804
  0
VERTEX
  8
0
 10
110.620717
 20
36.231475
 42
0.020964
  0
VERTEX
  8
0
 10
112.635961
 20
37.083928
 42
0.020957
  0
VERTEX
  8
0
 10
114.906356
 20
38.277509
 42
0.019205
  0
VERTEX
  8
0
 10
117.137788
 20
39.689967
 42
-0.027384
  0
VERTEX
  8
0
 10
122.610699
 20
43.030169
 42
-0.040486
  0
VERTEX
  8
0
 10
127.760990
 20
45.282673
 42
-0.043475
  0
VERTEX
  8
0
 10
132.913744
 20
46.568053
 42
-0.039413
  0
VERTEX
  8
0
 10
138.385000
 20
47.000000
 42
-0.037272
  0
VERTEX
  8
0
 10
144.203632
 20
46.565655
 42
-0.051264
  0
VERTEX
  8
0
 10
149.279764
 20
45.261623
 42
-0.042436
  0
VERTEX
  8
0
 10
154.652136
 20
42.740824
 42
-0.017085
  0
VERTEX
  8
0
 10
161.536350
 20
38.446731
 42
0.018492
  0
VERTEX
  8
0
 10
168.070218
 20
34.396646
 42
0.067860
  0
VERTEX
  8
0
 10
172.575059
 20
32.584793
 42
0.113390
  0
VERTEX
  8
0
 10
176.088810
 20
32.510731
 42
0.115960
  0
VERTEX
  8
0
 10
179.250313
 20
33.982256
 42
0.092156
  0
VERTEX
  8
0
 10
181.402345
 20
36.433516
 42
0.166584
  0
VERTEX
  8
0
 10
181.944103
 20
39.018903
 42
0.127595
  0
VERTEX
  8
0
 10
180.804224
 20
41.894495
 42
0.044817
  0
VERTEX
  8
0
 10
177.849782
 20
45.257680
 42
0.031834
  0
VERTEX
  8
0
 10
172.881106
 20
49.415520
 42
0.017519
  0
VERTEX
  8
0
 10
166.328237
 20
53.880382
 42
0.017513
  0
VERTEX
  8
0
 10
159.571429
 20
57.821622
 42
0.036313
  0
VERTEX
  8
0
 10
154.000000
 20
60.312554
 42
0.049336
  0
VERTEX
  8
0
 10
147.852108
 20
61.877435
 42
0.026874
  0
VERTEX
  8
0
 10
140.092564
 20
62.631852
 42
0.026894
  0
VERTEX
  8
0
 10
132.344782
 20
62.549792
 42
0.052230
  0
SEQEND
  0
ENDSEC
  0
EOF
