<?xml version="1.0" standalone="no"?>
<!DOCTYPE svg PUBLIC "-//W3C//DTD SVG 20010904//EN"
 "http://www.w3.org/TR/2001/REC-SVG-20010904/DTD/svg10.dtd">
<svg version="1.0" xmlns="http://www.w3.org/2000/svg"
 width="7626.000000pt" height="3107.000000pt" viewBox="1087 2213 7627 3108"
 preserveAspectRatio="xMidYMid meet">

<g transform="translate(0.000000,9449.000000) scale(0.100000,-0.100000)"
fill="#0D9488" stroke="none">
<path d="M45830 72355 c-130 -29 -304 -120 -293 -152 3 -7 -2 -13 -10 -13 -15
0 -67 -47 -67 -61 0 -5 5 -9 11 -9 5 0 8 4 5 9 -6 9 17 32 44 45 12 6 12 5 -1
-6 -9 -7 -21 -23 -28 -35 -6 -13 -18 -23 -26 -23 -8 0 -15 -4 -15 -8 0 -18
148 6 174 27 10 9 20 9 40 0 27 -12 50 -4 28 10 -6 4 7 7 31 6 23 -1 62 5 86
12 25 7 49 9 53 5 10 -10 -107 -52 -142 -50 -42 1 -132 -19 -183 -41 -27 -12
-58 -21 -69 -21 -12 0 -19 -3 -15 -6 3 -3 36 -1 74 6 37 6 91 15 120 20 28 4
65 11 82 15 24 5 31 3 31 -9 0 -11 -13 -18 -40 -22 -22 -4 -40 -10 -40 -13 0
-4 -30 -14 -66 -21 -37 -8 -61 -16 -55 -18 11 -4 42 2 208 39 58 13 73 11 73
-6 0 -8 -6 -15 -14 -15 -8 0 -18 -5 -22 -11 -4 -8 11 -9 52 -4 33 4 61 12 62
16 2 5 27 9 55 9 37 0 48 -3 37 -10 -8 -5 -32 -10 -52 -10 -21 0 -38 -4 -38
-10 0 -5 -9 -10 -19 -10 -11 0 -23 -4 -26 -10 -3 -5 -18 -10 -33 -10 -29 -1
-70 -25 -59 -36 3 -3 35 3 71 15 36 12 80 21 98 21 19 0 60 9 92 20 32 12 67
18 78 14 13 -4 18 -2 14 4 -8 14 29 22 70 15 27 -4 34 -2 34 11 0 13 -13 16
-80 16 -47 0 -80 4 -80 10 0 13 157 13 162 0 2 -6 14 -6 33 -1 l30 9 -30 2
c-30 2 -30 2 -5 10 16 5 -13 8 -82 9 -60 1 -108 5 -108 10 0 16 -108 20 -162
5 -29 -7 -73 -14 -98 -14 -79 1 -19 21 93 32 56 5 127 16 157 23 85 22 138 28
120 15 -19 -15 31 -5 75 15 35 15 105 27 157 26 23 0 38 5 42 14 4 10 -17 25
-70 50 -42 19 -80 33 -85 29 -5 -3 -9 -1 -9 4 0 6 -12 13 -27 18 -32 9 -33 9
-53 16 -81 31 -296 44 -390 23z m-260 -145 c0 -5 -5 -10 -11 -10 -5 0 -7 5 -4
10 3 6 8 10 11 10 2 0 4 -4 4 -10z m110 -28 c0 -4 -10 -9 -22 -9 -13 -1 -24
-7 -26 -13 -2 -5 -24 -10 -48 -10 -37 0 -44 -3 -44 -19 0 -10 -6 -21 -14 -24
-10 -4 -12 0 -9 14 7 25 17 31 88 50 76 21 75 20 75 11z m300 4 c0 -2 -13 -6
-29 -8 -17 -2 -28 -1 -25 4 5 8 54 12 54 4z"/>
<path d="M46467 72206 c-3 -7 -1 -18 4 -23 5 -5 1 -9 -10 -9 -11 0 -18 3 -15
7 9 16 -36 15 -53 0 -13 -12 -30 -16 -58 -14 -28 3 -36 1 -26 -5 16 -11 -17
-18 -146 -28 -125 -9 -102 -30 27 -24 19 1 60 10 91 21 31 11 63 17 72 14 8
-4 18 -2 22 4 8 14 25 14 25 1 0 -5 -7 -10 -15 -10 -31 0 -14 -19 23 -25 75
-12 82 -12 82 -1 0 6 5 4 10 -4 7 -10 10 -11 10 -2 0 9 14 12 47 10 25 -2 48
2 49 7 3 11 -76 71 -88 67 -26 -7 -33 -5 -30 11 3 20 -13 23 -21 3z m-47 -26
c0 -5 -5 -10 -11 -10 -5 0 -7 5 -4 10 3 6 8 10 11 10 2 0 4 -4 4 -10z m114
-28 c63 -11 42 -23 -51 -28 -92 -5 -109 0 -33 9 69 9 69 10 10 17 l-55 7 45 1
c25 0 63 -2 84 -6z"/>
<path d="M46310 72120 c-9 -6 -10 -10 -3 -10 6 0 15 5 18 10 8 12 4 12 -15 0z"/>
<path d="M46310 72100 c-11 -7 -7 -10 18 -10 20 0 31 4 27 10 -8 13 -26 13
-45 0z"/>
<path d="M46604 72102 c2 -4 -34 -7 -82 -7 -48 1 -76 -2 -62 -5 24 -6 23 -7
-9 -13 -18 -4 -47 -7 -63 -7 -17 0 -27 -4 -23 -10 4 -6 -12 -10 -42 -10 -26 0
-54 -4 -62 -9 -14 -9 47 -8 134 3 49 6 49 6 -10 -8 -33 -8 -73 -16 -90 -17
l-30 -1 30 -8 c24 -6 18 -8 -30 -8 -35 0 -81 -9 -109 -20 -55 -22 -50 -35 10
-22 21 6 64 12 94 15 30 3 75 10 100 15 56 11 129 21 197 26 29 2 62 8 74 14
11 7 31 9 43 6 11 -3 28 -1 36 4 8 5 22 4 34 -2 29 -14 10 3 -43 41 -39 27
-111 45 -97 23z m101 -41 c-3 -2 -11 2 -20 9 -8 7 -15 8 -15 3 0 -5 -7 -10
-15 -10 -21 0 -19 15 3 19 17 4 55 -13 47 -21z"/>
<path d="M45428 72083 c-5 -28 -2 -61 5 -56 5 3 6 11 3 18 -2 7 0 17 6 23 6 6
6 12 -1 16 -6 4 -12 4 -13 -1z"/>
<path d="M46408 72083 c7 -3 16 -2 19 1 4 3 -2 6 -13 5 -11 0 -14 -3 -6 -6z"/>
<path d="M46648 72019 c-9 -5 -49 -12 -90 -15 -40 -4 -76 -11 -79 -16 -3 -5
-8 -9 -10 -7 -2 1 -24 -1 -49 -6 -25 -4 -51 -7 -57 -6 -7 1 -13 -5 -13 -13 0
-9 8 -14 20 -13 11 1 20 4 20 8 0 5 30 8 153 13 20 0 37 3 37 6 0 3 22 4 50 4
28 -1 50 3 50 8 0 6 6 6 14 -1 8 -7 16 -8 18 -3 1 5 12 6 23 1 19 -7 19 -8 -2
-8 -13 -1 -23 -6 -23 -12 0 -6 -6 -9 -14 -6 -8 3 -19 0 -24 -6 -8 -9 7 -12 61
-13 45 -1 65 1 52 7 -11 4 -14 8 -7 8 7 1 22 -4 33 -9 23 -13 26 2 4 20 -8 7
-15 16 -15 21 0 4 10 -2 23 -14 13 -12 21 -26 18 -32 -3 -5 3 -3 13 5 17 14
17 15 1 25 -9 5 -28 20 -42 32 -30 24 -82 38 -96 24 -6 -6 -19 -6 -31 -1 -12
4 -29 4 -38 -1z"/>
<path d="M46168 72013 c7 -3 16 -2 19 1 4 3 -2 6 -13 5 -11 0 -14 -3 -6 -6z"/>
<path d="M45738 72003 c7 -3 16 -2 19 1 4 3 -2 6 -13 5 -11 0 -14 -3 -6 -6z"/>
<path d="M46245 71935 l-40 -13 45 6 c25 3 55 6 68 7 12 0 22 3 22 8 0 11 -50
7 -95 -8z"/>
<path d="M46895 71920 c3 -5 8 -10 11 -10 2 0 4 5 4 10 0 6 -5 10 -11 10 -5 0
-7 -4 -4 -10z"/>
<path d="M46800 71910 c0 -6 18 -10 44 -8 24 2 42 6 39 11 -7 11 -83 8 -83 -3z"/>
<path d="M46715 71900 c-4 -6 8 -10 29 -10 19 0 38 5 41 10 4 6 -8 10 -29 10
-19 0 -38 -4 -41 -10z"/>
<path d="M46648 71883 c6 -2 18 -2 25 0 6 3 1 5 -13 5 -14 0 -19 -2 -12 -5z"/>
<path d="M46904 71871 c-2 -3 -23 -8 -47 -12 -35 -7 -33 -7 13 -3 30 3 65 6
77 8 38 3 37 15 -2 13 -20 -1 -39 -4 -41 -6z"/>
<path d="M47005 71840 c-3 -5 -12 -7 -19 -4 -8 3 -16 1 -19 -3 -6 -10 58 -11
68 -2 3 4 -1 9 -9 12 -9 4 -18 2 -21 -3z"/>
<path d="M46880 71820 c0 -5 14 -7 33 -3 45 8 47 13 4 13 -20 0 -37 -4 -37
-10z"/>
<path d="M47074 71802 c3 -5 0 -13 -6 -15 -9 -4 -10 -6 -1 -6 17 -1 25 16 12
25 -7 4 -9 3 -5 -4z"/>
<path d="M47026 71792 c-3 -5 1 -9 9 -9 8 0 12 4 9 9 -3 4 -7 8 -9 8 -2 0 -6
-4 -9 -8z"/>
<path d="M57445 60464 c-152 -32 -165 -35 -165 -46 0 -5 -5 -6 -12 -2 -7 5 -8
3 -2 -7 22 -35 13 -57 -30 -73 -15 -5 -17 -4 -7 8 9 11 9 15 -1 19 -10 4 -10
8 2 16 8 6 11 11 6 11 -5 0 -2 7 5 17 13 15 12 15 -8 2 -13 -8 -23 -17 -23
-22 0 -4 -4 -6 -9 -3 -5 3 -11 -1 -15 -9 -3 -8 -2 -15 3 -15 4 0 8 -6 8 -13 0
-8 -6 -14 -14 -14 -7 0 -13 5 -12 11 5 42 1 44 -48 27 -27 -9 -51 -20 -55 -26
-4 -5 -8 -7 -8 -2 0 4 -12 0 -26 -9 -17 -11 -24 -24 -21 -36 3 -10 1 -18 -5
-18 -5 0 -7 -4 -4 -9 9 -13 -4 -42 -16 -35 -5 3 -12 -3 -15 -15 -3 -12 -9 -21
-13 -21 -5 0 -10 -8 -12 -17 -3 -14 -9 -9 -23 17 -18 34 -18 34 -28 12 -6 -12
-16 -22 -24 -22 -7 0 -13 -6 -13 -14 0 -11 -8 -12 -36 -6 -38 9 -57 20 -33 20
12 0 12 2 0 9 -8 5 -21 7 -29 3 -11 -4 -13 -1 -7 8 5 9 4 11 -3 6 -18 -11 -14
-23 11 -30 l22 -6 -22 -19 c-12 -10 -25 -31 -29 -47 l-8 -29 -7 25 -7 25 -7
-22 c-9 -29 -45 -32 -38 -3 3 11 0 20 -6 20 -12 0 -3 31 13 42 7 5 7 8 -2 8
-7 0 -15 -7 -18 -15 -4 -8 -11 -12 -17 -8 -7 4 -8 -5 -4 -25 4 -18 3 -32 -2
-32 -5 0 -12 -24 -16 -52 -7 -47 -25 -77 -48 -78 -4 0 -4 19 -1 43 l7 42 -34
-41 -35 -41 0 33 c0 37 -11 55 -23 36 -6 -10 -15 -10 -34 -3 -25 10 -31 7 -28
-11 0 -5 -4 -8 -9 -8 -5 0 -10 -7 -10 -15 0 -22 17 -18 23 5 5 20 37 29 37 9
0 -5 -4 -7 -10 -4 -6 3 -7 -1 -4 -9 4 -9 -5 -29 -20 -47 -14 -17 -26 -35 -26
-40 0 -5 -7 -9 -16 -9 -10 0 -14 6 -11 15 4 8 1 17 -5 21 -7 4 -8 3 -4 -4 5
-8 0 -12 -13 -12 -25 0 -26 4 -6 23 13 13 12 16 -2 22 -10 3 -15 3 -11 0 9 -9
-23 -45 -34 -39 -5 3 -6 10 -2 15 3 5 -13 0 -35 -12 -26 -13 -38 -25 -34 -32
12 -19 10 -54 -3 -54 -7 0 -10 6 -7 14 3 7 0 13 -5 13 -6 0 -12 -10 -14 -22
-3 -20 -9 -23 -43 -23 -46 0 -65 -10 -65 -31 0 -8 -4 -13 -8 -10 -5 3 -24 -10
-42 -29 -18 -19 -36 -32 -40 -30 -3 2 -12 -1 -20 -7 -12 -8 -12 -9 2 -4 28 8
30 -10 3 -22 -15 -7 -25 -8 -25 -2 0 6 -9 1 -20 -10 -12 -12 -18 -25 -15 -30
4 -6 2 -10 -3 -10 -6 0 -8 -10 -5 -22 4 -22 3 -22 -11 2 l-16 25 4 -27 c3 -15
0 -30 -6 -34 -5 -4 -8 2 -6 13 8 49 -1 41 -196 -153 -183 -184 -152 -148 -390
-446 -11 -14 -28 -36 -36 -49 -8 -12 -40 -56 -71 -98 -133 -181 -226 -324
-492 -756 -88 -143 -177 -286 -198 -317 -22 -31 -39 -59 -39 -61 0 -4 -216
-329 -297 -447 -220 -321 -548 -651 -827 -830 -94 -60 -92 -60 -241 -133 -400
-199 -779 -286 -1240 -285 -191 1 -295 11 -470 45 -11 2 -34 6 -52 9 -52 8
-251 69 -343 104 -174 67 -382 168 -570 277 -108 63 -398 252 -426 278 -6 5
-22 18 -35 27 -13 10 -89 66 -168 125 -79 60 -156 117 -171 128 -55 41 -155
115 -165 123 -16 13 -167 120 -288 205 -203 142 -480 322 -612 399 -119 70
-386 208 -400 208 -4 0 -31 11 -61 25 -30 14 -57 25 -60 25 -3 0 -20 6 -37 14
-79 36 -411 144 -487 160 -14 3 -40 9 -57 15 -18 5 -33 8 -33 5 0 -3 -9 0 -19
5 -10 6 -36 13 -57 16 -61 9 -75 11 -134 23 -63 13 -101 18 -185 27 -33 4 -76
9 -95 12 -19 2 -161 6 -315 7 -280 4 -496 -11 -675 -44 -36 -7 -85 -14 -110
-16 -25 -2 -54 -8 -65 -14 -11 -5 -58 -16 -105 -25 -47 -9 -96 -20 -110 -25
-14 -5 -59 -18 -100 -30 -94 -27 -247 -78 -280 -92 -28 -12 -47 -20 -107 -42
-227 -84 -609 -295 -813 -448 -223 -168 -288 -224 -480 -417 -176 -177 -354
-386 -493 -580 -134 -187 -396 -592 -512 -789 -5 -10 -20 -33 -31 -52 -12 -19
-74 -123 -139 -230 -121 -200 -322 -501 -446 -670 -132 -178 -166 -232 -220
-341 -108 -219 -100 -449 22 -629 91 -134 248 -231 398 -246 25 -3 62 -7 81
-9 19 -2 76 5 127 16 233 47 412 193 673 549 97 132 384 562 445 667 15 25
111 178 161 255 24 37 44 70 44 73 0 3 20 36 43 73 24 37 68 105 97 152 374
598 698 969 1051 1205 46 30 89 60 96 65 16 13 203 108 268 137 264 116 582
201 855 228 30 3 73 8 95 10 54 6 373 7 405 1 14 -2 52 -7 85 -11 33 -3 67 -8
75 -10 8 -2 37 -6 63 -10 128 -16 381 -90 554 -164 114 -48 315 -151 462 -236
59 -35 324 -210 391 -258 36 -26 74 -54 85 -62 22 -16 424 -315 468 -348 36
-27 139 -101 237 -168 41 -29 77 -55 80 -59 17 -22 443 -304 526 -349 22 -11
62 -34 89 -51 89 -54 426 -217 555 -268 244 -97 584 -195 755 -218 28 -3 52
-8 55 -9 3 -2 37 -7 75 -10 39 -4 72 -8 75 -10 39 -24 832 -24 870 0 3 2 32 6
65 9 57 6 84 10 235 36 116 20 378 83 475 114 217 71 271 90 280 97 5 5 15 9
22 9 7 0 35 9 61 21 26 12 69 31 97 43 174 75 441 224 580 323 122 87 178 128
189 138 6 6 49 42 96 80 173 143 375 343 505 500 28 33 52 62 55 65 24 24 179
226 253 330 70 99 263 398 362 560 209 345 256 421 397 640 186 288 328 485
463 645 54 64 271 284 320 325 112 93 239 185 320 232 31 18 71 41 88 52 78
46 224 114 367 171 52 21 118 47 145 60 28 12 71 30 97 41 27 10 48 22 48 27
0 4 5 7 11 7 6 0 47 21 91 48 172 101 324 299 353 457 30 165 10 270 -81 436
-41 76 -209 190 -314 214 -3 1 -22 6 -43 12 -65 20 -259 13 -382 -13z m-322
-110 c-7 -3 -10 -11 -7 -18 3 -7 -7 -18 -21 -24 -33 -15 -35 -15 -35 3 0 14
45 45 65 44 6 0 5 -3 -2 -5z m-61 -85 c5 -3 2 -21 -7 -40 l-15 -34 6 38 c4 24
2 37 -5 37 -6 0 -8 7 -4 17 5 14 8 14 11 2 3 -7 9 -17 14 -20z m-70 -101 c-7
-7 -12 -8 -12 -2 0 6 3 14 7 17 3 4 9 5 12 2 2 -3 -1 -11 -7 -17z m-192 -5 c0
-5 -5 -15 -10 -23 -8 -12 -10 -11 -10 8 0 12 5 22 10 22 6 0 10 -3 10 -7z
m-160 -133 c0 -16 -4 -30 -8 -30 -5 0 -7 14 -4 30 2 17 6 30 8 30 2 0 4 -13 4
-30z m-485 -210 c3 -5 1 -10 -5 -10 -6 0 -8 -4 -5 -10 3 -6 -1 -7 -10 -4 -11
5 -14 2 -9 -10 7 -18 -4 -20 -26 -6 -10 6 -11 10 -2 10 6 0 11 6 10 13 -2 7 5
11 16 9 11 -2 15 1 11 7 -3 6 -2 11 4 11 5 0 13 -4 16 -10z m-49 -65 c-2 -5
-10 -9 -18 -9 -10 1 -14 -5 -11 -16 3 -10 -2 -20 -13 -24 -14 -5 -15 -4 -5 8
9 11 9 16 0 22 -7 4 -10 3 -7 -2 3 -5 -1 -16 -10 -24 -14 -13 -15 -12 -9 3 4
10 2 17 -5 17 -7 0 -6 5 2 15 7 8 17 12 24 8 6 -3 8 -3 4 2 -4 4 -3 14 3 21 8
10 15 11 30 1 10 -6 17 -16 15 -22z m-149 -87 c-2 -12 -10 -24 -18 -26 -11 -3
-11 -1 1 7 12 8 12 11 1 11 -11 0 -11 3 -1 15 17 20 20 19 17 -7z m73 -9 c-12
-16 -24 -28 -27 -25 -7 6 27 56 39 56 5 0 0 -14 -12 -31z"/>
<path d="M56970 60310 c0 -5 -8 -10 -17 -10 -15 0 -16 -2 -3 -10 14 -9 7 -15
-14 -11 -5 1 -4 -5 4 -13 15 -19 21 -20 18 -5 -2 6 3 14 11 17 9 3 11 0 6 -8
-6 -9 -4 -11 4 -5 9 5 9 11 3 17 -6 6 -8 17 -5 24 3 8 2 14 -1 14 -3 0 -6 -4
-6 -10z"/>
<path d="M56871 60244 c0 -11 3 -14 6 -6 3 7 2 16 -1 19 -3 4 -6 -2 -5 -13z"/>
<path d="M56801 60234 c0 -11 3 -14 6 -6 3 7 2 16 -1 19 -3 4 -6 -2 -5 -13z"/>
<path d="M56200 59896 c0 -2 7 -7 16 -10 8 -3 12 -2 9 4 -6 10 -25 14 -25 6z"/>
<path d="M52390 58800 c-13 -8 -12 -10 3 -10 9 0 17 5 17 10 0 12 -1 12 -20 0z"/>
<path d="M52330 58770 c0 -5 5 -10 10 -10 6 0 10 5 10 10 0 6 -4 10 -10 10 -5
0 -10 -4 -10 -10z"/>
<path d="M50010 58760 c-19 -5 -48 -12 -63 -17 l-28 -8 31 -12 c27 -10 30 -10
20 3 -10 11 -9 14 3 14 28 0 46 -11 40 -26 -5 -14 23 -31 34 -20 3 3 1 17 -5
31 -11 23 -10 25 13 25 14 0 25 5 25 10 0 11 -19 11 -70 0z m30 -50 c0 -5 -4
-10 -10 -10 -5 0 -10 5 -10 10 0 6 5 10 10 10 6 0 10 -4 10 -10z"/>
<path d="M50210 58742 c-19 -1 -42 -6 -50 -9 -8 -3 -19 -5 -23 -4 -4 0 -10 -6
-14 -14 -5 -14 -8 -14 -27 2 -21 18 -21 18 -4 -3 12 -14 14 -24 8 -30 -7 -7
-7 -11 2 -12 36 -3 69 -9 75 -15 3 -4 16 -7 28 -7 11 0 27 -6 34 -12 8 -7 11
-8 8 -2 -3 6 0 11 8 11 8 0 12 -4 9 -9 -3 -4 -2 -8 3 -9 4 0 15 -2 23 -4 8 -2
25 -6 38 -9 13 -3 31 -7 40 -10 9 -3 33 -8 52 -11 53 -8 93 -16 114 -22 14 -4
16 -2 10 8 -6 11 -5 12 7 2 25 -20 142 -36 369 -48 184 -10 241 -9 251 6 7 11
9 11 9 0 0 -11 19 -12 103 -7 193 12 222 14 262 22 22 4 45 7 51 6 6 -1 9 10
6 27 -2 16 1 32 7 35 18 11 13 26 -9 26 -31 0 -74 -31 -58 -41 11 -7 11 -9 0
-9 -14 0 -42 24 -42 36 0 3 10 15 22 25 l21 19 -29 -3 c-17 -2 -35 -7 -42 -11
-7 -4 -17 -4 -24 0 -7 5 -9 2 -6 -7 4 -11 -4 -13 -40 -10 -42 3 -45 2 -33 -13
15 -18 13 -19 -43 -16 -23 1 -42 -4 -47 -12 -6 -10 -13 -10 -26 -2 -27 17 -28
42 -1 47 13 3 -4 3 -36 1 -32 -2 -65 -9 -72 -15 -7 -5 -40 -12 -74 -15 -34 -3
-73 -9 -87 -15 -24 -9 -25 -8 -21 16 5 24 3 25 -41 24 -42 -1 -43 -2 -16 -9
l30 -8 -27 -1 c-16 0 -28 -6 -28 -12 0 -13 -51 -3 -60 11 -3 5 -4 29 -2 54 4
42 6 45 35 49 27 3 25 4 -10 5 l-43 2 0 -40 c0 -37 -2 -40 -29 -40 -16 0 -43
-3 -60 -6 -29 -6 -31 -5 -31 23 l0 30 -97 3 c-169 5 -243 1 -298 -15 -67 -19
-68 -19 -55 5 6 11 17 20 25 20 18 0 20 16 3 22 -7 2 -29 2 -48 0z m342 -104
c-4 -16 -7 -18 -11 -7 -3 7 -17 16 -31 17 -40 6 -37 12 7 12 37 0 41 -2 35
-22z m-28 -23 c-5 -11 -1 -14 12 -9 16 5 16 4 4 -5 -17 -12 -36 1 -26 18 10
16 16 13 10 -4z m-29 -5 c-3 -5 -12 -10 -18 -10 -7 0 -6 4 3 10 19 12 23 12
15 0z m319 -36 c3 -8 2 -12 -4 -9 -6 3 -10 10 -10 16 0 14 7 11 14 -7z"/>
<path d="M50318 58738 c17 -8 26 -8 34 0 9 9 4 12 -22 11 -33 0 -34 -1 -12
-11z"/>
<path d="M50578 58743 c12 -2 32 -2 45 0 12 2 2 4 -23 4 -25 0 -35 -2 -22 -4z"/>
<path d="M52160 58724 c0 -1 6 -7 14 -13 10 -8 16 -8 24 2 9 10 6 13 -13 13
-14 0 -25 -1 -25 -2z"/>
<path d="M52285 58719 c-4 -5 -4 -13 -1 -16 3 -4 6 0 6 8 0 11 2 11 10 -1 6
-9 10 -10 10 -3 0 17 -17 25 -25 12z"/>
<path d="M51625 58703 c-20 -15 -19 -15 5 -9 14 3 29 6 33 6 5 0 5 5 2 10 -8
14 -16 12 -40 -7z"/>
<path d="M52241 58703 c0 -11 3 -13 6 -5 2 6 10 9 15 6 7 -4 8 -2 4 4 -11 18
-26 14 -25 -5z"/>
<path d="M52098 58703 c6 -3 10 -8 8 -12 -3 -4 1 -8 8 -8 22 0 14 23 -8 24
-12 1 -15 -1 -8 -4z"/>
<path d="M50060 58688 c0 -4 4 -8 9 -8 6 0 12 4 15 8 3 5 -1 9 -9 9 -8 0 -15
-4 -15 -9z"/>
<path d="M52200 58690 c0 -6 -14 -8 -32 -5 -18 4 -30 3 -27 0 11 -11 50 -14
71 -6 18 7 19 9 5 14 -10 4 -17 2 -17 -3z"/>
<path d="M51855 58653 c-4 -13 -12 -23 -17 -23 -6 0 -7 7 -4 16 5 13 1 14 -27
8 -17 -4 -40 -8 -49 -8 -9 0 -14 -5 -10 -11 3 -5 -1 -4 -10 3 -13 10 -17 10
-20 0 -4 -11 -8 -11 -21 0 -13 11 -15 11 -13 -2 1 -9 6 -19 11 -23 4 -4 5 -2
0 6 -5 10 -4 12 4 7 20 -13 1 -26 -39 -26 -39 0 -60 -14 -44 -30 5 -5 27 -5
49 0 22 4 65 11 95 14 32 4 58 13 63 22 4 8 12 12 17 9 11 -7 33 32 26 48 -2
7 -8 2 -11 -10z"/>
<path d="M52086 58658 c3 -5 10 -6 15 -3 13 9 11 12 -6 12 -8 0 -12 -4 -9 -9z"/>
<path d="M52128 58663 c7 -3 16 -2 19 1 4 3 -2 6 -13 5 -11 0 -14 -3 -6 -6z"/>
<path d="M51896 58638 c3 -4 2 -13 -2 -19 -5 -8 -8 -8 -14 0 -5 9 -11 7 -21
-5 -13 -16 -11 -17 26 -10 22 4 41 9 43 10 7 8 -11 33 -23 33 -8 0 -12 -4 -9
-9z"/>
<path d="M51970 58641 c0 -5 -10 -7 -22 -4 -18 4 -20 3 -12 -6 8 -8 24 -10 50
-5 32 6 35 8 19 15 -27 10 -35 11 -35 0z"/>
<path d="M52030 58639 c0 -5 5 -7 10 -4 6 3 10 8 10 11 0 2 -4 4 -10 4 -5 0
-10 -5 -10 -11z"/>
<path d="M42498 57999 c6 -9 9 -19 5 -22 -3 -4 -1 -7 5 -7 7 0 12 5 12 11 0 5
4 8 8 5 5 -3 9 1 9 9 0 10 -4 12 -12 5 -7 -6 -16 -5 -25 3 -12 10 -12 9 -2 -4z"/>
<path d="M42385 57970 c3 -5 8 -10 11 -10 2 0 4 5 4 10 0 6 -5 10 -11 10 -5 0
-7 -4 -4 -10z"/>
<path d="M42385 57918 c-14 -30 -40 -38 -32 -9 6 26 -11 24 -27 -2 -8 -13 -7
-20 4 -27 8 -5 10 -10 4 -10 -6 0 -17 7 -24 15 -7 8 -19 15 -27 15 -8 0 -11 5
-7 12 5 8 2 9 -10 5 -10 -4 -20 -7 -22 -7 -3 0 7 -16 23 -36 l27 -37 -24 8
c-13 4 -30 14 -38 21 -18 18 -32 18 -32 -1 0 -8 4 -15 9 -15 5 0 12 -7 15 -16
5 -13 1 -14 -27 -9 -17 4 -35 13 -39 19 -7 11 -12 1 -9 -17 1 -5 -4 -7 -11 -5
-7 3 -13 10 -13 17 0 13 -24 31 -42 31 -17 0 -16 -16 0 -32 12 -10 11 -16 -5
-32 -10 -11 -18 -25 -18 -30 0 -6 7 -2 15 8 15 20 15 20 30 0 19 -25 19 -34
-1 -34 -8 0 -12 5 -9 10 9 14 -8 13 -23 -2 -9 -9 -12 -9 -12 0 0 7 -16 12 -41
12 -25 0 -38 -4 -34 -10 4 -6 10 -8 15 -5 5 3 14 -4 20 -15 9 -17 8 -20 -9
-20 -32 0 -71 18 -71 33 0 10 -13 13 -45 12 -42 -2 -79 -15 -42 -15 23 0 21
-17 -3 -23 -11 -3 -18 0 -17 6 1 6 -13 11 -30 13 -18 1 -33 -2 -33 -7 0 -5 -8
-9 -17 -9 -14 0 -15 -2 -4 -9 9 -6 10 -11 2 -15 -6 -4 -11 -18 -11 -31 0 -27
-15 -42 -23 -22 -3 6 -19 20 -37 31 -32 18 -32 18 -26 -2 6 -17 2 -21 -21 -25
-23 -3 -21 -4 10 -6 33 -1 37 -4 37 -28 -1 -25 -2 -26 -14 -10 -18 23 -24 22
-22 -5 1 -27 -17 -34 -37 -13 -9 8 -20 15 -26 15 -6 0 -11 9 -11 21 0 11 -4
17 -10 14 -6 -4 -18 -1 -26 6 -11 9 -18 9 -26 1 -8 -8 -6 -13 8 -19 24 -10 30
-53 8 -53 -10 0 -14 -6 -11 -14 7 -18 -18 -42 -28 -26 -8 12 -25 13 -25 1 0
-5 7 -16 15 -25 8 -8 15 -17 15 -20 0 -11 -49 -6 -62 7 -15 14 -68 19 -68 6 0
-5 5 -9 10 -9 6 0 10 -4 10 -9 0 -13 -37 -20 -48 -9 -14 14 -32 1 -25 -17 3
-8 0 -15 -6 -15 -6 0 -11 4 -11 9 0 5 -11 11 -24 13 l-24 5 19 -34 c25 -45 24
-51 -6 -23 -25 24 -30 20 -26 -22 2 -14 -4 -16 -36 -11 -21 3 -43 10 -50 15
-7 6 -14 5 -18 -3 -4 -6 -1 -15 6 -20 7 -4 11 -11 8 -14 -8 -8 -39 5 -39 17 0
5 -4 6 -10 3 -6 -4 -4 -15 6 -30 11 -17 12 -25 3 -30 -6 -4 -15 -2 -19 6 -7
10 -11 10 -24 0 -9 -7 -14 -17 -11 -21 3 -5 -3 -6 -14 -3 -21 5 -37 -12 -21
-22 5 -3 10 -12 10 -18 0 -7 -5 -4 -11 6 -5 9 -17 17 -25 17 -13 0 -13 -3 0
-22 20 -28 20 -39 1 -32 -8 4 -15 11 -15 18 0 6 -17 12 -38 13 l-37 3 25 -20
25 -20 -55 6 c-50 7 -54 6 -41 -9 11 -15 11 -17 -2 -17 -9 0 -19 5 -22 11 -4
6 -13 8 -20 5 -8 -3 -19 2 -25 10 -20 24 -33 16 -26 -16 6 -32 -4 -39 -24 -15
-7 8 -17 15 -22 15 -6 0 -6 -5 1 -14 9 -11 6 -12 -16 -9 -22 4 -25 2 -13 -6
12 -8 9 -10 -12 -7 -15 1 -34 9 -43 16 -15 12 -15 11 -4 -14 11 -24 11 -29 -4
-37 -9 -6 -17 -17 -17 -24 0 -18 -26 -20 -33 -2 -4 9 -6 9 -6 -1 -1 -7 4 -22
9 -33 9 -16 7 -19 -15 -19 -14 0 -25 5 -25 10 0 6 -12 10 -27 10 -21 0 -24 -3
-15 -12 23 -23 12 -31 -33 -25 -38 6 -43 4 -38 -9 5 -13 2 -15 -17 -9 -19 6
-22 4 -17 -10 4 -9 7 -19 7 -21 0 -3 5 -2 10 1 12 8 13 -5 1 -24 -7 -11 -12
-10 -27 8 -21 24 -39 28 -31 7 3 -8 -1 -17 -9 -20 -12 -4 -14 -1 -9 14 4 11 2
20 -4 20 -14 0 -14 -37 0 -45 5 -4 8 -12 6 -18 -2 -7 5 -17 17 -24 12 -7 15
-12 8 -13 -7 0 -10 -4 -7 -10 10 -17 0 -11 -31 15 -16 14 -35 23 -42 20 -8 -3
-17 -5 -21 -5 -4 0 -7 -9 -7 -20 0 -11 5 -20 10 -20 5 0 6 -3 3 -7 -4 -3 -18
4 -32 17 -32 30 -35 5 -3 -35 l21 -27 -34 7 c-19 4 -35 11 -37 16 -2 5 -10 9
-17 9 -7 0 -15 6 -18 13 -2 6 -8 9 -12 5 -9 -9 3 -44 21 -63 14 -13 14 -15 0
-15 -21 0 -9 -28 15 -35 10 -4 19 -11 19 -17 0 -5 -7 -8 -15 -5 -8 4 -17 2
-21 -4 -3 -6 -12 -3 -20 8 -14 17 -14 17 -12 -2 2 -11 14 -23 28 -27 14 -4 5
-5 -20 -2 -25 3 -55 6 -67 6 -13 0 -23 6 -23 15 0 8 -4 12 -9 9 -5 -4 -21 -2
-35 3 -21 9 -24 8 -19 -7 6 -16 5 -16 -13 -1 -47 40 -49 37 -26 -31 4 -12 2
-13 -9 -2 -27 25 -29 11 -4 -34 20 -36 22 -45 10 -40 -9 3 -19 6 -21 6 -2 0
-4 6 -4 14 0 8 -13 16 -30 18 -28 4 -36 -4 -31 -34 0 -4 -13 -2 -30 4 -16 6
-32 8 -35 5 -9 -8 27 -37 47 -37 12 0 19 -7 19 -18 0 -10 5 -23 12 -30 9 -9 9
-12 0 -12 -7 0 -12 5 -12 10 0 6 -7 10 -15 10 -19 0 -19 -9 2 -32 14 -16 15
-18 0 -18 -9 0 -19 5 -22 10 -3 6 -15 10 -26 10 -10 0 -19 4 -19 9 0 5 -9 11
-19 14 -16 4 -20 -1 -23 -26 -3 -35 -27 -49 -34 -21 -6 21 -54 61 -54 45 0 -6
14 -30 31 -54 22 -32 29 -51 24 -66 -7 -23 -25 -27 -43 -9 -17 17 -15 2 4 -27
18 -27 13 -31 -16 -15 -10 6 -21 6 -24 1 -6 -10 42 -34 54 -26 5 3 11 -1 13
-7 4 -10 8 -9 16 2 6 8 11 10 11 5 0 -17 37 -35 92 -42 113 -16 350 -7 438 17
19 5 71 18 115 30 171 45 376 115 514 177 258 114 482 241 671 378 15 11 40
29 56 40 16 11 31 22 34 25 3 3 28 23 55 45 153 121 365 323 505 480 95 107
229 281 225 293 -3 7 -1 11 4 8 5 -3 27 19 49 49 23 30 37 57 33 60 -5 2 -14
-2 -21 -10 -7 -8 -17 -12 -23 -8 -5 3 -7 1 -4 -4 4 -6 0 -13 -8 -17 -17 -6
-29 9 -19 26 4 6 3 8 -4 4 -5 -3 -12 -2 -14 4 -2 6 -8 0 -13 -12z m105 8 c0
-2 -8 -10 -17 -17 -16 -13 -17 -12 -4 4 13 16 21 21 21 13z m-206 -125 c3 -4
-6 -6 -19 -3 -14 2 -25 6 -25 8 0 8 39 4 44 -5z m-415 -108 c-12 -15 -12 -16
3 -11 10 4 19 1 22 -8 6 -15 2 -17 -31 -8 -27 7 -30 29 -6 43 24 13 29 5 12
-16z m-89 -44 c0 -6 -4 -7 -10 -4 -5 3 -10 11 -10 16 0 6 5 7 10 4 6 -3 10
-11 10 -16z m-186 -75 c9 -22 8 -24 -9 -18 -8 4 -15 12 -15 20 0 19 16 18 24
-2z m-179 -94 c-3 -5 -11 -10 -16 -10 -6 0 -7 5 -4 10 3 6 11 10 16 10 6 0 7
-4 4 -10z m-1210 -670 c3 -6 -1 -7 -9 -4 -18 7 -21 14 -7 14 6 0 13 -4 16 -10z
m-18 -16 c-3 -3 -12 -4 -19 -1 -8 3 -5 6 6 6 11 1 17 -2 13 -5z m-319 -148
c-7 -8 -15 -12 -17 -11 -5 6 10 25 20 25 5 0 4 -6 -3 -14z m152 -41 c14 -19
14 -19 -2 -6 -10 7 -18 18 -18 24 0 6 1 8 3 6 1 -2 9 -13 17 -24z m-250 -105
c0 -5 -7 -7 -15 -4 -8 4 -15 8 -15 10 0 2 7 4 15 4 8 0 15 -4 15 -10z m-52
-73 c2 -12 -3 -17 -17 -17 -23 0 -24 1 -15 25 8 19 28 15 32 -8z"/>
<path d="M41984 57828 c-7 -12 15 -38 32 -38 7 0 18 9 23 19 9 16 6 19 -20 23
-16 3 -32 1 -35 -4z"/>
<path d="M41448 57593 c7 -3 16 -2 19 1 4 3 -2 6 -13 5 -11 0 -14 -3 -6 -6z"/>
<path d="M39875 56700 c3 -5 8 -10 11 -10 2 0 4 5 4 10 0 6 -5 10 -11 10 -5 0
-7 -4 -4 -10z"/>
<path d="M39581 56461 c-8 -14 -7 -20 2 -24 7 -3 12 5 12 19 0 29 -1 29 -14 5z"/>
<path d="M39605 56460 c-3 -5 -1 -10 4 -10 6 0 11 5 11 10 0 6 -2 10 -4 10 -3
0 -8 -4 -11 -10z"/>
<path d="M47099 54536 c-2 -2 -47 -7 -99 -10 -253 -17 -613 -82 -814 -146 -17
-5 -69 -21 -116 -35 -530 -160 -1104 -502 -1475 -879 -160 -162 -262 -333
-289 -481 -10 -52 -8 -168 4 -225 32 -167 182 -332 355 -396 219 -79 456 -35
700 129 60 40 84 57 275 203 58 44 137 100 175 126 75 49 242 148 251 148 2 0
41 18 87 39 83 39 257 107 312 122 17 4 71 19 120 32 103 28 276 64 350 72 28
3 88 10 134 16 144 17 435 14 566 -7 105 -16 262 -47 275 -53 8 -5 49 -16 90
-26 142 -34 443 -161 623 -264 20 -11 52 -29 70 -39 137 -79 407 -261 627
-423 455 -337 675 -439 946 -439 127 0 194 15 314 68 187 84 304 254 314 456
6 104 -53 268 -132 366 -64 81 -214 222 -312 295 -70 52 -186 141 -199 153 -7
7 -39 31 -70 53 -31 22 -103 73 -161 114 -282 200 -659 444 -835 540 -122 66
-366 185 -380 185 -3 0 -26 9 -51 20 -113 52 -440 161 -554 185 -14 3 -63 14
-110 25 -47 11 -103 22 -125 25 -22 3 -51 8 -65 10 -61 11 -89 14 -270 32 -60
5 -526 13 -531 9z"/>
<path d="M29093 46529 c1 -7 -33 -29 -75 -51 -56 -28 -105 -44 -185 -58 -59
-11 -137 -31 -173 -45 -36 -14 -106 -37 -157 -50 -51 -13 -109 -36 -130 -50
-21 -13 -66 -35 -99 -48 -132 -52 -399 -232 -510 -344 -67 -68 -196 -249 -241
-338 -11 -22 -50 -97 -86 -167 -36 -70 -68 -137 -72 -150 -4 -13 -49 -108
-100 -213 -51 -104 -96 -201 -100 -215 -4 -14 -20 -46 -36 -71 -16 -25 -38
-72 -49 -104 -11 -32 -30 -75 -41 -94 -12 -20 -34 -68 -50 -108 -16 -40 -39
-90 -52 -111 -13 -20 -27 -48 -31 -62 -4 -14 -50 -111 -102 -217 -52 -105 -94
-195 -94 -200 0 -4 -20 -48 -44 -98 -58 -117 -156 -331 -156 -341 0 -4 -13
-28 -30 -54 -16 -26 -39 -72 -49 -103 -11 -30 -33 -82 -49 -114 -52 -100 -130
-267 -138 -293 -3 -14 -24 -54 -45 -89 -21 -35 -44 -80 -50 -100 -6 -20 -26
-63 -44 -96 -18 -33 -36 -71 -40 -85 -4 -14 -24 -61 -45 -105 -21 -44 -63
-132 -94 -196 -31 -64 -56 -121 -56 -126 0 -5 -13 -29 -28 -54 -15 -24 -34
-60 -41 -79 -16 -41 -108 -237 -155 -330 -19 -36 -37 -76 -41 -90 -3 -14 -27
-68 -52 -120 -25 -52 -62 -131 -83 -175 -21 -44 -63 -132 -93 -195 -31 -63
-59 -126 -63 -140 -3 -14 -21 -52 -39 -85 -19 -33 -41 -80 -51 -105 -10 -25
-28 -61 -40 -80 -13 -19 -30 -55 -38 -80 -9 -25 -34 -81 -55 -125 -22 -44 -63
-132 -91 -195 -58 -131 -143 -308 -172 -360 -10 -19 -26 -53 -35 -75 -10 -22
-36 -76 -59 -120 -22 -45 -48 -103 -58 -130 -9 -28 -28 -70 -42 -95 -14 -25
-37 -73 -50 -108 -13 -35 -33 -76 -44 -92 -12 -16 -30 -55 -41 -87 -11 -32
-31 -75 -44 -95 -23 -35 -62 -117 -140 -300 -18 -42 -42 -90 -54 -107 -12 -17
-30 -54 -40 -84 -10 -29 -35 -85 -54 -123 -59 -115 -115 -236 -137 -293 -12
-30 -32 -73 -46 -96 -13 -24 -35 -70 -49 -104 -13 -33 -33 -74 -45 -90 -11
-17 -30 -56 -40 -87 -11 -31 -33 -77 -48 -103 -16 -25 -39 -72 -51 -105 -12
-32 -33 -77 -46 -100 -13 -22 -34 -68 -46 -101 -12 -33 -32 -76 -44 -95 -12
-19 -31 -60 -43 -91 -11 -31 -37 -86 -56 -123 -20 -37 -36 -73 -36 -80 0 -7
-16 -39 -36 -72 -20 -32 -44 -81 -54 -109 -9 -27 -38 -90 -64 -138 -25 -48
-46 -94 -46 -101 0 -7 -18 -42 -39 -78 -48 -78 -55 -104 -47 -163 l7 -45 1008
0 1008 0 12 71 c7 39 27 97 43 128 17 31 39 80 49 110 11 30 33 75 49 101 16
26 39 71 49 101 11 30 53 121 95 202 41 82 80 165 87 185 6 21 28 69 49 107
21 39 41 81 45 95 4 14 22 54 40 90 17 36 37 81 44 101 6 20 26 60 44 90 18
30 38 70 46 89 14 38 93 206 147 312 19 37 44 93 56 125 11 32 31 74 43 93 12
19 25 46 29 60 4 14 30 72 58 130 178 371 216 451 233 500 9 24 29 65 45 90
17 26 38 72 49 102 10 31 31 73 45 94 14 22 32 59 41 84 9 25 30 72 47 104 16
33 39 85 49 115 11 31 31 73 45 95 14 21 37 68 50 104 14 36 34 78 44 92 11
15 29 53 41 86 12 32 35 80 51 105 15 25 35 66 43 90 16 45 61 142 141 304 24
50 44 94 44 100 0 10 73 165 136 287 19 37 43 91 53 120 10 29 35 80 55 112
20 33 36 66 36 74 0 8 18 50 40 94 23 44 50 101 60 129 11 27 31 66 45 87 14
21 32 62 41 92 9 30 28 75 43 100 15 25 33 61 41 80 7 19 30 69 51 110 20 41
42 91 48 111 6 19 27 59 46 89 19 30 38 64 41 75 8 29 99 228 143 315 21 41
44 93 51 115 7 22 25 63 41 91 16 28 36 71 44 95 9 24 31 69 49 99 18 30 39
73 46 95 7 22 28 67 46 100 18 33 42 85 55 115 13 30 33 71 44 90 12 19 30 60
40 90 9 30 28 72 41 93 13 20 33 60 44 87 11 27 34 78 51 112 17 34 37 80 45
101 8 22 29 65 48 96 18 31 39 74 46 96 14 46 125 278 150 315 10 14 25 50 35
80 9 30 28 72 42 94 14 21 37 68 52 105 43 106 119 205 278 366 169 171 194
187 353 221 133 30 255 31 386 4 151 -31 191 -54 314 -179 212 -214 233 -246
374 -542 25 -53 46 -103 46 -112 0 -9 17 -49 38 -89 21 -40 44 -89 51 -108 13
-34 44 -101 145 -311 25 -53 46 -104 46 -112 0 -9 18 -50 39 -92 22 -42 45
-93 52 -113 6 -20 25 -64 42 -97 16 -33 38 -84 48 -114 11 -30 33 -75 49 -101
16 -26 38 -71 49 -101 19 -55 59 -143 136 -304 24 -49 47 -103 51 -120 4 -16
27 -67 51 -113 23 -46 43 -90 43 -99 0 -8 18 -48 40 -88 22 -40 40 -79 40 -87
0 -8 20 -53 44 -100 25 -48 51 -109 59 -136 9 -27 27 -68 41 -91 14 -22 37
-69 50 -105 13 -35 35 -81 49 -103 14 -22 32 -64 41 -93 9 -29 29 -76 44 -104
16 -28 35 -69 42 -91 7 -22 33 -80 57 -129 23 -49 43 -96 43 -104 0 -8 20 -53
44 -101 67 -131 132 -271 147 -316 6 -22 25 -61 41 -86 16 -26 36 -71 44 -100
9 -30 31 -81 49 -114 18 -33 38 -78 45 -100 7 -22 30 -76 52 -119 21 -44 38
-85 38 -91 0 -6 18 -41 40 -79 22 -38 47 -94 56 -125 9 -31 28 -76 43 -101 15
-25 38 -72 51 -105 13 -33 33 -78 46 -100 12 -22 29 -62 37 -90 8 -27 36 -89
61 -138 25 -48 46 -95 46 -104 0 -8 18 -48 40 -88 22 -40 40 -79 40 -86 0 -8
16 -45 36 -84 20 -38 44 -94 55 -124 11 -30 33 -80 50 -110 17 -30 40 -80 51
-111 10 -30 29 -71 42 -90 12 -19 31 -60 41 -90 10 -30 35 -89 55 -130 21 -41
41 -86 45 -100 4 -14 22 -54 40 -90 17 -36 40 -88 49 -116 9 -28 30 -72 46
-97 16 -25 36 -67 45 -94 8 -26 31 -79 50 -118 65 -132 135 -288 135 -301 0
-7 18 -47 39 -89 22 -42 45 -93 51 -113 11 -36 84 -193 137 -297 14 -27 36
-81 49 -119 13 -38 37 -90 53 -115 16 -25 37 -68 46 -95 9 -28 31 -81 50 -118
18 -38 39 -100 46 -138 l12 -70 1017 0 1018 0 6 31 c11 58 6 78 -48 186 -30
59 -64 131 -75 160 -11 29 -34 76 -50 105 -16 29 -33 70 -36 90 -4 21 -23 64
-42 95 -19 32 -46 85 -58 118 -13 33 -39 91 -59 128 -20 38 -36 75 -36 83 0 8
-17 47 -39 87 -21 40 -42 86 -45 102 -4 17 -24 66 -45 110 -78 160 -129 271
-136 295 -4 14 -27 61 -50 105 -24 44 -48 98 -55 120 -7 22 -24 58 -38 79 -13
22 -35 71 -48 110 -13 39 -37 96 -53 126 -16 30 -34 73 -41 95 -7 22 -25 63
-41 90 -15 28 -37 75 -49 105 -12 30 -34 75 -50 100 -15 25 -35 69 -44 98 -8
29 -29 77 -46 107 -17 29 -39 79 -50 111 -11 32 -29 72 -39 89 -10 17 -28 58
-40 91 -12 32 -37 84 -55 114 -19 30 -41 79 -50 108 -8 29 -28 77 -44 105 -17
29 -35 70 -42 92 -7 22 -23 59 -37 83 -14 24 -35 73 -48 110 -12 37 -39 93
-59 126 -19 32 -40 75 -46 95 -6 20 -26 68 -45 106 -66 135 -133 290 -140 321
-3 18 -20 54 -37 80 -17 27 -39 73 -49 103 -11 30 -32 78 -47 105 -16 28 -39
78 -52 111 -13 33 -35 78 -48 99 -13 21 -32 62 -42 91 -10 28 -32 78 -49 111
-17 33 -38 84 -47 113 -8 29 -28 74 -44 99 -16 26 -32 61 -35 77 -4 17 -27 66
-50 110 -23 44 -48 98 -55 120 -7 22 -25 60 -40 85 -16 25 -35 69 -44 97 -8
29 -30 81 -49 115 -20 35 -43 86 -52 113 -9 28 -27 68 -40 91 -13 22 -35 70
-49 106 -13 36 -36 83 -49 104 -14 22 -31 59 -37 84 -7 25 -29 77 -50 115 -21
39 -43 88 -50 110 -7 22 -26 66 -42 97 -15 32 -38 84 -50 115 -11 32 -32 72
-45 90 -14 18 -33 59 -44 92 -10 33 -29 77 -42 98 -13 21 -34 65 -46 98 -12
33 -35 85 -50 115 -16 30 -34 73 -41 95 -13 44 -87 205 -150 327 -22 42 -40
82 -40 90 0 7 -19 49 -41 93 -23 44 -50 104 -60 134 -10 29 -28 68 -39 86 -11
18 -29 59 -40 91 -11 32 -33 81 -49 108 -15 28 -38 80 -51 116 -13 36 -33 81
-46 100 -13 19 -32 61 -43 92 -11 31 -31 77 -45 101 -14 24 -34 68 -45 98 -10
30 -37 89 -60 132 -22 43 -41 84 -41 92 0 14 -80 181 -121 255 -11 19 -33 63
-49 97 -131 275 -372 499 -710 659 -41 19 -95 48 -120 64 -25 15 -72 33 -105
40 -33 6 -98 27 -145 45 -47 19 -134 43 -195 54 -115 22 -255 81 -255 108 0
11 -137 13 -775 13 -576 0 -774 -3 -772 -11z"/>
<path d="M65280 46527 c0 -7 -32 -30 -70 -50 -53 -28 -99 -42 -184 -57 -62
-11 -144 -33 -183 -49 -39 -16 -103 -36 -143 -45 -73 -17 -122 -37 -150 -62
-9 -7 -45 -24 -80 -38 -64 -24 -204 -105 -350 -203 -125 -85 -301 -284 -376
-428 -17 -33 -61 -115 -97 -182 -36 -68 -71 -140 -77 -160 -7 -21 -29 -72 -50
-113 -21 -41 -64 -129 -95 -195 -31 -66 -76 -160 -100 -210 -106 -221 -124
-262 -130 -285 -4 -14 -24 -59 -45 -100 -66 -129 -150 -306 -150 -315 0 -4
-13 -29 -29 -55 -16 -26 -41 -80 -55 -120 -15 -40 -35 -85 -45 -99 -18 -25
-66 -129 -131 -282 -16 -37 -40 -84 -54 -105 -14 -22 -34 -64 -45 -94 -18 -52
-55 -132 -138 -294 -19 -38 -44 -94 -54 -125 -11 -30 -26 -62 -34 -71 -9 -10
-31 -54 -49 -98 -19 -44 -43 -93 -53 -109 -11 -15 -30 -55 -42 -88 -12 -33
-37 -91 -55 -130 -97 -202 -116 -244 -134 -291 -11 -29 -31 -67 -46 -86 -14
-19 -35 -60 -46 -92 -10 -31 -30 -78 -44 -104 -55 -105 -134 -279 -140 -308
-4 -16 -25 -59 -46 -95 -22 -35 -40 -69 -40 -75 0 -6 -20 -51 -44 -100 -24
-49 -47 -100 -51 -114 -4 -14 -23 -51 -41 -82 -19 -31 -43 -81 -53 -110 -10
-30 -32 -78 -49 -109 -17 -30 -38 -74 -47 -98 -8 -24 -28 -65 -43 -90 -16 -25
-34 -62 -41 -81 -13 -36 -52 -120 -140 -300 -28 -58 -51 -110 -51 -116 0 -7
-40 -92 -89 -190 -49 -99 -92 -190 -96 -204 -4 -14 -23 -50 -41 -80 -18 -30
-42 -81 -53 -113 -11 -31 -31 -79 -45 -105 -45 -85 -115 -236 -135 -292 -12
-30 -34 -75 -51 -100 -16 -25 -30 -49 -30 -54 0 -11 -101 -231 -149 -326 -21
-41 -44 -93 -51 -115 -7 -22 -26 -60 -41 -85 -15 -25 -38 -72 -50 -105 -12
-33 -33 -76 -45 -95 -13 -19 -32 -61 -43 -92 -11 -31 -31 -76 -45 -100 -13
-24 -35 -70 -47 -103 -12 -33 -35 -81 -51 -107 -16 -25 -36 -68 -45 -95 -9
-26 -29 -69 -45 -95 -16 -25 -40 -73 -53 -106 -13 -32 -33 -75 -44 -94 -12
-19 -30 -61 -41 -94 -11 -32 -31 -75 -44 -94 -13 -20 -35 -68 -49 -108 -15
-39 -38 -90 -52 -112 -14 -22 -35 -63 -46 -92 -11 -28 -29 -64 -40 -79 -11
-16 -28 -52 -38 -81 -10 -29 -39 -93 -65 -141 -25 -48 -46 -93 -46 -100 0 -7
-22 -52 -50 -100 -58 -101 -64 -122 -56 -182 l7 -45 1008 0 1008 0 17 78 c10
42 38 120 63 172 25 52 67 140 93 195 26 55 53 116 61 135 7 19 20 47 30 61
10 14 27 49 38 77 11 28 34 75 50 104 17 29 37 73 46 98 8 25 33 81 55 125 48
98 126 273 134 300 3 11 22 45 41 75 19 29 42 77 51 104 9 28 28 71 43 96 15
25 33 61 41 80 7 19 30 69 50 110 21 41 43 93 50 115 7 22 27 65 45 95 18 30
36 66 40 80 7 23 44 104 145 315 105 219 130 273 144 313 8 23 28 61 44 85 16
23 35 60 42 82 7 22 27 67 44 100 18 33 40 81 50 107 9 26 35 81 57 123 21 42
39 84 39 94 0 9 17 46 38 82 22 35 47 87 57 114 11 28 28 66 40 85 12 19 27
51 35 70 7 19 35 77 62 128 26 51 48 100 48 108 0 9 18 50 39 92 59 115 118
240 140 299 12 29 32 70 45 90 14 21 32 56 39 78 8 22 38 90 67 150 28 61 72
153 97 205 24 52 59 124 77 160 19 36 39 83 46 105 7 22 25 61 41 86 16 25 38
71 48 102 11 32 31 79 45 105 42 79 134 276 141 302 4 14 24 54 46 90 21 36
45 85 54 110 9 25 28 67 44 95 15 27 34 68 41 90 7 22 25 60 40 85 15 25 35
70 45 100 9 30 34 87 55 125 20 39 43 86 50 105 8 19 27 56 42 81 16 26 37 71
47 101 10 30 30 73 43 94 13 21 30 55 37 74 13 34 71 159 151 325 68 140 140
300 140 310 0 6 15 35 34 66 18 30 43 82 55 115 12 32 37 86 55 119 19 33 37
71 41 85 4 14 20 45 35 70 15 25 31 56 35 70 12 46 158 334 189 375 60 78 262
287 320 331 75 57 101 67 227 93 129 26 249 27 375 1 160 -33 203 -59 353
-218 164 -174 199 -217 224 -271 10 -24 32 -64 47 -88 16 -25 32 -59 36 -77 3
-17 23 -65 44 -106 20 -41 43 -93 50 -115 7 -22 32 -77 56 -123 24 -46 44 -91
44 -100 0 -10 14 -40 31 -67 17 -26 42 -80 56 -119 14 -39 35 -86 48 -106 12
-19 30 -60 40 -90 9 -30 32 -82 50 -115 18 -33 40 -85 50 -115 9 -30 30 -75
45 -100 16 -25 32 -58 35 -75 4 -16 27 -66 50 -110 23 -44 46 -91 50 -105 9
-33 85 -202 141 -315 24 -49 44 -97 44 -105 0 -8 20 -55 44 -105 67 -134 116
-243 137 -304 10 -29 32 -75 48 -101 16 -27 36 -71 45 -99 8 -27 33 -85 55
-128 62 -122 119 -246 126 -278 4 -17 24 -61 45 -100 20 -38 43 -88 50 -110 7
-22 29 -74 50 -115 20 -41 43 -93 50 -115 7 -22 27 -67 45 -100 18 -33 38 -78
45 -100 7 -22 25 -61 41 -86 16 -25 38 -72 49 -103 11 -32 33 -81 49 -109 16
-29 36 -77 46 -107 10 -30 30 -77 45 -105 15 -27 33 -68 40 -90 7 -22 33 -80
57 -129 23 -49 43 -95 43 -101 0 -6 18 -41 39 -77 22 -36 43 -78 46 -94 7 -29
77 -189 141 -321 19 -39 41 -93 49 -120 8 -26 28 -69 44 -95 17 -27 40 -76 51
-110 11 -33 31 -80 44 -102 13 -23 33 -67 45 -100 12 -32 33 -78 46 -101 14
-23 34 -67 45 -99 11 -32 33 -82 50 -111 17 -29 39 -79 50 -110 11 -31 29 -72
40 -89 11 -18 31 -64 46 -102 14 -38 38 -91 54 -119 15 -27 34 -70 40 -95 7
-25 27 -74 46 -110 18 -36 40 -85 49 -110 9 -24 28 -65 44 -90 16 -25 34 -63
41 -85 7 -22 29 -74 50 -115 20 -41 43 -93 50 -115 7 -22 27 -67 45 -100 18
-33 38 -78 45 -100 7 -22 28 -69 46 -105 18 -36 42 -91 53 -123 11 -32 30 -71
41 -87 11 -16 30 -55 40 -86 11 -32 32 -77 46 -101 14 -24 34 -69 45 -100 10
-31 34 -83 53 -117 18 -34 39 -79 46 -101 7 -22 28 -71 47 -110 18 -38 33 -78
33 -89 0 -10 5 -36 12 -57 l11 -39 1013 0 1013 0 6 44 c9 60 0 93 -46 171 -23
37 -49 90 -59 119 -9 28 -31 76 -48 106 -16 30 -38 80 -47 110 -10 30 -29 73
-43 94 -13 21 -32 63 -42 92 -11 30 -34 82 -53 116 -19 35 -40 81 -47 103 -7
22 -27 67 -45 100 -18 33 -38 78 -45 100 -7 22 -26 67 -43 100 -16 33 -38 84
-48 114 -11 30 -32 75 -48 100 -16 25 -34 64 -41 86 -7 22 -30 74 -51 115 -59
115 -125 261 -139 305 -7 22 -30 74 -50 115 -21 41 -41 86 -44 100 -8 26 -66
151 -142 303 -24 48 -44 95 -44 104 0 9 -17 48 -39 87 -21 39 -44 89 -51 111
-7 22 -27 69 -45 105 -18 36 -38 83 -45 105 -7 22 -25 61 -41 86 -16 25 -38
72 -49 104 -11 32 -33 82 -49 109 -15 28 -38 78 -50 111 -12 33 -31 74 -41 92
-10 18 -30 63 -44 102 -14 39 -36 87 -49 108 -13 21 -33 64 -45 95 -12 32 -35
81 -52 111 -16 29 -39 79 -50 111 -11 32 -29 73 -40 91 -11 18 -32 66 -45 105
-13 39 -33 86 -45 104 -11 18 -31 63 -45 100 -14 36 -36 83 -50 104 -13 20
-33 62 -44 93 -10 30 -35 87 -54 125 -51 98 -105 217 -134 297 -13 38 -37 89
-53 114 -16 25 -32 59 -35 77 -6 31 -61 152 -134 296 -21 41 -46 99 -56 129
-10 30 -31 75 -46 99 -16 25 -36 68 -45 96 -18 56 -74 180 -134 296 -21 41
-43 95 -50 120 -6 25 -25 66 -41 91 -16 25 -37 70 -48 100 -20 56 -59 145
-141 314 -27 55 -52 111 -55 125 -4 14 -20 45 -35 70 -15 25 -36 70 -45 100
-10 30 -32 82 -50 115 -18 33 -41 85 -50 115 -10 30 -28 73 -41 95 -12 22 -33
67 -45 99 -12 33 -35 80 -50 104 -16 25 -35 68 -43 96 -9 28 -29 74 -47 101
-17 28 -40 73 -49 100 -10 28 -29 73 -42 100 -14 28 -33 75 -43 105 -10 30
-33 80 -51 110 -18 30 -38 75 -44 100 -6 25 -29 74 -50 110 -21 36 -43 83 -50
105 -7 22 -23 58 -36 81 -13 22 -33 67 -44 99 -11 32 -35 85 -54 119 -18 34
-37 72 -40 86 -15 52 -207 439 -266 535 -108 176 -285 340 -485 450 -27 15
-61 35 -75 45 -14 10 -54 30 -90 44 -36 15 -82 38 -103 52 -21 14 -74 34 -117
45 -44 10 -114 33 -156 50 -43 17 -124 39 -182 50 -77 13 -125 28 -181 57 -42
21 -75 44 -73 51 1 8 -195 11 -773 11 -635 0 -775 -2 -775 -13z"/>
<path d="M87135 46516 c-201 -38 -387 -117 -531 -224 -94 -70 -224 -203 -283
-291 -58 -85 -135 -249 -161 -341 -68 -246 -66 -573 7 -804 113 -363 390 -650
751 -780 148 -53 260 -70 462 -70 153 0 203 4 287 22 265 57 459 165 643 358
171 178 267 368 315 624 24 127 25 379 2 506 -89 485 -426 854 -894 976 -110
29 -132 31 -323 34 -142 2 -227 -1 -275 -10z m422 -147 c179 -24 323 -75 456
-162 315 -205 477 -525 477 -937 0 -139 -11 -228 -40 -340 -87 -337 -340 -609
-665 -714 -231 -74 -557 -76 -799 -5 -89 27 -236 102 -313 161 -139 108 -265
273 -327 431 -114 289 -110 665 9 949 116 274 373 500 662 579 166 46 374 61
540 38z"/>
<path d="M86900 45918 l-25 -14 -3 -633 c-3 -733 -12 -671 98 -671 51 0 71 4
81 17 11 12 15 72 19 247 l5 231 145 3 c86 1 155 -2 170 -8 16 -7 80 -91 180
-235 85 -123 167 -231 181 -239 18 -11 51 -16 97 -16 77 0 98 13 88 52 -3 13
-73 120 -156 238 -82 118 -150 220 -150 227 0 8 6 16 13 18 140 49 191 88 235
183 25 53 27 66 27 197 0 111 -4 151 -19 194 -35 101 -119 167 -255 198 -93
21 -694 30 -731 11z m619 -178 c148 -19 191 -69 191 -220 0 -203 -76 -243
-445 -238 l-190 3 -3 224 c-2 173 1 226 10 233 18 11 347 9 437 -2z"/>
<path d="M10870 41283 l0 -5053 874 0 874 0 7 27 c3 15 6 944 5 2065 0 1560 2
2043 11 2061 20 36 191 218 221 233 22 12 141 14 710 14 824 -1 1734 -15 1878
-30 58 -6 191 -24 295 -41 105 -16 232 -36 283 -44 50 -8 118 -26 150 -39 32
-14 96 -34 142 -46 47 -12 112 -37 145 -55 33 -18 80 -41 105 -51 25 -9 65
-31 90 -49 25 -17 66 -44 92 -59 93 -53 419 -388 634 -651 43 -53 136 -192
227 -340 30 -49 70 -114 89 -144 18 -30 57 -90 86 -133 29 -44 64 -100 78
-126 36 -68 90 -160 128 -217 79 -121 126 -195 126 -200 0 -5 76 -132 125
-210 18 -28 40 -66 50 -85 10 -19 55 -91 100 -160 45 -69 90 -141 100 -160 20
-41 73 -126 130 -214 23 -33 51 -81 64 -106 13 -24 52 -89 89 -144 36 -54 77
-122 92 -150 25 -49 72 -125 178 -291 29 -44 64 -102 78 -130 14 -27 36 -63
49 -80 23 -31 131 -211 182 -305 16 -30 36 -74 43 -97 l13 -43 1022 0 1022 0
7 38 c8 51 -7 99 -43 136 -24 26 -73 102 -161 251 -10 17 -34 57 -53 90 -20
33 -48 79 -64 103 -100 152 -125 192 -149 237 -15 28 -57 99 -93 158 -36 60
-95 157 -131 216 -36 59 -84 136 -106 171 -23 36 -56 90 -73 120 -18 30 -51
85 -74 122 -23 37 -64 102 -91 145 -27 43 -65 107 -86 143 -20 36 -47 81 -59
100 -38 58 -89 143 -112 185 -20 38 -52 89 -154 245 -23 36 -64 103 -90 150
-26 47 -71 121 -100 165 -99 152 -125 195 -125 203 0 4 -16 32 -36 62 -21 30
-65 102 -100 160 -34 58 -80 130 -101 160 -21 30 -80 120 -132 200 -154 238
-340 468 -503 625 -110 106 -314 265 -401 313 -23 13 -69 41 -102 61 -118 74
-221 129 -275 146 -30 10 -86 33 -124 52 -39 20 -111 45 -160 58 -91 22 -210
67 -289 106 -23 12 -80 58 -127 103 -87 83 -120 122 -120 143 0 17 185 200
221 219 17 8 51 21 75 29 24 7 65 26 91 42 26 16 72 38 102 48 51 17 130 60
286 157 38 24 90 54 115 68 112 63 369 268 506 404 177 176 293 324 491 623
17 26 45 68 62 93 34 49 171 274 231 380 36 63 65 112 140 235 21 33 60 98 87
145 88 150 103 173 159 260 30 47 65 105 78 130 25 49 83 148 203 345 20 33
71 119 114 190 43 72 95 158 116 193 69 115 131 216 166 272 19 30 43 71 52
90 10 19 30 53 45 75 15 22 51 83 80 135 48 86 91 158 185 306 18 27 43 70 55
95 13 24 59 98 103 164 63 95 81 130 84 165 4 33 1 49 -10 58 -20 17 -1866 18
-1897 2 -32 -17 -87 -98 -252 -370 -25 -41 -55 -93 -67 -115 -12 -22 -36 -61
-54 -87 -17 -26 -49 -75 -70 -110 -20 -35 -54 -90 -74 -123 -20 -33 -53 -89
-73 -125 -53 -94 -155 -262 -229 -376 -25 -39 -58 -93 -73 -120 -45 -79 -102
-174 -156 -259 -28 -44 -65 -106 -82 -138 -17 -32 -50 -86 -73 -121 -23 -35
-60 -95 -82 -135 -38 -69 -91 -154 -176 -282 -20 -31 -46 -73 -56 -95 -11 -21
-50 -88 -88 -149 -37 -60 -79 -131 -92 -157 -12 -26 -38 -68 -55 -92 -18 -24
-53 -79 -78 -121 -76 -128 -160 -256 -228 -345 -36 -47 -79 -103 -96 -125
-117 -153 -357 -409 -479 -512 -49 -42 -117 -91 -151 -110 -33 -19 -68 -41
-76 -48 -32 -29 -267 -127 -344 -145 -44 -10 -125 -30 -179 -44 -151 -40 -257
-54 -572 -76 -401 -29 -834 -39 -1633 -40 -566 0 -688 2 -710 14 -15 8 -70 58
-122 112 -71 73 -99 110 -108 141 -10 33 -12 484 -12 2073 1 2247 6 2073 -62
2085 -18 3 -408 6 -866 8 l-832 2 0 -5052z"/>
<path d="M38695 46330 c-15 -3 -36 -16 -47 -30 -17 -24 -18 -57 -19 -681 -1
-660 0 -679 34 -707 11 -9 759 -12 3169 -12 2034 0 3215 -4 3324 -10 171 -10
263 -27 464 -84 52 -15 115 -35 140 -45 141 -59 228 -102 259 -128 20 -16 58
-42 85 -58 55 -32 239 -213 348 -341 82 -97 208 -272 208 -289 0 -6 18 -49 41
-95 77 -160 129 -518 100 -690 -26 -158 -71 -348 -89 -380 -12 -19 -30 -58
-41 -87 -38 -96 -128 -227 -253 -363 -68 -75 -136 -151 -152 -170 -79 -95
-332 -271 -459 -320 -40 -15 -102 -42 -139 -59 -40 -18 -104 -37 -160 -46 -51
-8 -151 -27 -223 -42 l-130 -27 -2555 -7 c-1603 -4 -2600 -11 -2675 -17 -137
-12 -258 -34 -338 -61 -30 -11 -93 -27 -138 -36 -55 -11 -112 -32 -167 -61
-45 -24 -89 -44 -96 -44 -8 0 -37 -15 -64 -34 -28 -18 -78 -50 -112 -71 -50
-30 -71 -52 -122 -128 -33 -50 -71 -119 -83 -152 -13 -33 -35 -85 -48 -115
-14 -30 -30 -89 -37 -130 -6 -41 -20 -112 -31 -158 -11 -45 -25 -115 -31 -155
-15 -94 -28 -4173 -13 -4229 l9 -38 902 0 902 0 6 31 c3 17 6 849 6 1848 0
1755 1 1817 19 1856 26 55 181 231 250 283 31 23 72 47 91 54 27 9 568 14
2305 18 1645 5 2299 10 2375 18 58 7 188 28 290 47 102 18 223 39 270 45 47 6
130 27 185 45 55 19 136 42 180 51 44 9 114 31 155 49 41 18 110 42 153 54 43
12 104 35 135 51 31 16 77 36 101 45 24 8 69 31 101 50 32 19 75 42 96 51 22
9 73 37 114 63 41 27 120 77 175 111 139 89 328 241 450 365 148 149 455 665
501 840 8 33 30 94 49 135 18 41 40 117 49 168 10 51 28 121 41 155 58 155 96
763 65 1037 -5 47 -14 139 -20 204 -7 86 -19 145 -40 207 -17 48 -38 127 -47
176 -9 49 -29 114 -46 148 -16 32 -38 91 -49 129 -10 38 -34 97 -53 130 -18
34 -36 72 -40 86 -4 14 -23 48 -41 77 -18 28 -42 69 -53 91 -30 58 -199 292
-255 352 -44 47 -141 131 -231 200 -143 110 -231 172 -275 195 -28 14 -72 41
-98 59 -26 18 -63 39 -82 46 -19 7 -60 28 -91 47 -31 18 -76 40 -99 48 -24 8
-75 33 -114 54 -39 22 -111 51 -161 65 -49 15 -116 38 -148 52 -32 14 -113 37
-179 51 -67 13 -144 34 -172 45 -80 32 -101 37 -256 58 -80 11 -161 25 -180
30 -44 13 -189 37 -350 58 -112 14 -476 16 -3471 21 -1840 3 -3358 4 -3374 1z"/>
<path d="M74882 46328 c-17 -5 -34 -19 -40 -33 -15 -32 -17 -1300 -3 -1338 5
-13 17 -31 26 -40 15 -16 262 -17 3363 -17 2036 0 3402 -4 3488 -10 138 -9
341 -42 376 -61 10 -5 68 -23 129 -39 60 -16 129 -40 153 -54 24 -14 68 -35
99 -46 30 -11 75 -36 99 -54 23 -18 58 -41 76 -50 50 -26 155 -125 300 -285
152 -167 254 -306 293 -401 15 -36 41 -94 58 -130 17 -36 31 -76 31 -90 0 -14
9 -86 20 -160 25 -173 25 -228 -4 -435 -21 -151 -48 -255 -76 -290 -4 -5 -18
-39 -30 -74 -12 -35 -41 -94 -65 -130 -23 -36 -49 -80 -58 -96 -8 -17 -71 -91
-139 -165 -67 -75 -140 -156 -161 -181 -40 -50 -151 -139 -232 -186 -27 -17
-79 -49 -114 -72 -36 -23 -85 -47 -110 -55 -25 -8 -75 -28 -111 -45 -35 -17
-96 -37 -135 -45 -246 -50 -365 -69 -475 -77 -69 -4 -1259 -9 -2645 -9 -2966
-1 -2967 -1 -3232 -83 -43 -13 -108 -30 -145 -37 -41 -7 -89 -25 -121 -44 -29
-18 -79 -42 -111 -55 -60 -25 -168 -91 -223 -136 -44 -36 -122 -148 -144 -206
-10 -27 -34 -79 -53 -116 -19 -37 -40 -97 -46 -133 -6 -36 -22 -108 -36 -160
-13 -52 -29 -147 -34 -211 -11 -130 -15 -4181 -4 -4223 l6 -26 898 0 898 0 6
32 c3 18 6 843 6 1833 0 1056 3 1813 9 1831 15 52 29 73 132 189 100 114 143
150 214 182 38 17 127 18 1679 21 l1638 3 42 -25 c65 -38 277 -291 400 -476
62 -94 149 -218 207 -295 31 -42 44 -61 183 -265 47 -69 117 -168 156 -220 38
-52 109 -153 157 -225 48 -71 110 -159 137 -195 27 -36 101 -141 165 -235 63
-93 142 -208 176 -255 89 -124 173 -244 235 -335 30 -44 79 -113 110 -154 79
-105 99 -134 174 -246 36 -55 87 -129 113 -165 26 -36 67 -95 92 -132 63 -91
236 -337 293 -417 127 -175 246 -362 259 -404 l13 -47 1012 0 1011 0 12 38
c15 46 2 80 -58 148 -20 23 -54 70 -76 105 -22 35 -59 87 -82 115 -23 28 -89
123 -148 210 -58 88 -139 206 -180 264 -40 58 -130 188 -200 290 -218 320
-390 568 -422 607 -16 21 -36 49 -43 62 -7 13 -63 96 -124 183 -61 87 -129
187 -151 222 -22 35 -91 135 -153 222 -154 218 -329 471 -490 709 -74 110
-149 218 -167 240 -18 22 -71 99 -117 170 -47 72 -121 179 -166 239 -85 111
-98 139 -88 179 7 31 216 244 252 258 16 6 79 21 140 34 67 14 132 35 167 53
31 17 89 38 129 47 40 9 97 29 126 46 28 16 81 40 116 53 35 13 81 35 102 49
22 13 64 37 94 52 52 26 183 106 332 202 37 24 87 60 111 81 25 20 77 64 118
97 160 131 234 212 323 350 23 35 68 103 102 152 33 48 88 147 123 218 34 72
77 159 95 195 18 36 41 96 50 134 9 37 30 94 46 126 17 33 36 95 44 142 8 46
29 136 45 200 54 207 74 605 51 973 -13 206 -27 306 -51 375 -11 31 -28 102
-39 158 -11 58 -34 136 -54 180 -19 42 -39 102 -46 133 -6 31 -23 76 -38 100
-15 24 -36 64 -47 89 -36 86 -126 245 -178 317 -28 40 -77 108 -108 150 -58
81 -150 173 -254 255 -199 158 -292 225 -344 249 -20 9 -59 32 -87 51 -27 19
-67 42 -89 51 -22 8 -66 31 -99 51 -32 19 -75 41 -95 47 -20 7 -74 31 -121 54
-47 24 -118 53 -159 65 -40 12 -105 34 -145 50 -39 16 -111 36 -161 45 -49 9
-142 33 -205 55 -80 27 -148 42 -225 50 -60 7 -147 21 -192 31 -175 41 -351
60 -668 70 -362 11 -6851 18 -6893 7z"/>
<path d="M50243 46320 c-54 -22 -54 -16 -52 -715 l1 -646 23 -27 23 -27 1654
-2 c1121 -2 1665 -6 1690 -13 36 -10 94 -66 199 -192 l49 -59 0 -4182 c0
-2300 0 -4192 0 -4204 l0 -23 903 0 903 0 9 28 c7 17 8 1514 5 4187 -4 3129
-2 4168 7 4191 14 39 185 229 224 249 24 13 255 15 1688 15 l1661 0 31 28 31
28 -1 653 c-2 433 -6 660 -13 676 -5 12 -21 28 -35 34 -30 14 -8966 15 -9000
1z"/>
</g>
</svg>
