<?xml version="1.0" standalone="no"?>
<!DOCTYPE svg PUBLIC "-//W3C//DTD SVG 20010904//EN"
 "http://www.w3.org/TR/2001/REC-SVG-20010904/DTD/svg10.dtd">
<svg version="1.0" xmlns="http://www.w3.org/2000/svg"
 width="7620.000000pt" height="3926.000000pt" viewBox="0 0 7620.000000 3926.000000"
 preserveAspectRatio="xMidYMid meet">

<g transform="translate(0.000000,3926.000000) scale(0.100000,-0.100000)"
fill="#000000" stroke="none">
<path d="M36251 37611 c-1 -9 -8 -11 -23 -8 -26 7 -148 -23 -148 -36 0 -4 -4
-6 -9 -2 -5 3 -12 1 -15 -4 -4 -5 -1 -13 5 -17 8 -5 9 -3 4 7 -5 8 -4 10 0 6
13 -11 15 -37 4 -37 -6 0 -7 -5 -3 -11 5 -8 1 -8 -13 0 -11 6 -23 7 -27 4 -9
-10 -7 6 5 30 9 20 9 20 -4 5 -8 -10 -18 -14 -22 -10 -5 4 -5 1 0 -7 6 -11 3
-13 -12 -9 -15 4 -19 1 -16 -11 2 -9 -6 -22 -18 -29 -20 -13 -21 -12 -15 3 5
15 4 16 -9 5 -8 -7 -12 -17 -8 -23 4 -6 -2 -8 -15 -5 -12 4 -20 2 -16 -3 3 -5
0 -9 -6 -9 -6 0 -8 -5 -5 -10 4 -6 12 -7 18 -3 19 12 37 12 37 1 0 -6 -6 -8
-14 -5 -8 3 -17 3 -21 -1 -4 -4 -15 -8 -26 -8 -36 -3 -39 -4 -39 -19 0 -8 -4
-15 -10 -15 -5 0 -10 -9 -10 -20 0 -12 -7 -20 -17 -20 -9 0 -13 -3 -10 -7 4
-3 0 -15 -10 -25 -9 -11 -11 -18 -5 -18 7 0 12 5 12 10 0 6 6 5 14 -2 15 -14
2 -30 -19 -22 -6 3 -12 -1 -12 -9 0 -21 19 -16 47 11 14 14 19 22 13 18 -7 -4
-13 -3 -13 1 0 19 26 33 62 33 21 0 38 5 38 10 0 6 9 10 20 10 11 0 20 5 20
10 0 6 9 10 20 10 11 0 20 -3 20 -6 0 -14 -31 -34 -54 -34 -22 0 -26 -4 -26
-30 0 -28 2 -30 40 -30 38 0 40 2 40 30 l0 30 74 0 c41 0 80 2 88 3 7 2 10 2
6 0 -5 -3 -8 -27 -8 -54 0 -47 1 -49 28 -49 15 0 33 5 40 12 9 9 12 8 12 -5 0
-15 11 -17 80 -17 64 0 80 3 80 15 0 12 16 15 80 15 47 0 80 4 80 10 0 6 18
10 40 10 63 0 47 -16 -37 -36 -43 -11 -79 -25 -81 -33 -4 -11 3 -13 29 -7 19
4 46 9 62 11 15 2 32 7 38 11 12 7 276 43 322 44 15 0 27 -4 27 -9 0 -5 -36
-12 -80 -16 -44 -4 -80 -11 -80 -16 0 -5 -18 -9 -40 -9 -22 0 -40 -4 -40 -10
0 -13 157 -14 162 -1 2 5 38 12 81 16 l77 7 0 -27 0 -27 100 4 c91 4 100 3
100 -14 0 -10 6 -18 14 -18 9 0 12 7 9 20 -6 22 -5 22 -83 24 -49 1 -55 3 -56
23 -1 13 -7 30 -14 38 -7 9 -10 18 -7 22 4 3 9 -2 13 -11 3 -9 11 -13 17 -9 6
4 8 0 4 -9 -4 -12 1 -15 19 -14 l25 1 -28 23 c-15 12 -34 27 -41 33 -7 5 -17
7 -22 4 -6 -3 -10 -1 -10 6 0 7 -9 9 -22 6 -21 -6 -22 -5 -5 7 18 14 13 19
-21 27 -4 1 -12 9 -19 18 -6 9 -15 13 -18 9 -4 -4 -31 12 -59 36 -28 24 -66
49 -83 57 -18 8 -33 18 -33 22 0 5 -4 6 -9 3 -12 -8 -42 4 -36 14 3 4 -4 10
-15 13 -11 3 -18 2 -15 -3 5 -8 -44 -5 -52 4 -4 3 -12 1 -20 -6 -10 -8 -17 -8
-26 1 -9 10 -8 11 8 5 16 -5 18 -4 8 6 -6 7 -9 20 -6 29 4 9 3 13 -2 9 -4 -4
-24 2 -45 12 -21 11 -47 18 -58 15 -11 -2 -31 3 -46 10 -14 8 -28 10 -31 6 -2
-5 -16 -8 -31 -8 -18 0 -22 2 -13 8 16 10 14 11 -73 15 -49 2 -58 -1 -63 -17
-4 -11 -11 -16 -17 -13 -6 4 -5 10 3 16 11 8 10 9 -3 5 -9 -3 -19 -1 -22 6 -3
8 -5 8 -5 -2z m97 -16 c-4 -14 -27 -15 -35 -3 -3 7 -1 8 5 4 7 -4 12 -2 12 4
0 7 5 10 11 8 6 -2 9 -8 7 -13z m-91 -11 c-3 -3 -12 -4 -19 -1 -8 3 -5 6 6 6
11 1 17 -2 13 -5z m380 -40 c-3 -3 -12 -4 -19 -1 -8 3 -5 6 6 6 11 1 17 -2 13
-5z m-10 -40 c-3 -3 -12 -4 -19 -1 -8 3 -5 6 6 6 11 1 17 -2 13 -5z m-629 -45
c3 -12 2 -12 -7 1 -9 12 -11 12 -17 -3 -3 -9 -10 -14 -16 -11 -12 7 11 36 25
31 6 -2 12 -10 15 -18z m837 1 c24 -9 26 -12 14 -27 -8 -10 -9 -14 -2 -10 6 4
18 0 26 -8 9 -8 22 -15 29 -14 10 0 10 2 1 6 -7 2 -13 10 -13 16 0 6 7 4 16
-5 18 -18 10 -42 -12 -34 -20 8 -14 -27 6 -36 8 -4 -11 -7 -44 -7 l-58 -1 7
37 c4 21 12 41 18 45 9 6 8 8 -2 8 -7 0 -11 6 -8 14 3 8 1 17 -6 20 -24 9 2 6
28 -4z m129 -89 c10 -11 25 -17 34 -14 15 4 15 3 2 -6 -12 -8 -9 -12 17 -17
38 -8 34 -24 -5 -24 -27 0 -70 20 -44 20 24 0 12 15 -14 17 -14 0 -31 6 -38
13 -8 10 -6 11 12 5 23 -7 32 9 10 18 -8 3 -8 6 -2 6 6 1 19 -8 28 -18z
m-1134 -30 c-6 -12 -15 -21 -21 -21 -5 0 -2 11 8 24 21 28 29 27 13 -3z m1264
-53 c4 3 4 -2 0 -11 -6 -17 -7 -17 -27 0 -20 17 -20 17 -13 -1 6 -17 5 -17
-10 -5 -13 11 -18 11 -21 2 -6 -18 -23 -16 -23 1 0 17 47 26 71 14 9 -4 19 -4
23 0z"/>
<path d="M36840 37390 c0 -5 5 -10 10 -10 6 0 10 5 10 10 0 6 -4 10 -10 10 -5
0 -10 -4 -10 -10z"/>
<path d="M36665 37540 c-3 -5 -1 -11 5 -15 5 -3 10 -4 10 0 0 3 9 1 19 -5 14
-7 22 -7 27 2 4 7 3 8 -4 4 -7 -4 -12 -3 -12 2 0 13 -39 23 -45 12z"/>
<path d="M36040 37530 c0 -5 5 -10 10 -10 6 0 10 5 10 10 0 6 -4 10 -10 10 -5
0 -10 -4 -10 -10z"/>
<path d="M41687 37276 c-4 -10 -1 -13 8 -9 8 3 12 9 9 14 -7 12 -11 11 -17 -5z"/>
<path d="M41731 37286 c2 -2 15 -9 29 -15 24 -11 24 -11 6 3 -16 13 -49 24
-35 12z"/>
<path d="M41620 37270 c-8 -5 -10 -10 -5 -10 6 0 17 5 25 10 8 5 11 10 5 10
-5 0 -17 -5 -25 -10z"/>
<path d="M41796 37268 c3 -5 10 -6 15 -3 13 9 11 12 -6 12 -8 0 -12 -4 -9 -9z"/>
<path d="M35938 37253 c12 -2 32 -2 45 0 12 2 2 4 -23 4 -25 0 -35 -2 -22 -4z"/>
<path d="M41490 37231 c0 -10 19 -25 25 -20 1 2 -3 10 -11 17 -8 7 -14 8 -14
3z"/>
<path d="M41925 37231 c-3 -5 0 -13 6 -17 8 -5 9 -3 4 6 -6 10 -4 12 9 7 10
-4 15 -3 11 3 -8 13 -22 13 -30 1z"/>
<path d="M36183 37218 c-13 -6 -23 -18 -23 -26 0 -10 7 -13 23 -8 12 3 30 6
40 6 10 0 17 8 17 20 0 22 -21 25 -57 8z"/>
<path d="M37143 37223 c-25 -9 -12 -18 27 -19 24 -1 39 3 37 9 -3 11 -44 17
-64 10z"/>
<path d="M41447 37210 c-3 -11 -2 -22 2 -24 4 -3 8 6 9 20 2 29 -4 31 -11 4z"/>
<path d="M35735 37210 c-3 -5 -2 -18 4 -27 7 -14 9 -12 8 10 -2 30 -3 31 -12
17z"/>
<path d="M41400 37199 c0 -5 -4 -8 -9 -4 -5 3 -12 1 -15 -4 -4 -5 2 -8 11 -7
15 3 33 26 19 26 -3 0 -6 -5 -6 -11z"/>
<path d="M42020 37201 c0 -6 4 -13 10 -16 6 -3 7 1 4 9 -7 18 -14 21 -14 7z"/>
<path d="M41500 37189 c0 -5 5 -7 10 -4 6 3 10 8 10 11 0 2 -4 4 -10 4 -5 0
-10 -5 -10 -11z"/>
<path d="M41930 37190 c8 -5 20 -10 25 -10 6 0 3 5 -5 10 -8 5 -19 10 -25 10
-5 0 -3 -5 5 -10z"/>
<path d="M36628 37183 c17 -2 47 -2 65 0 17 2 3 4 -33 4 -36 0 -50 -2 -32 -4z"/>
<path d="M37163 37163 c-24 -2 -43 -9 -43 -14 0 -6 19 -10 43 -9 67 3 73 2 59
-12 -7 -7 -33 -15 -60 -19 -41 -6 -38 -6 26 -6 74 1 83 5 57 27 -8 7 -15 19
-15 26 0 8 -6 13 -12 12 -7 -1 -32 -3 -55 -5z"/>
<path d="M41321 37161 c-32 -20 -17 -61 16 -43 14 8 13 11 -7 17 l-23 7 24 14
c13 7 20 13 14 13 -5 1 -16 -3 -24 -8z"/>
<path d="M37276 37138 c-3 -13 -6 -26 -6 -29 0 -3 21 -5 48 -5 38 1 46 -2 44
-15 -1 -9 5 -16 13 -16 20 0 19 10 -5 32 -11 10 -20 15 -20 11 0 -4 -9 -2 -20
4 -11 6 -17 16 -14 22 4 7 3 8 -5 4 -6 -4 -9 -11 -6 -16 3 -4 -2 -11 -10 -14
-12 -4 -14 0 -9 19 3 14 4 25 1 25 -2 0 -7 -10 -11 -22z"/>
<path d="M41250 37115 c-10 -12 -8 -13 10 -10 29 6 34 11 16 18 -8 3 -20 0
-26 -8z"/>
<path d="M42106 37118 c3 -5 10 -6 15 -3 13 9 11 12 -6 12 -8 0 -12 -4 -9 -9z"/>
<path d="M41212 37088 c-7 -9 -6 -17 3 -25 10 -9 17 -8 31 8 10 11 12 19 6 19
-7 0 -12 -4 -12 -10 0 -5 -5 -10 -11 -10 -6 0 -9 7 -5 15 7 18 2 19 -12 3z"/>
<path d="M37218 37073 c12 -2 32 -2 45 0 12 2 2 4 -23 4 -25 0 -35 -2 -22 -4z"/>
<path d="M42177 37073 c-3 -5 4 -15 16 -23 21 -12 21 -12 7 6 -8 10 -15 20
-16 22 -1 2 -4 -1 -7 -5z"/>
<path d="M37392 37061 c-11 -7 -11 -9 2 -14 10 -4 16 -1 16 8 0 17 -1 17 -18
6z"/>
<path d="M37423 37056 c3 -7 1 -18 -4 -23 -5 -5 0 -9 15 -9 23 0 23 1 9 23
-17 25 -28 31 -20 9z"/>
<path d="M35739 37038 c-8 -7 -12 -12 -10 -11 2 2 9 -1 15 -7 8 -6 12 -3 12
11 0 10 -1 19 -1 19 -1 0 -8 -6 -16 -12z"/>
<path d="M37367 37035 c3 -8 9 -12 14 -9 12 7 11 11 -5 17 -10 4 -13 1 -9 -8z"/>
<path d="M41220 37036 c0 -2 9 -6 20 -9 11 -3 20 -1 20 4 0 5 -9 9 -20 9 -11
0 -20 -2 -20 -4z"/>
<path d="M37497 37004 c3 -8 9 -14 13 -14 5 0 7 -8 5 -17 -3 -23 4 -35 16 -27
6 3 5 12 -3 22 -11 13 -10 15 10 10 31 -8 28 -3 -12 20 -25 15 -33 17 -29 6z"/>
<path d="M41106 37012 c-2 -4 -1 -14 4 -22 7 -11 9 -9 7 8 -1 24 -3 26 -11 14z"/>
<path d="M37476 36990 c5 -8 9 -21 10 -28 2 -8 5 -17 8 -20 4 -3 5 4 3 16 -2
12 -9 28 -17 35 -10 10 -11 9 -4 -3z"/>
<path d="M41089 36981 c6 -10 7 -22 3 -26 -4 -5 -1 -5 6 -1 9 5 9 12 2 27 -6
10 -13 19 -16 19 -2 0 0 -8 5 -19z"/>
<path d="M41067 36965 c-4 -8 -3 -16 1 -19 4 -3 9 4 9 15 2 23 -3 25 -10 4z"/>
<path d="M37603 36915 c0 -8 4 -12 9 -9 5 3 6 10 3 15 -9 13 -12 11 -12 -6z"/>
<path d="M40979 36903 c-13 -16 -12 -17 4 -4 9 7 17 15 17 17 0 8 -8 3 -21
-13z"/>
<path d="M37646 36872 c-2 -4 4 -8 14 -8 10 0 16 4 14 8 -3 4 -9 8 -14 8 -5 0
-11 -4 -14 -8z"/>
<path d="M37696 36867 c3 -10 9 -15 12 -12 3 3 0 11 -7 18 -10 9 -11 8 -5 -6z"/>
<path d="M37744 36836 c15 -12 16 -16 5 -16 -11 0 -12 -2 -1 -9 8 -4 13 -11
13 -15 -1 -3 2 -6 7 -6 17 0 5 34 -18 47 -23 14 -24 14 -6 -1z"/>
<path d="M37707 36809 c7 -7 15 -10 18 -7 3 3 -2 9 -12 12 -14 6 -15 5 -6 -5z"/>
<path d="M37799 36793 c-13 -16 -12 -17 4 -4 16 13 21 21 13 21 -2 0 -10 -8
-17 -17z"/>
<path d="M37687 36789 c7 -7 15 -10 18 -7 3 3 -2 9 -12 12 -14 6 -15 5 -6 -5z"/>
<path d="M35846 36757 c3 -10 9 -15 12 -12 3 3 0 11 -7 18 -10 9 -11 8 -5 -6z"/>
<path d="M38012 36671 c-11 -7 -11 -9 0 -14 9 -3 15 1 15 9 0 8 -1 14 -1 14
-1 0 -7 -4 -14 -9z"/>
<path d="M38051 36657 c-8 -10 -7 -14 2 -14 8 0 14 6 14 14 0 7 -1 13 -2 13
-2 0 -8 -6 -14 -13z"/>
<path d="M35930 36636 c0 -2 8 -10 18 -17 15 -13 16 -12 3 4 -13 16 -21 21
-21 13z"/>
<path d="M36119 36483 c-13 -16 -12 -17 4 -4 16 13 21 21 13 21 -2 0 -10 -8
-17 -17z"/>
<path d="M47965 25742 c-22 -1 -47 -6 -55 -9 -8 -3 -19 -5 -24 -4 -5 1 -16 -1
-25 -5 -9 -4 -27 -7 -41 -6 l-25 1 24 -7 c14 -4 26 -13 27 -20 1 -7 0 -8 -3
-2 -3 6 -13 4 -26 -5 -27 -19 -47 -20 -21 -1 18 14 18 15 -8 21 -20 5 -35 1
-54 -14 -15 -12 -32 -21 -38 -21 -6 0 -31 -18 -56 -40 -25 -22 -49 -43 -54
-48 -6 -4 -17 -1 -26 8 -9 8 -25 20 -35 25 -16 10 -16 11 4 12 12 1 19 -2 16
-8 -4 -5 1 -9 9 -9 9 0 14 8 13 20 -1 11 -4 20 -8 20 -16 0 -76 -24 -91 -37
-9 -8 -22 -12 -29 -8 -7 5 -10 3 -7 -5 2 -7 12 -14 21 -16 9 -1 15 2 12 6 -3
5 -1 11 5 15 6 4 10 -4 10 -19 0 -16 -7 -27 -20 -31 -13 -4 -20 -16 -21 -33
-2 -24 -2 -24 -6 -4 -3 13 -12 22 -23 22 -10 0 -21 4 -25 10 -3 5 -13 6 -22 3
-11 -4 -14 -2 -9 5 4 8 23 9 54 5 l47 -6 -22 22 c-23 21 -39 28 -29 12 4 -5
-2 -7 -12 -4 -11 2 -25 -2 -33 -10 -8 -7 -19 -12 -26 -10 -6 2 -17 -5 -23 -16
-6 -12 -18 -21 -28 -21 -15 0 -15 2 -2 10 22 14 7 12 -34 -5 -39 -17 -47 -31
-17 -31 11 0 19 4 18 9 -4 20 22 17 28 -2 3 -12 11 -21 17 -21 6 0 6 6 -2 15
-14 17 -7 19 20 5 13 -7 21 -7 26 2 4 6 3 8 -4 4 -6 -3 -13 -2 -16 3 -9 13 19
32 38 25 18 -7 21 -20 7 -28 -5 -3 -7 -15 -4 -26 4 -13 0 -20 -10 -20 -8 0
-20 -7 -27 -15 -18 -22 -38 -18 -42 8 -3 21 -5 21 -35 -12 -25 -27 -36 -32
-56 -27 -22 5 -25 3 -22 -19 1 -14 -3 -25 -9 -25 -6 0 -22 -3 -35 -7 -17 -4
-22 -3 -17 6 4 6 12 9 17 6 15 -10 10 7 -7 26 -12 13 -25 17 -48 13 l-31 -5
30 17 c19 11 30 13 33 6 2 -6 10 -8 19 -5 10 4 14 2 10 -4 -5 -7 0 -9 13 -6
11 3 23 10 27 16 4 6 0 8 -10 4 -14 -5 -15 -3 -6 17 6 13 18 23 26 22 9 0 18
6 20 14 4 12 3 13 -5 1 -5 -7 -15 -11 -20 -7 -6 4 -19 -5 -28 -19 -9 -14 -21
-25 -28 -24 -7 0 -6 2 2 6 6 2 12 9 12 13 0 8 -93 -30 -107 -44 -3 -3 0 -12 7
-21 9 -11 9 -15 1 -15 -7 0 -9 -4 -6 -10 4 -6 -1 -7 -12 -4 -13 4 -15 3 -5 -4
11 -7 10 -11 -4 -16 -26 -10 -28 0 -5 23 26 26 26 30 -1 28 -31 -2 -72 -28
-76 -48 -2 -12 8 -15 52 -15 30 1 53 3 51 6 -2 3 5 16 15 29 12 16 23 22 35
17 14 -5 15 -9 5 -21 -7 -8 -19 -15 -26 -15 -10 0 -14 -14 -14 -50 0 -43 -3
-50 -20 -50 -11 0 -20 -5 -20 -11 0 -6 -9 -9 -20 -6 -11 3 -20 1 -20 -4 0 -19
-59 -9 -70 11 -6 11 -15 18 -21 15 -5 -4 -9 -1 -9 4 0 6 5 11 10 11 6 0 10 4
10 8 0 4 -9 8 -20 8 -11 0 -20 -4 -20 -9 0 -5 -9 -7 -20 -4 -11 3 -18 1 -14
-4 3 -5 0 -9 -7 -9 -6 0 -9 8 -6 20 5 18 2 17 -27 -5 -18 -14 -37 -25 -42 -25
-5 0 -15 -9 -22 -20 -7 -12 -17 -18 -22 -15 -6 3 -10 1 -10 -4 0 -6 -3 -10 -7
-9 -8 2 -63 -30 -73 -43 -3 -3 -16 -12 -28 -18 -13 -7 -21 -15 -19 -18 3 -2
17 3 31 12 14 10 26 13 26 9 1 -5 9 1 19 13 10 12 21 19 25 16 3 -4 6 -1 6 6
0 7 5 9 13 4 6 -4 21 -8 32 -8 11 0 21 -8 23 -17 2 -10 -1 -18 -7 -18 -6 0
-11 5 -11 11 0 7 -7 8 -17 4 -10 -4 -25 -8 -35 -9 -9 -1 -23 -8 -31 -14 -8 -7
-21 -10 -30 -6 -8 3 -18 0 -23 -7 -5 -9 -2 -10 10 -6 11 5 15 3 10 -5 -5 -8
-2 -9 9 -5 9 3 19 2 22 -3 6 -10 -36 -7 -54 4 -7 5 -23 5 -36 2 -17 -4 -23
-11 -18 -23 5 -13 2 -15 -15 -11 -12 4 -22 2 -22 -4 0 -5 -4 -7 -9 -3 -11 6
-26 -13 -17 -22 3 -3 11 -2 18 3 20 14 61 11 66 -5 4 -11 -3 -13 -29 -7 -29 6
-31 5 -15 -7 16 -12 14 -15 -31 -38 -57 -29 -61 -33 -56 -63 3 -13 0 -26 -5
-30 -7 -4 -9 8 -8 34 2 22 -1 40 -5 40 -8 0 -13 -15 -10 -32 0 -4 -8 -5 -19
-3 -12 2 -20 -2 -20 -10 0 -21 -19 -28 -36 -14 -12 10 -23 4 -63 -36 -30 -30
-47 -55 -44 -64 4 -13 3 -13 -5 -2 -5 7 -15 10 -22 6 -9 -6 -9 -9 1 -16 11 -7
10 -9 -5 -9 -10 0 -54 -35 -97 -77 -62 -61 -77 -82 -73 -99 3 -12 1 -25 -4
-28 -6 -4 -8 2 -5 14 8 29 -3 25 -43 -15 -20 -20 -32 -40 -28 -47 4 -6 3 -8
-3 -5 -5 3 -17 -3 -27 -14 -15 -18 -15 -20 0 -17 10 2 18 -4 20 -16 2 -14 0
-16 -9 -7 -15 15 -30 14 -21 -1 6 -10 4 -10 -8 0 -13 10 -17 10 -22 -3 -4 -11
-2 -14 6 -9 7 4 8 3 4 -5 -4 -6 -11 -9 -16 -6 -11 7 -52 -50 -42 -59 4 -4 2
-6 -5 -4 -16 4 -115 -121 -106 -135 3 -7 3 -9 -2 -5 -8 8 -36 -19 -63 -62 -9
-14 -41 -58 -70 -98 -123 -167 -229 -331 -485 -747 -88 -143 -177 -286 -198
-317 -22 -31 -39 -59 -39 -62 0 -3 -13 -25 -29 -48 -16 -24 -75 -113 -132
-198 -56 -85 -111 -166 -121 -180 -10 -14 -48 -65 -85 -115 -176 -237 -425
-494 -613 -633 -30 -23 -59 -45 -65 -49 -12 -10 -141 -94 -169 -110 -42 -24
-283 -141 -331 -161 -199 -81 -458 -151 -645 -174 -47 -5 -96 -12 -110 -14
-14 -3 -122 -6 -240 -8 -222 -4 -340 4 -470 29 -41 8 -86 17 -100 19 -68 13
-92 19 -180 46 -108 32 -237 79 -325 120 -189 87 -289 139 -426 217 -109 63
-397 252 -430 283 -8 8 -26 22 -39 30 -12 8 -86 62 -162 120 -77 58 -152 114
-167 125 -24 17 -134 99 -166 122 -6 5 -30 23 -55 41 -25 17 -66 48 -93 67
-168 124 -609 417 -717 477 -25 14 -70 40 -100 58 -154 92 -519 257 -546 246
-8 -3 -13 -2 -9 3 5 9 -37 25 -215 82 -52 17 -105 35 -118 40 -17 6 -21 6 -16
-2 3 -6 -4 -4 -17 4 -13 9 -37 18 -54 21 -16 2 -46 9 -65 15 -34 10 -79 20
-110 25 -8 1 -24 5 -35 9 -11 3 -38 8 -60 11 -22 2 -51 7 -65 10 -33 7 -82 14
-161 22 -35 3 -68 8 -73 11 -4 3 -12 -1 -17 -8 -8 -12 -10 -12 -18 0 -17 26
-726 21 -791 -6 -8 -3 -28 -6 -45 -6 -16 1 -66 -6 -110 -13 -44 -8 -104 -17
-134 -20 -30 -2 -61 -9 -70 -13 -9 -5 -32 -12 -51 -15 -112 -20 -155 -33 -152
-47 3 -10 1 -11 -8 -3 -7 8 -21 9 -38 4 -15 -5 -54 -16 -87 -25 -33 -9 -69
-20 -80 -25 -11 -5 -49 -18 -85 -30 -36 -12 -75 -26 -87 -31 -13 -5 -33 -13
-45 -18 -134 -52 -183 -73 -308 -134 -205 -99 -440 -236 -440 -258 0 -6 -4 -8
-8 -5 -5 3 -38 -16 -73 -42 -35 -26 -80 -58 -100 -72 -270 -188 -690 -625
-927 -964 -166 -239 -344 -514 -505 -781 -7 -11 -19 -31 -28 -45 -9 -14 -26
-41 -37 -60 -150 -264 -355 -578 -557 -855 -90 -122 -139 -195 -164 -238 -12
-20 -30 -53 -42 -74 -11 -20 -34 -76 -50 -125 -112 -332 51 -658 376 -756 99
-30 183 -33 292 -11 242 48 410 189 697 583 63 86 286 416 286 422 0 2 32 52
70 110 39 58 70 107 70 110 0 4 31 53 156 246 24 37 44 70 44 73 0 3 20 36 43
73 24 37 68 105 97 152 378 603 697 968 1051 1205 46 30 89 60 96 65 31 26
260 136 373 180 171 68 471 150 600 165 30 3 78 10 105 15 144 26 473 28 650
4 28 -4 59 -8 70 -10 152 -20 413 -92 559 -155 120 -52 138 -60 246 -114 287
-144 506 -288 990 -649 96 -71 211 -156 255 -188 44 -31 94 -68 110 -81 17
-14 59 -44 95 -68 36 -23 67 -45 70 -49 17 -22 443 -304 526 -349 22 -11 62
-34 89 -51 89 -54 427 -217 555 -268 308 -122 637 -211 880 -237 30 -3 62 -8
70 -10 35 -10 249 -19 435 -19 181 0 431 10 445 19 3 2 32 6 65 9 33 4 87 11
120 17 176 30 233 40 265 49 19 5 85 21 145 36 61 14 142 36 180 48 217 71
271 90 280 97 5 5 15 9 22 9 7 0 35 9 61 21 26 12 69 31 97 43 173 74 439 223
580 322 33 24 75 53 93 66 18 13 63 48 100 78 38 30 88 71 112 90 93 74 224
201 379 365 93 98 248 288 345 422 28 37 67 91 87 118 58 78 213 320 344 535
258 425 310 510 468 750 91 140 322 459 347 480 3 3 28 32 55 65 71 86 246
259 345 341 151 126 304 226 470 308 41 20 82 41 91 45 8 5 51 23 95 41 43 18
98 41 121 51 24 10 47 19 53 19 6 0 18 4 28 9 9 6 49 24 87 41 163 73 260 136
353 230 243 244 268 588 58 817 -16 18 -34 29 -39 26 -6 -3 -7 -1 -3 5 4 6
-12 23 -36 40 -53 35 -150 84 -142 70 4 -6 -5 -2 -20 7 -14 9 -33 15 -41 11
-8 -3 -15 -1 -15 5 0 6 -6 9 -14 6 -7 -3 -19 0 -25 6 -8 8 -11 8 -11 -1 0 -7
-7 -12 -15 -12 -8 0 -15 4 -15 9 0 10 -91 18 -155 13z m-78 -38 c-3 -3 -12 -4
-19 -1 -8 3 -5 6 6 6 11 1 17 -2 13 -5z m-368 -103 c17 -13 19 -18 7 -18 -9 0
-16 5 -16 11 0 6 -5 4 -11 -4 -9 -13 -10 -13 -6 2 3 9 1 19 -6 22 -7 2 -7 5
-2 5 6 0 21 -8 34 -18z m-159 -176 c0 -11 -11 -15 -42 -14 -28 1 -34 3 -18 6
14 3 29 9 35 14 14 14 25 11 25 -6z m-380 -44 c-14 -28 -27 -33 -34 -15 -3 8
-2 13 3 10 5 -3 14 1 21 9 17 21 23 19 10 -4z m-180 -151 c0 -24 -3 -27 -25
-22 -20 3 -24 1 -19 -12 4 -12 0 -16 -15 -16 -12 0 -21 5 -21 10 0 6 -11 8
-25 6 -14 -3 -25 -2 -25 1 0 8 33 32 45 33 6 0 3 -5 -5 -11 -12 -9 -12 -10 3
-5 10 3 24 6 30 6 6 0 2 7 -9 15 -12 9 -14 14 -6 15 7 0 20 7 29 15 20 21 43
2 43 -35z m50 -32 c0 -4 -6 -8 -12 -8 -9 0 -8 -4 2 -10 9 -6 10 -10 3 -10 -7
0 -17 9 -23 19 -8 17 -7 20 10 18 11 -1 20 -5 20 -9z m-212 -75 c0 -21 -2 -23
-10 -9 -5 9 -6 21 -3 26 10 16 13 12 13 -17z m-80 -36 c2 -11 -3 -17 -16 -17
-15 0 -19 5 -15 20 6 24 26 21 31 -3z m-253 -182 c19 -15 19 -16 0 -33 -18
-16 -18 -16 -6 1 10 12 10 17 2 17 -6 0 -14 -7 -18 -16 -4 -12 -7 -13 -14 -3
-6 11 -9 10 -15 -4 -3 -9 -11 -17 -16 -17 -7 0 -6 5 1 13 6 8 7 18 3 22 -4 5
-1 5 6 1 7 -4 12 -2 12 6 0 11 2 10 9 0 7 -11 9 -11 14 2 3 8 1 17 -6 20 -7 2
-7 5 -2 5 6 0 19 -6 30 -14z m-92 -60 c-3 -9 -8 -14 -10 -11 -3 3 -2 9 2 15 9
16 15 13 8 -4z m27 -26 c0 -5 -10 -8 -22 -8 -18 1 -19 2 -5 6 9 2 14 9 11 15
-4 7 -2 8 4 4 7 -4 12 -11 12 -17z m-50 -29 c-8 -5 -19 -10 -25 -10 -5 0 -3 5
5 10 8 5 20 10 25 10 6 0 3 -5 -5 -10z m-41 -28 c-6 -3 -6 -9 2 -18 9 -11 9
-14 -1 -14 -9 0 -9 -4 1 -17 12 -14 12 -16 -1 -8 -27 17 -60 14 -70 -6 -6 -10
-18 -18 -28 -18 -16 1 -16 2 1 6 15 4 19 11 16 29 -2 11 54 63 63 58 4 -3 8 1
8 8 0 9 3 9 10 -2 6 -10 6 -16 -1 -18z m-79 -138 c0 -2 -9 0 -20 6 -11 6 -20
13 -20 16 0 2 9 0 20 -6 11 -6 20 -13 20 -16z m-76 -72 c3 -5 -1 -9 -9 -9 -8
0 -12 4 -9 9 3 4 7 8 9 8 2 0 6 -4 9 -8z m-177 -129 c-4 -3 1 -16 10 -27 15
-17 15 -18 1 -8 -13 10 -17 10 -21 0 -3 -7 -4 -2 -2 12 4 32 4 30 12 30 3 0 3
-3 0 -7z m-187 -247 c0 -2 -8 -10 -17 -17 -16 -13 -17 -12 -4 4 13 16 21 21
21 13z"/>
<path d="M46124 24756 c5 -13 2 -17 -8 -13 -8 3 -19 0 -25 -7 -9 -10 -6 -13
15 -10 34 3 38 9 24 31 -11 17 -11 17 -6 -1z"/>
<path d="M47688 25693 c-10 -2 -18 -8 -18 -13 0 -5 -7 -7 -15 -4 -8 4 -15 2
-15 -4 0 -13 15 -10 60 10 33 15 26 21 -12 11z"/>
<path d="M47590 25660 c-9 -6 -10 -10 -3 -10 6 0 15 5 18 10 8 12 4 12 -15 0z"/>
<path d="M47570 25636 c0 -2 6 -9 13 -15 10 -8 14 -7 14 4 0 8 -6 15 -14 15
-7 0 -13 -2 -13 -4z"/>
<path d="M47178 25463 c7 -3 16 -2 19 1 4 3 -2 6 -13 5 -11 0 -14 -3 -6 -6z"/>
<path d="M47185 25440 c-3 -5 -1 -10 4 -10 6 0 11 5 11 10 0 6 -2 10 -4 10 -3
0 -8 -4 -11 -10z"/>
<path d="M46896 25353 c-6 -14 -5 -15 5 -6 7 7 10 15 7 18 -3 3 -9 -2 -12 -12z"/>
<path d="M46843 25329 c-34 -21 -46 -37 -17 -21 9 5 25 7 35 5 13 -4 18 0 16
16 -1 12 -1 21 -2 21 0 0 -15 -10 -32 -21z"/>
<path d="M46414 25039 c-3 -6 -1 -16 6 -22 10 -9 11 -9 5 2 -6 10 -1 12 26 6
l34 -6 -29 15 c-34 19 -33 19 -42 5z"/>
<path d="M46370 25000 c-13 -16 -28 -26 -32 -24 -5 3 -11 -2 -14 -10 -3 -9 -9
-14 -13 -12 -4 3 -8 -4 -8 -15 -2 -25 13 -25 20 1 3 11 9 19 14 18 10 -3 63
50 63 63 0 12 -2 11 -30 -21z"/>
<path d="M39300 24466 c0 -2 8 -10 18 -17 15 -13 16 -12 3 4 -13 16 -21 21
-21 13z"/>
<path d="M43474 24298 l-19 -23 23 19 c21 18 27 26 19 26 -2 0 -12 -10 -23
-22z"/>
<path d="M39656 24291 c-4 -5 -2 -12 3 -15 5 -4 12 -2 15 3 4 5 2 12 -3 15 -5
4 -12 2 -15 -3z"/>
<path d="M39690 24255 c0 -5 5 -17 10 -25 5 -8 10 -10 10 -5 0 6 -5 17 -10 25
-5 8 -10 11 -10 5z"/>
<path d="M43366 24243 c-6 -14 -5 -15 5 -6 7 7 10 15 7 18 -3 3 -9 -2 -12 -12z"/>
<path d="M39737 24209 c7 -7 15 -10 18 -7 3 3 -2 9 -12 12 -14 6 -15 5 -6 -5z"/>
<path d="M43243 24205 c0 -8 4 -12 9 -9 5 3 6 10 3 15 -9 13 -12 11 -12 -6z"/>
<path d="M39832 24198 c2 -7 -3 -12 -11 -10 -12 3 -12 0 -1 -12 7 -9 15 -16
18 -16 3 0 2 3 -1 7 -4 3 -2 12 4 19 7 8 7 14 -1 19 -6 4 -9 1 -8 -7z"/>
<path d="M43180 24206 c0 -7 40 -14 44 -7 3 4 -6 8 -20 9 -13 1 -24 0 -24 -2z"/>
<path d="M43165 24180 c-3 -6 1 -7 9 -4 18 7 21 14 7 14 -6 0 -13 -4 -16 -10z"/>
<path d="M39850 24171 c0 -10 19 -25 25 -20 1 2 -3 10 -11 17 -8 7 -14 8 -14
3z"/>
<path d="M43210 24172 c0 -4 -10 -8 -22 -9 -11 -1 -25 -8 -29 -15 -12 -19 -2
-22 16 -4 9 9 20 14 25 11 4 -3 13 2 20 10 9 10 9 15 1 15 -6 0 -11 -4 -11 -8z"/>
<path d="M43125 24140 c-3 -5 -12 -7 -20 -3 -8 3 -15 0 -15 -7 0 -9 -4 -9 -17
1 -16 12 -17 12 -6 -2 7 -9 10 -19 6 -23 -9 -9 29 4 43 15 6 5 13 7 16 4 2 -3
5 2 5 10 0 17 -3 19 -12 5z"/>
<path d="M39996 24125 c-10 -8 -24 -12 -30 -9 -6 3 -2 -2 8 -10 11 -9 25 -16
30 -15 6 0 5 3 -2 6 -10 4 -9 9 4 24 20 22 16 24 -10 4z"/>
<path d="M40037 24123 c3 -7 6 -13 8 -13 2 0 5 6 8 13 3 8 -1 14 -8 14 -7 0
-11 -6 -8 -14z"/>
<path d="M40065 24121 c-3 -5 -2 -12 3 -15 5 -3 9 1 9 9 0 17 -3 19 -12 6z"/>
<path d="M40025 24090 c-3 -6 1 -7 9 -4 18 7 21 14 7 14 -6 0 -13 -4 -16 -10z"/>
<path d="M42964 24078 c0 -22 29 -23 46 -3 7 9 19 14 26 11 7 -3 16 -1 19 4 3
5 -16 8 -43 7 -38 -2 -48 -6 -48 -19z m36 2 c0 -5 -5 -10 -11 -10 -5 0 -7 5
-4 10 3 6 8 10 11 10 2 0 4 -4 4 -10z"/>
<path d="M40057 24083 c-11 -11 -8 -20 7 -20 8 0 12 6 9 14 -6 15 -7 15 -16 6z"/>
<path d="M40144 24043 c-10 -7 -13 -13 -7 -13 7 0 15 5 19 11 5 8 8 8 14 0 5
-9 10 -8 18 1 15 18 -20 19 -44 1z"/>
<path d="M40217 24047 c2 -4 8 -5 13 -2 5 3 15 -2 24 -10 13 -14 15 -13 13 4
-1 13 -8 18 -28 17 -15 0 -25 -4 -22 -9z"/>
<path d="M40302 24036 c15 -30 16 -30 14 -3 0 13 -6 24 -13 24 -9 0 -9 -6 -1
-21z"/>
<path d="M42740 24040 c-22 -22 -26 -40 -8 -40 6 0 8 3 5 7 -12 11 24 42 41
36 10 -4 13 -2 8 5 -10 17 -23 15 -46 -8z"/>
<path d="M42854 24048 c10 -6 22 -6 26 -2 5 5 -3 10 -18 11 -22 1 -24 0 -8 -9z"/>
<path d="M40206 24029 c3 -5 -3 -9 -13 -10 -14 0 -12 -3 6 -10 13 -5 26 -7 29
-4 3 3 -1 5 -9 6 -8 1 -3 4 11 8 l25 7 -27 6 c-15 3 -25 1 -22 -3z"/>
<path d="M42820 24030 c14 -4 32 -8 40 -9 13 -1 13 0 0 9 -8 5 -26 9 -40 9
l-25 -1 25 -8z"/>
<path d="M40385 24010 c-23 -10 -13 -13 30 -10 40 2 58 20 20 19 -17 0 -39 -4
-50 -9z"/>
<path d="M42810 24010 c0 -5 5 -10 10 -10 6 0 10 5 10 10 0 6 -4 10 -10 10 -5
0 -10 -4 -10 -10z"/>
<path d="M40243 23996 c-3 -5 -1 -6 5 -2 7 4 12 1 12 -6 0 -9 3 -9 10 2 5 8
10 10 10 4 0 -7 7 -14 15 -18 9 -3 15 0 15 10 0 8 -4 12 -10 9 -5 -3 -10 -2
-10 4 0 12 -39 10 -47 -3z"/>
<path d="M40683 24003 c-22 -8 -14 -23 12 -23 16 0 25 6 25 15 0 15 -14 18
-37 8z"/>
<path d="M42678 24004 c-3 -3 -20 -6 -37 -6 -19 -1 -31 -6 -31 -14 0 -10 6
-11 24 -4 18 6 28 5 36 -4 12 -16 81 -3 115 22 l20 14 -20 -7 c-39 -15 -63
-17 -69 -6 -8 12 -29 15 -38 5z"/>
<path d="M42578 23993 c7 -3 16 -2 19 1 4 3 -2 6 -13 5 -11 0 -14 -3 -6 -6z"/>
<path d="M40524 23981 c3 -4 -12 -7 -34 -6 -22 1 -37 -2 -34 -6 3 -5 0 -9 -5
-9 -6 0 -11 4 -11 10 0 11 -35 8 -47 -4 -5 -4 -1 -6 7 -4 8 2 14 -3 15 -11 0
-17 25 -28 25 -12 0 6 8 11 18 10 10 0 12 -3 5 -6 -7 -2 -13 -8 -13 -12 0 -4
6 -8 13 -9 17 -1 48 -9 77 -20 14 -5 33 -8 43 -7 9 2 17 -1 17 -6 0 -5 8 -9
18 -9 14 0 15 2 2 10 -12 7 -11 9 5 9 11 0 35 3 53 7 24 5 32 3 30 -7 -4 -16
23 -19 35 -4 5 6 7 4 5 -5 -3 -8 -16 -15 -31 -15 -14 -1 -24 2 -21 6 2 4 0 10
-6 14 -5 3 -10 -1 -10 -10 0 -16 8 -21 50 -29 64 -13 84 -17 92 -22 4 -3 5 3
2 13 -5 16 -4 16 8 3 14 -17 32 -20 45 -7 4 5 4 8 -2 7 -31 -7 -34 2 -13 30
26 36 48 39 48 8 -1 -21 -2 -21 -13 -6 -12 15 -14 15 -25 -3 -14 -23 -15 -32
-3 -24 5 3 16 -4 24 -14 8 -13 29 -22 58 -26 24 -3 56 -8 72 -11 19 -4 27 -2
27 8 0 9 3 9 8 2 10 -16 64 -24 86 -12 14 8 17 7 11 -2 -6 -9 0 -11 24 -8 18
3 35 0 38 -5 3 -5 12 1 20 14 12 21 13 21 8 3 -5 -19 -1 -21 47 -21 63 -1 73
3 56 25 -12 15 -11 16 4 3 10 -7 15 -17 12 -22 -3 -5 2 -9 10 -9 9 0 16 4 16
9 0 5 11 11 24 13 17 4 23 1 19 -9 -5 -14 2 -16 57 -14 19 0 74 1 123 2 69 1
89 5 97 18 5 9 10 11 10 5 0 -7 22 -11 63 -9 107 4 118 5 114 13 -3 4 28 7 68
8 44 0 80 6 89 13 8 7 21 9 27 5 8 -4 9 -3 5 4 -9 16 7 15 22 0 9 -9 18 -9 37
0 13 6 32 9 40 6 8 -4 15 -1 15 6 0 7 7 10 16 6 9 -3 35 -1 58 6 22 6 45 11
50 9 5 -1 16 1 25 5 9 4 25 9 36 10 50 7 120 25 129 34 7 7 6 10 -3 10 -7 0
-9 6 -6 13 4 6 -1 3 -9 -7 -12 -14 -16 -16 -16 -5 0 21 20 47 26 33 14 -33 32
-47 50 -39 10 4 23 7 28 6 4 -1 15 4 23 11 9 7 26 11 39 10 24 -3 33 11 14 23
-5 3 -10 3 -10 -2 0 -4 -14 -9 -30 -10 -17 -1 -29 1 -26 5 2 4 -19 8 -49 7
-63 0 -104 -27 -82 -53 10 -13 9 -15 -4 -10 -9 4 -28 0 -42 -7 -15 -7 -35 -11
-45 -8 -11 2 -23 0 -26 -6 -4 -6 -12 -11 -17 -11 -6 0 -7 5 -4 10 8 13 -8 13
-21 0 -17 -17 -75 -31 -73 -17 4 32 -1 37 -28 26 -14 -5 -33 -7 -40 -5 -8 3
-12 2 -9 -3 3 -5 -1 -12 -10 -15 -8 -3 -12 -2 -9 3 3 5 1 12 -5 16 -5 3 -10 1
-10 -4 0 -6 -5 -11 -11 -11 -6 0 -9 7 -5 15 3 8 1 15 -3 15 -5 0 -11 -7 -15
-15 -4 -10 5 -19 26 -28 21 -9 28 -16 20 -21 -7 -4 -12 -2 -12 3 0 6 -9 11
-19 11 -11 0 -22 4 -26 9 -3 6 -23 9 -45 9 -22 0 -46 5 -54 11 -7 6 -40 12
-72 14 -33 1 -62 6 -65 11 -4 4 -16 3 -27 -3 -11 -6 -46 -11 -76 -11 -31 0
-56 -4 -56 -10 0 -5 -12 -10 -26 -10 -14 0 -23 -4 -19 -10 3 -5 -3 -10 -14
-10 -12 0 -20 3 -20 8 4 25 -4 32 -41 32 -23 0 -40 -5 -40 -11 0 -8 -12 -10
-34 -6 -18 3 -38 1 -43 -4 -5 -5 -63 -12 -129 -14 -65 -2 -111 -2 -101 1 9 3
15 9 12 13 -2 5 3 8 13 8 47 0 56 3 45 14 -14 14 -163 2 -163 -12 0 -5 -36 -9
-82 -7 -46 1 -75 3 -65 6 9 2 14 8 11 13 -3 6 4 5 16 -3 18 -10 24 -10 27 0 3
7 23 12 49 12 39 0 44 3 44 23 l0 22 -240 2 c-194 2 -240 0 -240 -10 0 -22
-47 -38 -91 -31 -21 4 -39 10 -39 14 0 5 -3 17 -6 27 -3 10 -2 14 3 8 4 -5 19
-11 33 -12 14 -1 19 1 13 3 -7 3 -13 11 -13 17 0 6 7 4 16 -5 13 -13 22 -14
46 -6 22 8 26 13 16 19 -17 11 -101 12 -94 0z m-89 -20 c3 -5 2 -12 -3 -15 -5
-3 -9 1 -9 9 0 17 3 19 12 6z m58 -11 c3 -13 0 -20 -8 -20 -11 0 -13 14 -6 38
3 8 9 -1 14 -18z m2062 10 c-3 -5 -12 -10 -18 -10 -7 0 -6 4 3 10 19 12 23 12
15 0z m29 -6 c3 -8 2 -12 -3 -9 -5 3 -12 1 -16 -5 -3 -5 -10 -10 -16 -10 -7 0
16 32 27 39 1 1 5 -6 8 -15z m-1737 -71 c-14 -14 -19 -15 -29 -4 -11 10 -10
11 5 6 10 -4 17 -2 17 4 0 6 5 11 12 11 8 0 6 -6 -5 -17z m-54 -10 c-5 -12 -3
-14 7 -8 8 5 11 4 7 -3 -10 -14 -40 -8 -45 9 -3 11 -2 12 6 1 7 -11 10 -11 15
2 4 9 9 16 11 16 3 0 2 -7 -1 -17z m1412 4 c-27 -18 -55 -28 -55 -19 0 9 39
29 60 31 10 1 8 -3 -5 -12z m-345 -19 c0 -6 -7 -7 -16 -4 -9 3 -18 6 -20 6 -3
0 -3 4 1 10 7 11 35 2 35 -12z m130 12 c13 -8 13 -10 -2 -10 -9 0 -20 5 -23
10 -8 13 5 13 25 0z m53 -17 c-7 -2 -19 -2 -25 0 -7 3 -2 5 12 5 14 0 19 -2
13 -5z m-1108 -13 c-3 -5 -11 -10 -16 -10 -6 0 -7 5 -4 10 3 6 11 10 16 10 6
0 7 -4 4 -10z m1060 0 c3 -6 -4 -10 -17 -10 -18 0 -20 2 -8 10 19 12 18 12 25
0z m-342 -24 c15 -12 15 -14 2 -19 -8 -4 -14 -3 -14 1 3 19 -2 23 -16 12 -8
-7 -15 -9 -15 -5 0 4 -7 2 -15 -5 -9 -7 -18 -10 -22 -6 -3 3 -1 6 6 6 7 0 9 5
5 12 -4 6 -3 8 4 4 6 -3 13 -2 17 4 8 14 26 12 48 -4z m-318 -18 c6 -5 -3 -4
-18 1 -35 14 -40 14 -32 1 3 -6 -1 -7 -10 -3 -13 5 -14 7 -3 14 14 9 47 3 63
-13z m220 1 c-4 -5 -13 -9 -21 -9 -12 0 -12 2 -2 14 14 15 32 11 23 -5z m235
17 c0 -2 -7 -7 -16 -10 -8 -3 -12 -2 -9 4 6 10 25 14 25 6z m77 -2 c-3 -3 -12
-4 -19 -1 -8 3 -5 6 6 6 11 1 17 -2 13 -5z"/>
<path d="M40326 23968 c3 -4 12 -8 20 -8 8 0 14 4 14 8 0 4 -9 8 -19 8 -11 0
-17 -4 -15 -8z"/>
<path d="M40373 23966 c1 -11 9 -21 17 -23 10 -3 11 -2 4 4 -6 4 -14 15 -17
23 -5 11 -6 9 -4 -4z"/>
<path d="M42395 23940 c-3 -5 1 -10 9 -10 9 0 16 5 16 10 0 6 -4 10 -9 10 -6
0 -13 -4 -16 -10z"/>
<path d="M40528 23933 c6 -2 18 -2 25 0 6 3 1 5 -13 5 -14 0 -19 -2 -12 -5z"/>
<path d="M40653 23893 c-17 -6 -17 -23 0 -23 8 0 14 7 14 15 0 8 -1 15 -1 14
-1 0 -7 -3 -13 -6z"/>
<path d="M42260 23890 c-13 -8 -13 -10 2 -10 9 0 20 5 23 10 8 13 -5 13 -25 0z"/>
<path d="M41405 23780 c3 -5 8 -10 11 -10 2 0 4 5 4 10 0 6 -5 10 -11 10 -5 0
-7 -4 -4 -10z"/>
<path d="M33240 23770 c-9 -6 -10 -10 -3 -10 6 0 15 5 18 10 8 12 4 12 -15 0z"/>
<path d="M33184 23678 l-19 -23 23 19 c21 18 27 26 19 26 -2 0 -12 -10 -23
-22z"/>
<path d="M33143 23623 c4 -3 1 -13 -6 -22 -11 -14 -10 -14 5 -2 16 12 16 31 1
31 -4 0 -3 -3 0 -7z"/>
<path d="M33033 23465 c4 -5 0 -17 -10 -27 -9 -10 -14 -20 -12 -22 2 -2 12 6
22 19 13 18 14 25 5 31 -7 4 -10 3 -5 -1z"/>
<path d="M32974 23403 c16 -20 36 -23 36 -6 0 4 -3 3 -7 0 -3 -4 -16 1 -27 10
-21 18 -21 18 -2 -4z"/>
<path d="M32889 23338 c-1 -2 -2 -18 -3 -37 -1 -25 -7 -35 -21 -37 -26 -4 -47
-33 -39 -56 3 -10 1 -18 -5 -18 -5 0 -13 -9 -16 -20 -7 -23 -25 -27 -25 -5 0
8 -9 15 -20 15 -11 0 -20 -7 -20 -15 0 -11 -12 -15 -49 -15 -44 0 -50 -3 -53
-22 -2 -19 -10 -23 -38 -24 -122 -3 -120 -3 -120 -28 0 -17 -7 -26 -25 -30
-15 -4 -25 -14 -25 -25 0 -37 -32 -51 -113 -51 -70 0 -77 -2 -77 -20 0 -17 -7
-20 -40 -20 -22 0 -40 -4 -40 -10 0 -5 -18 -10 -40 -10 -36 0 -40 -2 -40 -25
0 -22 -4 -25 -40 -25 -22 0 -40 -4 -40 -10 0 -5 -22 -10 -49 -10 -42 0 -53 -4
-74 -30 -30 -35 -34 -36 -39 -13 -3 15 -4 15 -17 0 -12 -15 -11 -17 3 -17 9 0
16 -7 16 -15 0 -23 -80 -21 -81 3 0 13 -2 12 -9 -5 -10 -24 -62 -43 -117 -43
-18 0 -33 -4 -33 -10 0 -5 18 -10 40 -10 22 0 40 -4 40 -10 0 -5 -18 -10 -40
-10 -29 0 -40 -4 -40 -15 0 -11 -11 -15 -40 -15 -36 0 -40 -2 -40 -25 0 -18
-5 -25 -20 -25 -11 0 -20 5 -20 10 0 6 -9 10 -20 10 -11 0 -20 -4 -20 -10 0
-5 7 -10 15 -10 8 0 15 -7 15 -15 0 -12 -13 -15 -56 -15 -52 0 -55 -1 -52 -22
3 -20 -2 -23 -39 -26 -29 -2 -43 -8 -43 -18 0 -11 -17 -14 -84 -14 -62 0 -87
-4 -96 -15 -7 -8 -23 -15 -36 -15 -19 0 -24 -5 -24 -25 0 -22 -4 -25 -40 -25
l-40 0 0 -40 0 -40 -44 0 c-28 0 -48 -6 -57 -16 -9 -11 -23 -14 -45 -11 -57
10 -74 0 -74 -44 0 -22 -4 -39 -10 -39 -5 0 -10 7 -10 15 0 16 -9 19 -34 9
-23 -9 -20 -24 5 -24 33 0 16 -25 -19 -28 -18 -2 -32 -7 -32 -13 0 -5 -18 -9
-40 -9 -38 0 -40 -2 -40 -29 0 -27 4 -30 38 -34 20 -2 11 -3 -20 -1 l-58 4 0
-48 c0 -38 -5 -53 -23 -70 -39 -37 -57 -29 -57 23 0 38 -3 45 -20 45 -11 0
-20 -4 -20 -10 0 -5 7 -10 15 -10 8 0 15 -7 15 -15 0 -12 -14 -15 -68 -15 -79
0 -102 -17 -102 -75 0 -19 -4 -35 -10 -35 -5 0 -10 7 -10 16 0 14 -2 15 -17 3
-15 -13 -15 -14 0 -17 12 -3 17 -14 17 -43 l0 -39 -80 0 -80 0 0 -40 c0 -33
-3 -40 -20 -40 -13 0 -20 -7 -20 -20 0 -13 7 -20 20 -20 23 0 26 -19 8 -39
-11 -11 -8 -13 15 -9 23 5 30 1 38 -19 5 -15 14 -21 21 -17 7 4 8 3 4 -4 -11
-18 -49 5 -42 24 3 8 2 13 -3 10 -5 -3 -8 -17 -8 -32 0 -20 3 -25 18 -21 11 3
19 0 19 -5 0 -6 8 -4 17 3 9 8 14 9 10 3 -4 -7 2 -14 13 -17 24 -6 277 -1 335
6 44 6 83 16 295 72 14 4 34 10 45 15 11 4 45 16 75 25 186 55 457 176 679
302 73 42 135 83 138 90 3 7 8 11 12 9 4 -3 29 11 56 30 28 19 61 42 75 51 14
10 37 26 51 38 15 11 39 29 55 40 58 41 189 158 186 167 -1 5 1 7 6 4 5 -3 30
13 55 36 40 35 45 43 35 57 -11 14 -11 14 3 3 14 -10 32 4 128 104 61 63 109
119 106 125 -4 5 -2 8 2 7 15 -5 75 61 67 73 -4 7 -3 9 4 6 14 -9 64 51 55 66
-13 20 -11 34 3 34 10 0 11 -4 3 -13 -6 -7 -6 -14 -1 -18 13 -8 97 104 98 129
0 11 6 19 13 17 16 -3 57 48 53 66 -2 9 1 11 9 6 9 -5 11 -1 7 14 -4 12 -3 20
1 17 15 -9 42 20 35 38 -3 9 -10 17 -14 17 -13 0 1 38 16 44 8 3 14 1 14 -4 0
-6 -4 -10 -10 -10 -5 0 -10 -5 -10 -11 0 -6 7 -8 16 -5 14 5 15 4 4 -9 -8 -10
-9 -15 -1 -15 6 0 11 4 11 10 0 5 9 18 20 28 18 17 19 21 6 31 -9 8 -13 24
-11 42 3 23 -1 39 -6 27z m3 -90 c-7 -7 -12 -8 -12 -2 0 14 12 26 19 19 2 -3
-1 -11 -7 -17z m-52 -73 c-7 -9 -15 -13 -17 -11 -7 7 7 26 19 26 6 0 6 -6 -2
-15z m-115 -71 c13 -6 14 -9 3 -16 -9 -7 -7 -8 10 -5 12 3 22 1 22 -5 0 -6
-14 -8 -37 -3 -44 8 -47 10 -38 24 7 13 17 14 40 5z m-35 -88 c0 -3 -4 -8 -10
-11 -5 -3 -10 -1 -10 4 0 6 5 11 10 11 6 0 10 -2 10 -4z m20 -20 c0 -2 -7 -7
-16 -10 -8 -3 -12 -2 -9 4 6 10 25 14 25 6z m-100 -100 c0 -2 -8 -10 -17 -17
-16 -13 -17 -12 -4 4 13 16 21 21 21 13z m-100 -50 c0 -3 -4 -8 -10 -11 -5 -3
-10 -1 -10 4 0 6 5 11 10 11 6 0 10 -2 10 -4z m-1450 -502 c0 -8 -4 -14 -10
-14 -5 0 -10 9 -10 21 0 11 5 17 10 14 6 -3 10 -13 10 -21z m-660 -374 c0 -5
8 -10 18 -11 9 0 12 -3 6 -5 -7 -3 -27 2 -45 10 -34 14 -34 14 -6 15 15 1 27
-3 27 -9z m0 -112 c0 -36 -2 -38 -30 -38 -29 0 -30 1 -30 49 l0 49 30 -11 c26
-10 30 -16 30 -49z"/>
<path d="M32919 23338 c-6 -22 -6 -59 0 -62 4 -3 13 4 20 16 7 11 8 17 2 13
-10 -5 -15 7 -12 28 1 6 -8 11 -10 5z"/>
<path d="M32946 23328 c3 -5 10 -6 15 -3 13 9 11 12 -6 12 -8 0 -12 -4 -9 -9z"/>
<path d="M32807 23253 c-4 -3 -7 -11 -7 -17 0 -6 5 -5 12 2 6 6 9 14 7 17 -3
3 -9 2 -12 -2z"/>
<path d="M32100 22960 c0 -16 7 -20 30 -20 23 0 30 4 30 20 0 16 -7 20 -30 20
-23 0 -30 -4 -30 -20z"/>
<path d="M31280 22630 c0 -5 5 -10 11 -10 5 0 7 5 4 10 -3 6 -8 10 -11 10 -2
0 -4 -4 -4 -10z"/>
<path d="M29696 21868 c3 -5 10 -6 15 -3 13 9 11 12 -6 12 -8 0 -12 -4 -9 -9z"/>
<path d="M29731 21855 c1 -19 18 -51 18 -35 0 8 -4 22 -9 30 -5 8 -9 11 -9 5z"/>
<path d="M29765 21799 c5 -25 23 -49 38 -49 6 0 1 10 -11 23 -12 13 -20 26
-16 29 3 3 1 9 -5 12 -6 4 -8 -2 -6 -15z"/>
<path d="M29796 21804 c-5 -14 -4 -15 9 -4 17 14 19 20 6 20 -5 0 -12 -7 -15
-16z"/>
<path d="M29857 21703 c21 -18 43 -31 50 -28 6 2 14 -3 17 -12 4 -9 9 -13 12
-10 4 3 13 0 21 -8 17 -18 33 -19 33 -4 0 5 -4 7 -10 4 -5 -3 -10 1 -10 10 0
9 -4 14 -9 11 -9 -6 -53 28 -46 36 3 2 -2 5 -10 5 -10 0 -14 -6 -10 -16 4 -11
0 -10 -13 4 -20 21 -19 40 1 29 7 -4 8 -3 4 2 -4 4 -22 9 -38 9 l-30 1 38 -33z"/>
<path d="M29980 21730 c0 -5 5 -10 10 -10 6 0 10 5 10 10 0 6 -4 10 -10 10 -5
0 -10 -4 -10 -10z"/>
<path d="M29950 21700 c0 -5 7 -10 15 -10 8 0 15 5 15 10 0 6 -7 10 -15 10 -8
0 -15 -4 -15 -10z"/>
<path d="M29993 21686 c-9 -11 -9 -20 0 -40 7 -14 17 -24 22 -22 6 2 18 -3 27
-12 10 -8 25 -12 35 -8 15 6 14 10 -10 32 -15 14 -27 34 -27 44 0 23 -29 26
-47 6z m41 -37 c-2 -4 2 -9 8 -12 7 -3 3 -4 -9 -4 -12 1 -20 4 -17 8 2 4 -2 9
-8 12 -7 3 -3 4 9 4 12 -1 20 -4 17 -8z"/>
<path d="M37459 19786 c-2 -2 -51 -7 -109 -10 -208 -12 -607 -84 -790 -141
-25 -8 -83 -26 -130 -40 -280 -85 -646 -256 -904 -422 -392 -254 -691 -539
-796 -758 -53 -111 -69 -171 -71 -275 -3 -155 51 -285 164 -395 66 -64 149
-119 194 -130 10 -3 42 -11 72 -20 61 -17 181 -23 256 -12 143 19 307 99 495
242 30 23 102 77 160 121 58 44 137 100 175 126 75 49 242 148 251 148 2 0 41
17 87 39 217 103 532 194 775 226 254 32 535 36 707 9 87 -13 261 -46 267 -50
5 -3 16 -7 25 -9 193 -45 490 -166 696 -284 20 -11 52 -29 70 -39 137 -79 406
-260 627 -423 390 -288 594 -397 810 -430 91 -14 254 -7 331 15 260 71 421
257 433 500 6 104 -53 268 -132 366 -37 47 -159 170 -202 205 -109 88 -222
176 -255 201 -22 16 -46 35 -54 42 -7 7 -39 31 -70 53 -31 22 -103 73 -161
114 -151 108 -548 372 -665 442 -92 55 -184 107 -275 154 -58 30 -269 129
-275 129 -3 0 -26 9 -51 20 -206 94 -605 209 -847 244 -27 4 -56 9 -65 11 -10
1 -51 6 -92 10 -41 4 -95 9 -120 12 -60 5 -526 13 -531 9z"/>
<path d="M19448 11783 c20 -8 7 -18 -71 -57 -52 -25 -106 -42 -183 -56 -60
-11 -138 -31 -174 -45 -36 -14 -106 -37 -157 -50 -51 -13 -109 -36 -130 -50
-21 -13 -66 -35 -99 -48 -134 -53 -397 -231 -511 -346 -69 -70 -183 -227 -229
-315 -119 -231 -165 -323 -175 -354 -6 -20 -31 -73 -54 -117 -24 -44 -46 -91
-50 -104 -4 -13 -20 -45 -35 -70 -15 -26 -37 -72 -48 -104 -12 -31 -33 -74
-47 -95 -13 -20 -34 -64 -45 -96 -11 -33 -30 -76 -41 -95 -12 -20 -30 -58 -41
-86 -10 -27 -37 -86 -58 -130 -22 -44 -50 -105 -64 -135 -14 -30 -31 -66 -40
-80 -23 -40 -126 -257 -126 -267 0 -4 -20 -48 -44 -98 -63 -128 -146 -309
-146 -320 0 -5 -16 -35 -35 -67 -20 -32 -44 -82 -55 -112 -10 -30 -32 -81 -49
-113 -49 -95 -129 -266 -136 -289 -3 -12 -26 -57 -50 -100 -25 -43 -45 -84
-45 -90 0 -7 -15 -41 -33 -76 -18 -35 -39 -79 -46 -98 -12 -32 -28 -67 -139
-300 -22 -47 -54 -115 -70 -151 -16 -37 -34 -69 -40 -73 -6 -3 -16 -23 -22
-44 -11 -36 -80 -184 -161 -345 -21 -43 -39 -85 -39 -94 0 -8 -18 -49 -39 -91
-22 -42 -61 -122 -87 -177 -25 -55 -70 -149 -99 -210 -30 -60 -57 -121 -61
-135 -3 -14 -22 -52 -40 -85 -18 -34 -40 -79 -48 -102 -8 -23 -26 -58 -40 -80
-14 -21 -32 -58 -40 -83 -9 -25 -34 -81 -55 -125 -22 -44 -63 -132 -91 -195
-49 -108 -133 -289 -168 -355 -74 -143 -162 -330 -162 -344 0 -7 -17 -47 -39
-89 -21 -42 -44 -93 -52 -112 -7 -19 -24 -53 -37 -74 -13 -21 -32 -63 -42 -92
-10 -29 -37 -83 -59 -120 -23 -37 -41 -73 -41 -78 0 -6 -20 -54 -45 -106 -25
-52 -45 -100 -45 -106 0 -5 -17 -39 -39 -75 -21 -35 -41 -75 -45 -89 -4 -14
-29 -70 -55 -125 -91 -187 -129 -270 -142 -305 -7 -19 -27 -62 -45 -95 -19
-34 -40 -81 -49 -105 -8 -24 -28 -64 -43 -89 -16 -25 -36 -68 -45 -94 -9 -27
-29 -70 -45 -95 -16 -26 -39 -73 -51 -106 -12 -32 -33 -77 -46 -100 -13 -22
-34 -68 -46 -101 -12 -33 -32 -76 -44 -95 -12 -19 -31 -60 -43 -91 -11 -31
-37 -86 -56 -123 -20 -37 -36 -73 -36 -80 0 -7 -16 -39 -36 -72 -20 -32 -44
-81 -54 -109 -9 -27 -38 -90 -64 -138 -25 -48 -46 -94 -46 -101 0 -7 -18 -42
-39 -78 -48 -78 -55 -104 -47 -163 l7 -45 1008 0 1008 0 13 71 c7 40 27 99 45
133 17 33 38 79 45 101 6 22 29 69 50 105 21 36 43 81 49 100 6 19 49 111 96
204 47 94 85 176 85 184 0 8 20 51 44 96 24 45 47 92 51 106 4 14 22 54 40 90
17 36 37 81 44 101 6 20 26 60 44 90 18 30 38 70 46 89 14 39 94 207 147 312
19 36 41 84 48 106 14 38 43 101 142 310 24 50 64 134 88 185 24 50 62 130 85
177 23 47 48 105 56 130 9 24 29 65 45 90 17 26 38 71 49 102 10 30 31 74 46
98 15 23 33 61 41 84 8 22 29 68 46 100 16 33 39 85 49 115 11 31 31 73 45 95
14 21 37 68 50 104 14 36 34 78 45 93 11 15 26 47 35 71 8 23 32 74 53 113 21
38 42 81 45 95 4 14 25 61 46 105 97 202 138 292 145 315 4 14 23 52 41 85 18
34 40 81 49 105 8 24 28 64 43 89 16 25 37 71 47 101 10 30 32 80 50 110 18
30 41 78 51 105 10 28 27 66 39 85 12 19 34 66 49 104 15 37 38 85 52 105 13
20 29 54 35 76 6 22 50 121 99 220 48 99 90 191 93 205 4 14 22 50 42 79 19
30 40 71 46 90 7 20 29 70 49 111 21 41 41 86 45 100 4 14 27 62 51 108 24 46
44 90 44 99 0 8 14 40 31 69 17 30 41 82 54 115 14 34 38 82 54 108 16 25 34
64 41 86 7 22 28 67 46 100 18 33 42 85 55 115 13 30 33 71 44 90 12 19 30 60
40 90 9 30 28 72 41 93 13 20 33 58 43 85 11 26 37 85 60 131 23 47 41 90 41
96 0 6 16 38 36 71 20 32 47 89 59 125 12 36 34 83 47 105 14 21 33 61 43 87
10 26 31 69 47 94 16 25 38 73 48 105 10 33 26 68 35 77 8 10 30 54 49 97 18
44 55 113 83 154 64 94 322 357 386 394 62 35 255 76 364 76 106 0 272 -32
343 -67 38 -18 88 -60 160 -132 163 -164 230 -248 282 -352 107 -217 138 -285
138 -301 0 -9 17 -50 38 -90 21 -40 44 -89 51 -108 13 -34 57 -130 146 -312
24 -51 47 -106 51 -123 3 -16 21 -57 39 -90 17 -33 38 -78 45 -100 7 -22 26
-67 43 -100 16 -33 38 -84 48 -114 11 -30 33 -75 49 -101 16 -26 38 -71 49
-101 18 -53 63 -152 141 -314 21 -44 44 -98 51 -120 7 -22 29 -73 51 -113 21
-40 38 -80 38 -89 0 -9 15 -44 34 -77 18 -34 39 -79 46 -101 7 -22 29 -71 50
-110 21 -38 45 -95 54 -125 9 -30 27 -71 41 -92 14 -21 36 -66 49 -102 13 -35
35 -81 48 -102 14 -22 35 -70 47 -109 13 -38 31 -82 42 -97 11 -15 28 -51 38
-80 10 -29 37 -91 60 -137 22 -47 41 -91 41 -99 0 -7 20 -52 44 -100 61 -118
125 -255 142 -306 8 -22 29 -65 45 -95 17 -30 38 -77 46 -105 8 -28 30 -78 48
-111 18 -33 38 -78 45 -100 7 -22 30 -76 52 -119 21 -44 38 -85 38 -91 0 -6
17 -40 39 -76 21 -35 48 -96 60 -134 11 -39 32 -87 46 -107 13 -20 34 -63 46
-95 12 -32 32 -76 45 -98 12 -22 29 -64 38 -93 8 -29 29 -77 46 -106 16 -29
41 -84 55 -121 15 -38 37 -87 50 -109 13 -23 31 -63 40 -91 9 -27 28 -69 42
-93 13 -24 33 -68 44 -99 10 -31 33 -82 50 -112 17 -30 40 -80 51 -111 10 -30
29 -71 42 -90 12 -19 31 -60 41 -90 10 -30 35 -89 55 -130 21 -41 41 -86 45
-100 4 -14 22 -54 40 -90 17 -36 40 -88 49 -116 9 -28 30 -72 46 -97 16 -25
36 -67 45 -94 8 -26 31 -79 50 -118 65 -132 135 -288 135 -301 0 -7 18 -47 39
-89 22 -42 45 -93 51 -113 7 -20 31 -77 55 -127 23 -49 61 -128 83 -175 23
-47 46 -103 51 -125 6 -22 26 -66 45 -97 19 -32 42 -79 51 -105 9 -26 31 -78
50 -115 18 -38 39 -100 46 -138 l12 -70 1017 0 1018 0 6 31 c11 58 6 77 -59
207 -36 71 -65 135 -65 142 0 7 -18 45 -39 84 -22 39 -42 88 -46 108 -4 21
-21 61 -39 90 -17 29 -38 69 -45 88 -8 19 -36 80 -63 134 -26 55 -48 106 -48
113 0 8 -17 46 -39 86 -21 40 -42 86 -45 102 -4 17 -24 66 -45 110 -84 172
-131 274 -131 282 0 4 -22 53 -49 108 -84 170 -138 288 -151 330 -6 22 -27 69
-45 105 -18 36 -38 83 -45 105 -7 22 -23 59 -37 81 -13 23 -35 70 -48 104 -13
34 -38 83 -54 109 -16 25 -36 70 -45 98 -8 29 -30 81 -49 115 -19 35 -40 81
-47 103 -7 22 -25 65 -41 95 -16 30 -36 75 -44 100 -9 25 -31 70 -49 100 -19
30 -41 79 -50 109 -9 30 -26 72 -40 95 -13 23 -33 68 -45 101 -12 33 -33 78
-45 100 -13 22 -31 65 -41 95 -10 30 -35 82 -55 115 -21 33 -43 78 -49 100 -7
22 -27 72 -46 110 -66 135 -133 290 -140 321 -3 18 -20 54 -37 80 -17 27 -39
73 -49 103 -11 30 -32 78 -47 105 -16 28 -39 78 -52 111 -13 33 -35 78 -48 99
-13 21 -32 62 -42 91 -10 28 -32 78 -49 111 -17 33 -38 84 -47 113 -9 30 -27
73 -42 95 -14 23 -31 61 -39 85 -7 25 -30 76 -52 115 -21 39 -44 89 -51 111
-7 22 -25 60 -40 85 -16 25 -35 68 -43 95 -8 28 -35 90 -61 140 -25 49 -46 96
-46 105 0 8 -14 40 -31 70 -17 30 -40 80 -51 110 -12 30 -32 71 -44 90 -13 19
-32 63 -43 98 -11 34 -36 91 -55 125 -18 34 -39 80 -46 102 -7 22 -26 66 -42
97 -15 32 -38 84 -50 115 -11 32 -32 72 -45 90 -14 18 -33 59 -44 92 -10 33
-29 77 -42 98 -13 21 -34 65 -46 98 -12 33 -35 85 -50 115 -16 30 -36 78 -44
106 -8 28 -31 82 -50 120 -55 105 -133 274 -152 323 -9 25 -25 56 -34 70 -10
14 -31 60 -45 101 -15 41 -36 89 -47 106 -11 18 -28 58 -39 90 -11 32 -33 81
-49 108 -15 28 -38 80 -51 116 -13 36 -33 81 -46 100 -13 19 -32 61 -43 92
-11 31 -31 77 -45 101 -14 24 -34 68 -45 98 -10 30 -37 89 -60 132 -22 43 -41
84 -41 92 0 14 -80 181 -121 255 -11 19 -33 63 -49 97 -133 279 -367 496 -710
659 -41 19 -95 48 -120 64 -25 15 -72 34 -105 40 -33 7 -98 27 -145 45 -47 18
-133 42 -192 54 -113 21 -268 86 -260 109 3 9 -184 12 -780 11 -430 0 -777 -3
-770 -6z"/>
<path d="M55640 11777 c0 -8 -31 -30 -69 -50 -53 -28 -98 -41 -187 -57 -65
-12 -149 -34 -188 -50 -39 -16 -102 -37 -140 -45 -68 -16 -139 -46 -150 -64
-3 -4 -34 -19 -68 -31 -67 -25 -207 -106 -348 -201 -133 -89 -307 -284 -385
-431 -124 -234 -162 -309 -177 -350 -9 -26 -32 -78 -52 -115 -19 -38 -60 -122
-91 -188 -31 -66 -76 -160 -100 -210 -106 -221 -124 -261 -131 -285 -3 -14
-26 -63 -49 -110 -78 -155 -145 -295 -145 -304 0 -5 -13 -30 -29 -56 -16 -26
-41 -80 -55 -120 -15 -40 -35 -85 -45 -99 -18 -25 -67 -130 -132 -284 -16 -38
-38 -82 -49 -97 -11 -16 -32 -59 -46 -96 -14 -37 -38 -93 -54 -123 -48 -93
-137 -284 -148 -316 -5 -17 -21 -47 -35 -68 -14 -21 -31 -55 -38 -75 -6 -20
-29 -69 -50 -109 -22 -39 -48 -95 -58 -125 -10 -29 -30 -75 -44 -103 -47 -92
-115 -239 -135 -291 -11 -29 -31 -67 -46 -86 -14 -19 -34 -59 -45 -89 -10 -30
-55 -128 -99 -219 -44 -91 -85 -183 -91 -205 -6 -22 -22 -56 -36 -75 -14 -19
-34 -59 -46 -89 -11 -31 -34 -81 -50 -111 -16 -30 -36 -75 -44 -100 -9 -24
-29 -65 -45 -90 -17 -26 -38 -71 -49 -101 -10 -30 -32 -79 -49 -110 -17 -30
-38 -74 -47 -98 -8 -24 -28 -65 -44 -91 -16 -27 -37 -69 -45 -94 -9 -26 -31
-77 -50 -114 -67 -129 -136 -277 -136 -288 0 -6 -40 -92 -89 -190 -49 -98 -92
-190 -96 -204 -4 -14 -23 -50 -41 -80 -18 -30 -42 -81 -53 -113 -11 -31 -31
-79 -45 -105 -51 -96 -136 -281 -136 -294 0 -8 -16 -41 -36 -74 -20 -32 -44
-79 -54 -104 -10 -25 -36 -83 -59 -129 -23 -47 -41 -90 -41 -96 0 -6 -16 -37
-34 -68 -19 -32 -45 -86 -57 -120 -12 -34 -32 -78 -45 -97 -13 -19 -32 -60
-43 -91 -10 -31 -31 -74 -45 -95 -14 -22 -34 -65 -45 -97 -11 -32 -34 -82 -50
-110 -16 -29 -34 -70 -41 -92 -7 -22 -29 -69 -50 -105 -21 -36 -44 -83 -51
-105 -6 -22 -25 -61 -41 -87 -16 -25 -40 -73 -53 -106 -13 -32 -33 -75 -44
-94 -12 -19 -29 -59 -40 -89 -10 -30 -33 -80 -50 -110 -17 -30 -39 -80 -50
-111 -10 -30 -31 -74 -46 -98 -15 -23 -33 -61 -41 -84 -8 -22 -25 -57 -38 -76
-12 -19 -32 -61 -44 -92 -12 -31 -42 -96 -67 -143 -25 -47 -45 -91 -45 -98 0
-7 -22 -51 -49 -98 -55 -96 -66 -132 -56 -189 l7 -40 1007 0 1008 0 17 78 c10
42 38 120 63 172 25 52 64 136 88 185 23 50 64 135 89 190 26 55 66 138 90
185 24 47 47 96 50 110 4 14 27 66 51 115 79 164 115 243 131 287 8 24 32 72
53 108 22 36 44 83 51 105 7 22 27 65 45 95 18 30 36 66 40 80 4 14 24 59 45
100 20 41 43 93 50 115 7 22 27 65 45 95 18 30 36 66 40 80 6 23 48 112 145
315 71 147 137 290 150 325 8 19 26 53 40 75 15 22 33 58 40 80 7 22 30 74 50
115 20 41 43 91 51 110 7 19 30 68 51 108 21 40 38 81 38 91 0 9 16 44 36 77
20 32 42 76 50 97 7 21 27 64 43 95 71 140 151 308 151 317 0 6 21 53 46 105
88 181 113 235 133 287 12 29 32 70 45 90 14 21 32 56 39 79 8 22 38 89 67
150 29 60 72 152 97 204 24 52 59 124 77 160 19 36 39 83 46 105 7 22 25 61
41 86 16 25 38 71 48 102 11 30 33 82 50 114 48 92 129 266 136 293 4 14 24
54 45 90 21 36 48 90 60 120 12 30 30 69 41 86 11 18 28 57 38 87 10 30 30 72
43 93 14 21 35 71 48 109 13 39 35 88 50 110 14 22 35 63 45 90 10 28 31 71
47 96 15 26 37 71 47 101 10 30 30 73 43 94 14 21 35 65 46 97 12 32 37 88 56
125 73 143 226 473 226 487 0 6 15 35 34 66 18 30 43 82 55 115 12 32 36 83
53 113 16 30 36 71 43 90 7 20 27 58 44 86 17 27 31 56 31 66 0 22 147 312
187 369 17 25 96 110 175 190 170 173 210 197 373 230 91 19 130 21 225 17
130 -7 248 -34 322 -74 79 -43 365 -350 400 -431 11 -24 33 -65 48 -89 16 -25
32 -59 36 -77 3 -17 20 -58 37 -91 16 -33 40 -87 52 -120 13 -33 42 -95 64
-138 23 -43 41 -86 41 -96 0 -9 14 -39 31 -67 18 -27 40 -72 49 -100 10 -28
34 -82 53 -120 19 -38 40 -87 47 -109 7 -22 27 -67 45 -100 18 -33 40 -85 50
-115 9 -30 30 -75 45 -100 16 -25 32 -58 35 -75 4 -16 27 -66 50 -110 23 -44
46 -91 50 -105 9 -33 85 -203 141 -315 24 -49 44 -97 44 -105 0 -8 20 -55 44
-105 62 -124 113 -238 141 -311 13 -34 34 -79 48 -101 14 -22 32 -63 41 -91 8
-28 33 -86 55 -129 61 -120 119 -246 127 -278 4 -17 29 -73 56 -124 26 -52 48
-101 48 -109 0 -8 17 -49 39 -91 21 -42 44 -94 51 -116 7 -22 27 -67 45 -100
18 -33 38 -78 45 -100 7 -22 25 -61 41 -86 16 -25 38 -72 49 -103 11 -32 33
-81 49 -109 16 -29 36 -77 46 -107 10 -30 30 -77 45 -105 15 -27 33 -68 40
-90 7 -22 27 -69 45 -105 18 -36 44 -94 58 -128 14 -34 34 -74 45 -90 11 -15
29 -55 40 -88 11 -34 36 -92 55 -130 19 -38 38 -80 42 -94 4 -14 23 -55 41
-91 19 -36 41 -88 49 -116 8 -27 27 -68 42 -89 14 -21 37 -70 50 -109 13 -38
34 -88 47 -110 13 -22 33 -67 45 -100 13 -33 35 -82 51 -110 15 -27 35 -73 44
-101 9 -28 30 -72 46 -97 16 -25 36 -69 44 -98 9 -28 27 -72 41 -96 14 -24 37
-74 51 -111 14 -37 36 -85 49 -107 13 -23 33 -72 46 -110 12 -39 32 -86 44
-105 12 -19 32 -62 44 -95 12 -33 35 -80 51 -105 15 -25 33 -63 40 -85 7 -22
29 -74 50 -115 20 -41 43 -93 50 -115 7 -22 25 -63 41 -92 16 -28 38 -77 49
-109 11 -31 32 -78 46 -103 14 -25 37 -76 50 -114 12 -37 32 -81 44 -97 11
-16 30 -55 40 -86 11 -32 31 -76 45 -100 14 -23 37 -75 51 -115 15 -40 37 -89
50 -109 13 -19 32 -60 43 -90 10 -30 33 -84 50 -120 17 -36 31 -73 31 -84 0
-10 5 -36 12 -57 l11 -39 1013 0 1013 0 6 44 c9 60 0 93 -46 171 -23 37 -49
90 -59 119 -9 28 -32 77 -49 107 -17 31 -38 80 -47 109 -9 29 -27 71 -41 93
-14 22 -33 64 -43 93 -11 30 -34 82 -53 116 -19 35 -40 81 -47 103 -7 22 -30
72 -51 111 -22 39 -39 77 -39 85 0 8 -16 48 -36 89 -20 41 -45 100 -55 130
-11 30 -30 71 -42 90 -13 19 -29 51 -36 70 -7 19 -34 80 -61 135 -115 241
-129 272 -141 310 -6 22 -29 74 -49 115 -21 41 -41 86 -44 100 -8 26 -66 151
-142 303 -24 48 -44 95 -44 104 0 8 -17 48 -39 87 -21 39 -44 89 -51 111 -7
22 -29 74 -50 115 -20 41 -40 89 -44 105 -4 17 -21 51 -37 76 -16 25 -38 72
-49 104 -11 32 -33 82 -49 109 -15 28 -38 78 -50 111 -12 33 -31 74 -41 92
-10 18 -30 63 -44 102 -14 39 -36 87 -49 108 -13 21 -34 65 -46 98 -12 33 -36
83 -52 112 -16 28 -38 77 -49 108 -11 31 -29 72 -40 90 -11 18 -32 66 -45 105
-13 39 -33 86 -45 104 -11 18 -31 63 -45 100 -14 36 -36 83 -50 104 -13 20
-33 63 -44 95 -11 32 -34 82 -50 110 -16 29 -39 79 -52 111 -12 33 -30 73 -40
90 -10 17 -30 64 -44 104 -15 41 -39 94 -55 119 -16 25 -32 59 -35 77 -6 29
-40 103 -141 311 -24 50 -47 103 -50 119 -4 17 -22 55 -40 85 -18 31 -42 82
-53 114 -12 33 -36 91 -56 129 -19 39 -35 76 -35 82 0 7 -16 38 -35 71 -19 32
-43 83 -51 113 -9 31 -30 77 -45 103 -16 26 -38 71 -48 100 -20 56 -60 145
-141 314 -27 55 -52 111 -55 125 -4 14 -20 45 -35 70 -15 25 -36 70 -45 100
-10 30 -32 82 -50 115 -19 33 -40 83 -48 112 -9 29 -27 71 -41 95 -13 24 -35
70 -47 102 -12 33 -35 80 -50 104 -16 25 -35 68 -43 96 -9 28 -29 74 -47 101
-17 28 -40 73 -49 100 -10 28 -27 70 -39 93 -12 23 -33 75 -48 115 -14 39 -36
88 -50 107 -13 19 -31 60 -39 90 -9 30 -32 81 -50 112 -19 31 -43 81 -53 110
-10 29 -28 69 -40 89 -11 19 -30 62 -41 94 -11 32 -35 85 -54 119 -19 34 -40
81 -47 106 -7 25 -30 74 -51 110 -21 36 -38 69 -38 75 0 16 -121 252 -170 330
-72 116 -158 214 -266 299 -107 85 -308 211 -384 240 -25 10 -70 33 -100 51
-30 18 -82 38 -115 45 -33 7 -82 21 -110 32 -108 43 -134 51 -233 68 -71 13
-126 30 -178 56 -79 39 -92 49 -72 57 7 3 -339 6 -769 6 -650 1 -783 -1 -783
-12z"/>
<path d="M1230 6533 l0 -5053 874 0 874 0 7 27 c3 15 6 944 5 2065 0 1551 2
2043 11 2061 20 36 190 217 220 233 24 12 166 14 941 14 890 0 1420 -10 1643
-30 61 -6 191 -23 290 -39 99 -16 225 -36 280 -44 55 -9 134 -29 175 -46 41
-16 106 -37 144 -45 37 -9 96 -32 130 -50 33 -19 81 -42 106 -52 25 -10 69
-35 99 -56 30 -21 59 -38 64 -38 33 0 318 -276 486 -470 194 -224 250 -300
394 -535 30 -49 70 -115 89 -145 18 -30 56 -88 84 -130 28 -42 53 -81 55 -86
6 -14 133 -227 182 -304 22 -36 96 -157 163 -270 68 -113 162 -266 209 -340
47 -74 118 -189 157 -255 39 -66 81 -133 93 -150 13 -16 34 -52 48 -80 14 -27
55 -95 92 -150 37 -55 72 -111 77 -125 5 -14 26 -52 47 -85 21 -33 79 -125
128 -205 49 -80 103 -167 120 -195 92 -147 175 -287 204 -345 47 -93 49 -98
49 -115 0 -13 116 -15 1024 -15 l1023 0 7 38 c8 53 -7 97 -48 142 -19 22 -45
58 -57 82 -12 24 -39 69 -60 100 -22 31 -39 60 -39 63 0 4 -13 25 -29 48 -15
23 -38 62 -51 87 -12 25 -41 71 -64 102 -22 31 -60 89 -84 130 -24 40 -59 100
-79 133 -19 33 -47 80 -60 105 -14 25 -35 59 -47 75 -12 17 -48 75 -80 130
-32 55 -71 118 -86 140 -15 22 -46 72 -68 110 -44 74 -105 173 -186 302 -27
43 -66 107 -86 143 -21 36 -62 104 -91 153 -30 48 -70 114 -89 146 -81 137
-125 208 -148 235 -13 16 -37 56 -54 89 -16 34 -38 72 -48 86 -55 83 -181 285
-218 351 -13 25 -43 74 -67 110 -23 36 -67 108 -98 160 -32 52 -70 113 -86
135 -16 22 -77 112 -134 200 -185 280 -384 514 -582 684 -89 76 -285 221 -300
221 -4 0 -27 13 -50 29 -100 67 -275 161 -340 182 -38 12 -93 35 -122 51 -28
16 -96 40 -152 54 -94 23 -228 73 -296 111 -35 19 -192 166 -217 203 -10 14
-18 31 -18 37 0 15 163 183 201 206 14 9 51 26 84 37 32 11 79 33 104 49 25
16 70 37 100 46 51 17 129 59 286 157 38 24 90 55 115 69 109 60 369 268 506
404 176 175 293 322 491 622 17 26 45 68 62 93 26 38 152 244 210 344 9 15 31
53 50 85 19 31 48 81 66 111 90 153 197 332 234 390 95 149 141 225 141 233 0
5 9 22 21 38 12 17 38 60 59 97 20 37 62 108 92 157 96 156 230 380 278 465
14 25 42 70 61 100 85 131 108 169 129 211 13 24 35 62 50 84 15 22 51 83 80
135 29 52 92 158 140 235 48 77 95 156 105 175 10 19 54 89 98 155 63 95 81
130 84 165 4 33 1 49 -10 58 -20 17 -1866 18 -1897 2 -34 -18 -88 -98 -241
-355 -43 -71 -97 -161 -122 -200 -42 -67 -84 -135 -157 -255 -18 -30 -50 -84
-70 -120 -20 -36 -52 -90 -70 -120 -85 -140 -116 -190 -155 -250 -23 -36 -68
-110 -100 -165 -65 -112 -122 -206 -170 -280 -18 -27 -43 -70 -55 -93 -12 -24
-36 -65 -54 -90 -18 -26 -57 -90 -86 -142 -51 -92 -81 -140 -188 -303 -29 -44
-52 -83 -52 -88 0 -6 -23 -47 -52 -92 -100 -160 -113 -182 -129 -217 -9 -20
-32 -57 -50 -82 -19 -26 -54 -81 -79 -123 -66 -112 -177 -280 -240 -360 -29
-38 -67 -88 -84 -110 -116 -151 -358 -410 -480 -513 -49 -41 -116 -90 -150
-109 -33 -19 -68 -41 -76 -48 -9 -8 -43 -26 -75 -41 -33 -14 -87 -39 -120 -54
-65 -30 -424 -122 -545 -139 -149 -21 -652 -52 -985 -61 -187 -5 -644 -9
-1016 -10 l-676 0 -39 28 c-72 53 -199 196 -212 240 -10 31 -12 499 -12 2072
1 2247 6 2073 -62 2085 -18 3 -408 6 -866 8 l-832 2 0 -5052z"/>
<path d="M29056 11581 c-16 -3 -37 -18 -48 -32 -18 -24 -19 -51 -19 -665 0
-351 0 -649 1 -661 0 -12 10 -34 23 -48 l22 -26 3160 1 c1831 0 3227 -4 3320
-10 161 -9 305 -34 413 -71 31 -11 85 -26 120 -34 34 -8 89 -28 122 -45 33
-17 84 -40 113 -51 28 -11 68 -33 87 -48 19 -15 64 -47 99 -71 144 -97 502
-501 543 -613 6 -15 28 -64 50 -110 75 -154 126 -503 100 -677 -21 -142 -66
-337 -87 -380 -13 -25 -34 -72 -47 -105 -52 -128 -199 -315 -441 -563 -88 -90
-298 -234 -397 -273 -30 -11 -93 -38 -140 -60 -47 -21 -116 -43 -155 -49 -85
-14 -308 -56 -350 -66 -16 -4 -1180 -10 -2585 -14 -1763 -5 -2594 -11 -2681
-18 -140 -13 -237 -31 -349 -66 -41 -13 -105 -29 -142 -36 -42 -7 -89 -25
-123 -45 -30 -18 -77 -41 -104 -50 -27 -9 -67 -28 -88 -44 -21 -15 -67 -44
-101 -65 -55 -33 -72 -51 -126 -135 -34 -53 -68 -112 -76 -131 -7 -19 -28 -69
-46 -111 -19 -43 -38 -108 -44 -150 -6 -41 -17 -101 -25 -134 -28 -113 -36
-170 -45 -330 -11 -180 -14 -4032 -4 -4082 l7 -33 902 0 903 0 6 32 c3 18 6
848 6 1845 -1 1720 0 1815 17 1853 24 54 185 238 250 286 102 75 -120 68 2398
75 1683 4 2298 9 2380 18 61 7 191 27 290 46 99 18 218 39 265 45 47 6 137 29
200 50 63 21 144 44 180 50 36 6 96 25 134 42 38 17 108 41 155 55 47 13 110
38 140 53 31 16 76 36 100 45 24 8 69 31 101 50 32 19 75 42 96 51 22 9 73 37
114 63 41 27 120 76 175 111 107 68 188 131 356 277 126 109 145 132 280 331
107 157 157 244 212 367 18 39 44 90 58 115 15 25 36 80 48 123 12 43 33 101
47 128 14 28 35 103 48 167 13 64 33 140 44 168 55 138 92 759 62 1026 -6 49
-14 140 -20 203 -6 83 -17 139 -40 204 -17 49 -38 129 -47 178 -9 49 -29 114
-46 148 -16 32 -38 89 -48 125 -16 60 -98 230 -179 374 -47 83 -206 304 -264
366 -44 47 -146 135 -231 200 -18 14 -59 45 -91 70 -109 83 -119 90 -177 120
-32 17 -79 46 -105 64 -26 18 -63 39 -82 46 -19 7 -60 28 -90 46 -30 18 -79
42 -108 53 -29 12 -82 37 -116 55 -35 19 -97 44 -137 56 -41 12 -112 36 -159
55 -47 18 -132 43 -190 54 -58 11 -142 34 -186 50 -53 19 -133 37 -228 50 -80
11 -172 27 -203 35 -122 31 -361 58 -578 66 -121 4 -1643 8 -3382 8 -1739 1
-3167 4 -3175 6 -7 2 -26 1 -42 -3z"/>
<path d="M40605 11570 c-52 -20 -50 5 -52 -701 l-2 -659 24 -27 23 -28 1661
-2 c1400 -2 1667 -5 1695 -17 36 -15 211 -204 227 -245 6 -14 9 -1672 9 -4198
-1 -2297 1 -4178 4 -4180 3 -3 2 -11 -1 -19 -4 -12 127 -14 899 -14 l904 0 9
27 c7 18 8 1515 5 4188 -5 3957 -4 4162 13 4200 9 22 62 87 116 145 l99 105
1681 5 1681 5 26 27 27 26 -2 652 c-2 430 -6 660 -13 675 -5 12 -21 28 -35 34
-29 13 -8965 15 -8998 1z"/>
<path d="M65215 11564 c-20 -15 -20 -28 -23 -662 -2 -356 0 -660 3 -677 3 -16
12 -39 21 -50 15 -20 30 -20 3477 -26 l3462 -5 115 -22 c63 -12 149 -33 190
-46 41 -14 107 -32 145 -42 39 -9 94 -30 123 -45 29 -16 77 -39 106 -50 30
-11 74 -35 98 -53 23 -18 58 -41 76 -50 50 -26 151 -121 299 -284 156 -171
253 -304 298 -411 18 -42 44 -101 58 -131 30 -66 62 -293 62 -440 0 -178 -37
-400 -83 -500 -17 -36 -38 -88 -48 -115 -9 -28 -29 -68 -44 -90 -14 -22 -41
-66 -59 -97 -17 -31 -90 -120 -161 -198 -71 -77 -141 -156 -156 -175 -33 -44
-134 -124 -233 -185 -42 -25 -94 -58 -117 -73 -22 -15 -65 -36 -95 -46 -30
-11 -83 -33 -119 -50 -62 -29 -99 -39 -295 -77 -49 -9 -124 -24 -165 -32 -65
-13 -425 -16 -2805 -22 -1834 -5 -2775 -11 -2866 -18 -147 -12 -255 -31 -342
-61 -30 -11 -93 -27 -139 -36 -55 -11 -110 -31 -163 -60 -44 -24 -90 -46 -102
-50 -29 -8 -191 -109 -221 -138 -40 -37 -114 -147 -132 -196 -10 -25 -34 -77
-53 -116 -19 -38 -40 -99 -47 -135 -6 -36 -22 -107 -36 -159 -13 -52 -29 -147
-34 -210 -7 -88 -14 -4100 -7 -4228 l1 -23 902 0 902 0 6 32 c3 17 6 841 6
1829 0 1305 3 1810 11 1843 9 35 35 72 119 168 109 125 152 162 225 195 38 17
127 18 1677 21 1900 3 1667 20 1795 -130 44 -51 86 -100 94 -108 29 -29 145
-187 214 -290 39 -58 98 -142 130 -188 98 -137 213 -302 270 -387 30 -44 85
-123 124 -175 39 -52 114 -160 168 -240 53 -80 114 -166 134 -191 21 -25 86
-117 146 -205 103 -153 164 -240 263 -380 25 -35 77 -109 115 -165 39 -56 112
-159 163 -228 50 -69 124 -173 162 -231 38 -58 88 -130 110 -160 22 -30 57
-80 77 -110 20 -30 44 -66 54 -80 11 -14 63 -88 116 -164 54 -77 119 -169 145
-205 126 -175 244 -360 257 -403 l13 -48 1012 0 1012 0 11 33 c17 47 6 80 -46
141 -25 30 -58 75 -74 99 -15 25 -56 83 -91 130 -35 46 -114 158 -174 248 -61
90 -138 202 -171 249 -33 47 -117 168 -186 270 -226 332 -389 567 -420 607
-17 21 -43 58 -58 83 -15 25 -70 106 -123 180 -52 74 -107 154 -122 178 -15
23 -69 102 -120 175 -108 153 -123 174 -284 407 -67 96 -181 264 -254 372 -73
109 -148 217 -167 240 -19 24 -73 102 -119 173 -47 72 -121 179 -166 239 -84
111 -98 139 -88 179 7 30 216 244 252 257 16 7 79 22 139 35 64 13 135 35 171
54 33 17 92 38 130 46 38 9 96 31 129 49 33 18 83 41 110 51 56 21 148 71 345
188 170 102 244 152 349 241 46 39 98 82 115 95 95 74 192 184 270 306 23 35
68 104 102 152 33 48 89 147 123 218 34 72 76 156 93 188 16 33 40 96 53 140
12 45 35 107 49 139 15 31 35 100 46 155 10 54 31 143 45 198 69 265 71 1049
3 1290 -11 39 -30 121 -44 184 -13 62 -39 148 -58 190 -19 42 -40 102 -47 133
-6 31 -22 74 -35 95 -13 21 -29 52 -35 68 -62 157 -275 483 -396 607 -103 106
-400 336 -501 387 -24 12 -65 37 -90 55 -26 18 -65 40 -87 49 -22 8 -66 31
-99 51 -32 19 -75 41 -95 47 -20 7 -74 31 -121 54 -47 24 -118 53 -159 65 -40
12 -105 34 -145 50 -39 16 -111 36 -161 45 -49 9 -142 34 -205 55 -81 27 -148
42 -225 50 -60 6 -145 20 -188 31 -156 37 -357 60 -617 69 -140 5 -1762 9
-3605 9 -2973 0 -3352 -1 -3370 -15z"/>
</g>
</svg>
